<svg height="40" width="40" enable-background="new 0 0 128 128" viewBox="0 0 128 128" xmlns="http://www.w3.org/2000/svg" xmlns:xlink="http://www.w3.org/1999/xlink"><radialGradient id="a" cx="37.1966" cy="39.3766" gradientTransform="matrix(1 0 0 -1 0 127.8898)" gradientUnits="userSpaceOnUse" r="54.6534"><stop offset=".2639" stop-color="#9ccc65"/><stop offset=".8315" stop-color="#7cb342"/></radialGradient><clipPath id="b"><ellipse cx="48.7" cy="94.5" rx="11.3" ry="4.6"/></clipPath><clipPath id="c"><path d="m36.1 72c-40 5-35.2 26.8-36 29.7h-.1v39.6h128v-50.6s-51.9-23.7-91.9-18.7z"/></clipPath><linearGradient id="d" gradientUnits="userSpaceOnUse" x1="49.1703" x2="60.4203" y1="10.8575" y2="27.8575"><stop offset=".2716" stop-color="#ef5451"/><stop offset=".8315" stop-color="#e53a35"/></linearGradient><path d="m4 4.1h120v120h-120z" fill="none"/><path d="m124 89v35.1h-120v-37.4c4.2-6.1 13-12.3 32.1-14.7 33.4-4.2 75 11.6 87.9 17z" fill="url(#a)"/><path d="m4 4.1h120v120h-120z" fill="none"/><path d="m47.8 71.3c-4 0-7.9.2-11.7.7-19.1 2.4-27.9 8.6-32.1 14.7v7.2c1.8-6.8 8.4-15.9 32.5-18.9 3.5-.4 7.4-.7 11.3-.7 31.2 0 66.2 13.8 76.2 18v-3.3c-11.4-4.7-45.4-17.7-76.2-17.7z" fill="#434343" opacity=".2"/><ellipse cx="48.7" cy="94.5" fill="#1e5f30" rx="11.3" ry="4.6"/><ellipse clip-path="url(#b)" cx="48.7" cy="96.3" fill="#fef5a0" rx="9.7" ry="4"/><g clip-path="url(#c)" opacity=".4"><path d="m45.8 93.4c-.7.4-1 1.3-.6 2 .3.5.8.8 1.3.8.2 0 .5-.1.7-.2l6.6-3.1c-1.9-.4-3.6-.6-5.7-.6 0 0-2.3 1.1-2.3 1.1z" fill="#757576"/><path d="m78.1 74.5-29.9 15.5 5.7.6 28.9-15.1c-1.6-.4-3.1-.7-4.7-1z" fill="#757576"/><path d="m53.8 93-5.7-.7v-2.4l5.9.5z" fill="#434343"/></g><path d="m45.3 96.6c-1.1 0-2-.7-2-1.6v-88c0-.9.9-1.6 2-1.6s2 .7 2 1.6v88c0 .9-.9 1.6-2 1.6z" fill="#fcb64e"/><path d="m73.8 23.5-27 9.1c-.5.2-1-.2-1-.7v-20.8c0-.6.6-.9 1.1-.7l27 11.7c.6.2.6 1.2-.1 1.4z" fill="url(#d)"/><path d="m45.3 6.4c.6 0 1 .3 1 .6v3.5c0 .4.2.8.6.9l26.1 11.3-26 8.8c-.4.1-.7.5-.7 1v62.5c0 .3-.4.6-1 .6s-1-.3-1-.6v-88c0-.3.4-.6 1-.6zm0-1c-1.1 0-2 .7-2 1.6v88c0 .9.9 1.6 2 1.6s2-.7 2-1.6v-62.6l26.6-9c.7-.2.7-1.1.1-1.4l-26.7-11.5v-3.5c0-.9-.9-1.6-2-1.6z" fill="#434343" opacity=".2"/></svg>