<?xml version="1.0" standalone="no"?>
<!DOCTYPE svg PUBLIC "-//W3C//DTD SVG 20010904//EN"
 "http://www.w3.org/TR/2001/REC-SVG-20010904/DTD/svg10.dtd">
<svg version="1.0" xmlns="http://www.w3.org/2000/svg"
 width="1920.000000pt" height="1796.000000pt" viewBox="0 0 1920.000000 1796.000000"
 preserveAspectRatio="xMidYMid meet">

<g transform="translate(0.000000,1796.000000) scale(0.100000,-0.100000)"
fill="#000000" stroke="none">
<path d="M42 8983 l3 -8948 9578 -3 9577 -2 0 8950 0 8950 -9580 0 -9580 0 2
-8947z m8970 7786 c74 -16 120 -41 161 -89 44 -52 61 -113 54 -191 -9 -98 -67
-167 -180 -213 l-54 -22 163 -174 c90 -96 164 -179 164 -183 0 -4 -19 -7 -42
-5 -41 3 -49 10 -206 175 -145 153 -166 172 -190 168 -15 -2 -80 -9 -144 -16
-139 -13 -126 15 -103 -223 9 -87 14 -160 13 -161 -2 -2 -18 -6 -35 -10 -27
-5 -33 -4 -33 11 0 20 -66 698 -79 819 -5 44 -9 81 -7 82 3 3 378 40 423 42
23 0 66 -4 95 -10z m1657 0 c179 -30 314 -152 363 -328 62 -226 -46 -475 -249
-572 -59 -28 -81 -33 -170 -37 -88 -4 -113 -1 -175 19 -191 61 -310 232 -309
445 0 233 147 424 361 470 72 16 100 16 179 3z m1830 -422 c126 -44 226 -138
272 -254 31 -79 38 -228 14 -309 -41 -141 -130 -251 -253 -311 -75 -38 -77
-38 -197 -38 -118 0 -121 1 -198 37 -240 115 -331 387 -211 635 106 222 341
320 573 240z m-5921 -595 c105 -225 192 -413 192 -419 0 -22 -40 -24 -82 -5
-24 11 -231 113 -461 227 -230 114 -420 205 -422 203 -2 -2 74 -165 167 -362
162 -340 170 -360 152 -373 -10 -7 -25 -12 -32 -11 -10 2 -407 819 -399 823
55 26 55 26 160 -24 56 -27 261 -128 455 -225 195 -96 352 -170 349 -163 -2 7
-77 165 -166 353 -88 187 -161 345 -161 350 0 9 34 32 50 33 3 0 92 -183 198
-407z m7416 -111 c105 -37 207 -127 257 -226 28 -56 29 -61 12 -72 -32 -24
-49 -15 -68 35 -23 59 -122 160 -189 191 -74 34 -132 37 -186 9 -86 -44 -114
-132 -69 -219 11 -22 69 -91 129 -154 127 -133 154 -177 154 -255 0 -147 -141
-254 -292 -222 -153 32 -282 146 -351 310 -12 30 -21 56 -18 58 2 2 17 6 34
10 28 6 31 3 48 -43 58 -157 197 -273 328 -273 75 0 121 22 155 73 36 54 36
116 0 172 -14 22 -70 86 -124 141 -55 55 -112 124 -128 153 -25 46 -28 61 -24
119 3 53 10 76 32 110 63 93 180 125 300 83z m-3689 -225 c957 -92 1812 -339
2641 -766 2090 -1075 3524 -3129 3813 -5460 52 -417 66 -984 36 -1397 -114
-1553 -702 -2973 -1724 -4163 -143 -166 -523 -550 -689 -693 -670 -584 -1407
-1022 -2236 -1331 -505 -189 -1080 -327 -1626 -391 -483 -57 -1104 -61 -1600
-9 -1593 164 -3088 870 -4244 2004 -730 715 -1280 1549 -1652 2500 l-52 134
-59 13 c-412 93 -706 392 -789 802 -25 125 -16 335 20 456 66 224 221 441 395
556 l24 15 -11 175 c-25 367 -11 906 34 1279 127 1074 486 2084 1063 2990 732
1152 1788 2079 3021 2650 822 382 1642 587 2620 654 145 10 854 -3 1015 -18z
m-5428 -307 c216 -74 361 -315 325 -537 -24 -144 -120 -270 -256 -337 -187
-93 -398 -50 -543 109 -183 201 -177 491 15 667 127 116 300 153 459 98z
m10497 -484 c129 -115 235 -215 235 -221 1 -6 -8 -19 -18 -28 -19 -17 -23 -14
-123 76 -57 51 -110 99 -119 105 -14 11 -55 -31 -298 -302 -156 -173 -286
-315 -289 -315 -9 0 -42 33 -42 42 0 5 126 149 280 320 154 172 280 314 279
317 0 4 -24 26 -53 51 -28 25 -80 71 -115 102 l-64 57 17 26 17 26 29 -23 c16
-13 135 -117 264 -233z m-11789 -771 c72 -25 168 -88 216 -142 23 -26 58 -81
78 -122 35 -73 36 -78 36 -195 0 -113 -2 -124 -31 -185 -88 -186 -288 -299
-478 -270 -101 15 -206 69 -282 144 -195 195 -193 480 4 668 99 94 195 131
327 124 44 -3 103 -12 130 -22z m12890 -434 c180 -237 192 -256 178 -272 -9
-10 -21 -18 -27 -18 -6 0 -90 103 -185 230 -111 145 -178 227 -185 222 -6 -5
-69 -53 -141 -107 -71 -54 -131 -99 -133 -101 -2 -1 67 -94 152 -207 86 -113
156 -210 156 -216 0 -9 -31 -31 -44 -31 -3 0 -73 90 -157 200 -84 111 -155
203 -159 205 -11 7 -285 -205 -284 -219 1 -7 79 -115 174 -240 l173 -229 -24
-18 c-24 -19 -24 -18 -44 4 -40 48 -374 492 -375 500 -2 11 712 556 723 554 4
-1 95 -117 202 -257z m-13812 -1141 c221 -111 403 -203 405 -204 2 -2 -3 -16
-12 -32 l-15 -29 -348 172 c-191 95 -349 171 -351 169 -2 -2 64 -126 147 -276
83 -150 150 -273 148 -275 -1 -1 -141 -22 -310 -46 -169 -23 -307 -45 -307
-48 0 -3 155 -83 345 -178 190 -95 345 -178 345 -185 0 -7 -6 -21 -13 -31 -12
-17 -43 -3 -418 184 -222 111 -406 204 -408 206 -2 2 2 16 8 32 12 29 13 29
174 50 343 45 482 64 485 67 2 1 -68 128 -154 281 -87 154 -157 287 -156 297
1 17 19 47 28 47 2 0 185 -90 407 -201z m14621 -161 c112 -233 119 -253 119
-344 -1 -112 -59 -196 -160 -234 -103 -38 -184 -17 -276 72 l-58 57 -107 -215
c-59 -118 -110 -214 -113 -214 -4 0 -14 17 -22 38 l-15 37 108 213 109 213
-65 132 c-36 72 -66 133 -68 135 -2 1 -79 -34 -171 -80 -160 -80 -167 -82
-181 -64 -8 11 -14 26 -14 33 0 8 75 50 173 97 532 256 623 300 632 308 5 4
11 8 13 8 2 0 45 -87 96 -192z"/>
<path d="M8703 16695 c-68 -6 -126 -14 -129 -18 -7 -6 31 -395 39 -403 2 -3
87 4 187 15 157 17 191 24 238 48 81 41 115 88 120 166 5 88 -24 142 -98 180
-48 24 -64 27 -144 26 -50 -1 -146 -7 -213 -14z"/>
<path d="M10449 16687 c-156 -66 -239 -191 -247 -374 -3 -69 0 -106 13 -145
36 -111 112 -199 214 -247 49 -22 69 -26 156 -26 93 0 105 2 166 32 303 149
302 610 -1 751 -44 21 -73 27 -150 29 -82 3 -103 0 -151 -20z"/>
<path d="M12292 16309 c-123 -16 -244 -109 -303 -232 -102 -215 -26 -448 179
-549 61 -30 74 -33 162 -33 87 0 101 3 160 32 159 78 249 238 238 422 -13 226
-210 388 -436 360z"/>
<path d="M9285 15374 c-22 -2 -103 -8 -180 -14 -1612 -122 -3189 -834 -4340
-1960 -356 -349 -596 -626 -857 -990 -623 -872 -1045 -1895 -1218 -2952 -72
-442 -94 -761 -86 -1263 3 -214 9 -409 12 -432 l6 -42 57 28 c31 16 82 37 113
46 l57 18 -5 186 c-2 102 -6 210 -9 239 -6 85 13 553 30 722 85 855 316 1649
696 2401 1022 2023 2931 3383 5174 3688 334 45 492 55 910 55 428 0 586 -10
937 -59 285 -40 488 -81 774 -155 1093 -282 2121 -851 2954 -1634 140 -133
270 -269 267 -280 -2 -5 -10 -14 -19 -20 -12 -7 -40 10 -129 81 -773 614
-1653 1014 -2605 1182 -556 99 -1176 111 -1739 35 -175 -24 -427 -72 -600
-114 -155 -38 -416 -113 -435 -125 -6 -4 -6 -14 2 -28 6 -12 13 -65 16 -118 6
-122 -19 -212 -85 -312 -75 -112 -174 -179 -318 -213 -185 -43 -396 39 -510
197 -21 30 -42 58 -45 62 -13 15 -378 -205 -572 -344 -691 -495 -1246 -1105
-1664 -1829 -364 -630 -620 -1383 -709 -2085 l-6 -51 52 -24 c179 -84 310
-213 393 -391 89 -187 99 -399 30 -602 -59 -173 -213 -353 -374 -436 -47 -24
-87 -45 -89 -47 -1 -1 4 -49 14 -106 130 -810 423 -1571 859 -2237 228 -348
433 -599 740 -906 296 -296 516 -480 814 -683 l144 -97 21 30 c176 252 535
297 760 96 146 -132 205 -346 148 -531 -11 -36 -17 -68 -13 -71 11 -10 216
-88 357 -136 250 -84 516 -153 785 -203 183 -35 501 -75 522 -68 14 6 268 744
268 779 0 8 -36 154 -80 325 -44 170 -108 418 -142 552 l-63 243 -40 9 c-22 6
-110 33 -195 60 -882 287 -1525 1054 -1666 1990 -14 91 -18 185 -18 445 l-1
330 48 3 47 3 0 375 0 374 -153 0 -154 0 -6 -272 c-4 -149 -7 -1048 -7 -1998
l0 -1726 -215 108 -215 109 0 152 0 152 -185 89 -185 89 0 154 0 153 -187 93
-188 93 -3 151 -3 150 -184 89 -185 88 0 153 0 153 -187 92 -188 93 -3 1358
-2 1357 -83 0 c-51 0 -88 5 -95 12 -17 17 -17 419 0 436 7 7 44 12 95 12 l82
0 5 33 c3 17 7 79 10 137 21 390 176 835 414 1184 169 248 409 489 649 651
l74 50 2 95 c3 112 25 168 95 238 64 65 139 94 237 95 100 0 173 -30 240 -98
l45 -47 107 25 c237 56 290 62 583 62 224 0 294 -3 380 -19 429 -75 775 -223
1106 -472 l122 -92 51 42 c200 160 262 448 146 677 -15 28 -25 52 -23 53 2 2
57 33 123 71 66 37 123 69 127 72 4 2 23 -27 42 -65 169 -335 97 -737 -178
-1000 -36 -35 -66 -65 -66 -66 0 -2 30 -39 66 -82 330 -396 533 -912 560
-1421 l7 -122 91 -3 91 -3 0 -225 0 -225 -92 -3 -93 -3 0 -814 0 -815 235 0
235 0 0 714 0 714 31 123 c110 438 338 834 669 1159 l128 126 -127 174 c-568
785 -1000 1400 -1021 1456 -52 135 -20 265 91 377 74 74 165 118 258 125 115
8 237 -30 314 -98 41 -35 43 -34 50 43 16 168 195 330 380 344 117 9 204 -18
300 -91 l47 -36 0 39 c0 21 9 63 19 94 38 111 118 198 230 251 61 29 74 31
171 31 97 0 110 -2 171 -31 83 -40 159 -115 198 -197 24 -50 39 -115 75 -327
26 -146 66 -382 91 -525 105 -609 138 -797 159 -920 l22 -130 194 -6 c218 -7
366 -26 548 -70 198 -48 426 -133 438 -163 9 -24 -53 -262 -104 -397 l-48
-126 253 -269 c138 -148 248 -271 242 -272 -9 -3 -224 9 -649 38 l-135 9 -25
-32 c-14 -18 -53 -65 -88 -105 l-63 -72 182 -453 183 -452 0 -105 c1 -100 -1
-109 -32 -172 -58 -118 -154 -195 -279 -224 -37 -8 -69 -17 -71 -19 -2 -1 32
-90 75 -196 l78 -194 0 -100 c0 -91 -3 -106 -31 -165 -54 -114 -128 -181 -245
-220 -178 -61 -390 23 -476 187 -17 32 -138 326 -268 653 -130 327 -241 602
-246 610 -5 9 -9 -224 -9 -542 l0 -558 84 0 c59 0 87 -4 95 -14 8 -9 11 -78 9
-227 l-3 -214 -91 -3 -92 -3 -7 -107 c-52 -821 -479 -1535 -1175 -1967 -188
-116 -463 -231 -706 -294 l-41 -11 -66 -257 c-37 -142 -101 -390 -143 -552
l-75 -293 137 -392 c75 -215 140 -395 144 -399 17 -19 503 56 772 119 960 225
1798 664 2538 1329 532 477 1015 1127 1327 1783 50 106 67 132 83 132 11 0 23
-6 26 -13 10 -28 -160 -483 -274 -734 -283 -617 -623 -1147 -1071 -1668 -117
-137 -439 -463 -591 -599 -1031 -926 -2312 -1507 -3715 -1685 -533 -68 -1168
-66 -1705 4 -1421 186 -2750 820 -3807 1816 -552 521 -1008 1129 -1360 1816
-104 203 -293 622 -293 650 0 9 -32 10 -128 6 -70 -3 -128 -7 -130 -8 -2 -2
17 -54 42 -117 461 -1166 1197 -2163 2171 -2943 824 -659 1793 -1130 2805
-1365 788 -183 1608 -230 2420 -139 1576 176 3056 888 4185 2014 1054 1051
1743 2374 1989 3825 112 658 128 1401 46 2077 -211 1721 -1070 3326 -2395
4472 -972 841 -2163 1406 -3419 1621 -426 72 -650 91 -1146 95 -228 1 -433 1
-455 -1z"/>
<path d="M9290 15044 c-1657 -97 -3188 -766 -4354 -1904 -458 -447 -867 -981
-1182 -1545 -390 -699 -656 -1471 -779 -2259 -61 -397 -88 -902 -70 -1327 l7
-176 57 10 c84 14 303 2 386 -21 203 -57 344 -140 486 -288 238 -249 331 -599
248 -934 -29 -118 -113 -287 -192 -386 -126 -155 -302 -277 -478 -330 -32 -10
-59 -22 -59 -26 0 -17 107 -273 175 -418 781 -1674 2218 -2947 3999 -3544 392
-132 828 -230 1261 -286 377 -48 920 -63 1290 -36 955 71 1802 306 2630 730
1260 644 2254 1635 2921 2911 75 144 237 495 232 501 -2 2 -28 -38 -57 -89
-142 -243 -381 -577 -581 -812 -141 -165 -517 -538 -675 -669 -678 -564 -1427
-948 -2270 -1166 -238 -61 -532 -117 -735 -140 -158 -18 -154 -3 -44 -143 54
-67 101 -127 106 -133 4 -6 5 -19 2 -28 -6 -16 -31 -17 -281 -14 l-275 3 -94
-245 c-52 -134 -100 -247 -106 -251 -23 -14 -36 4 -72 94 -19 51 -63 163 -97
251 l-61 159 -277 -4 c-239 -3 -276 -2 -278 11 -2 8 46 74 106 145 60 72 108
131 107 132 -1 1 -74 11 -161 22 -488 63 -1004 195 -1409 360 l-99 41 -15 -23
c-28 -42 -119 -122 -170 -150 -57 -31 -187 -67 -241 -67 -63 0 -170 28 -237
61 -208 103 -323 369 -255 588 l19 60 -112 75 c-1046 703 -1829 1724 -2239
2921 -110 322 -176 593 -252 1034 -6 30 -9 33 -33 27 -15 -4 -70 -12 -123 -18
-373 -45 -745 210 -848 581 -103 370 76 763 422 931 153 74 347 99 504 67 l62
-13 7 45 c221 1634 1146 3115 2517 4029 129 86 298 190 405 248 50 27 53 31
47 59 -4 17 -9 74 -12 128 -4 80 -1 109 16 165 60 199 237 341 444 358 182 15
362 -72 462 -222 23 -34 42 -53 51 -50 47 18 258 80 362 106 517 129 923 180
1442 180 436 0 674 -23 1145 -110 248 -46 695 -180 985 -295 315 -125 672
-307 955 -487 77 -49 151 -96 165 -104 93 -58 -277 246 -475 391 -460 336
-1011 636 -1545 843 -598 230 -1159 362 -1830 428 -157 15 -789 27 -950 18z
m-3483 -2257 c39 -21 89 -70 109 -109 25 -48 29 -128 10 -186 -30 -89 -131
-162 -226 -162 -95 0 -207 83 -230 170 -34 127 36 262 156 300 41 13 144 6
181 -13z m-904 -373 c76 -26 137 -110 137 -190 0 -64 -51 -144 -112 -175 -53
-27 -154 -24 -195 7 -59 44 -86 91 -91 154 -7 99 41 172 137 206 48 17 69 17
124 -2z m217 -696 c48 -25 90 -89 90 -138 0 -14 -10 -46 -22 -70 -25 -48 -89
-90 -138 -90 -14 0 -46 10 -70 23 -48 24 -90 88 -90 137 0 48 42 112 89 137
55 29 85 29 141 1z m-1192 -1557 c130 -67 149 -231 39 -328 -75 -66 -171 -68
-255 -6 -63 47 -91 152 -61 230 14 37 66 92 104 109 45 20 129 17 173 -5z
m1060 -3786 c188 -79 148 -357 -55 -382 -126 -14 -242 107 -219 230 23 125
158 200 274 152z m1338 -2183 c176 -91 175 -341 -2 -428 -110 -54 -244 -15
-308 89 -83 135 -15 306 144 358 38 13 123 3 166 -19z m644 -294 c55 -38 74
-72 74 -133 0 -61 -18 -95 -75 -133 -66 -46 -176 -14 -216 61 -70 136 92 290
217 205z m-192 -514 c74 -31 131 -111 132 -185 0 -19 -12 -59 -26 -87 -68
-136 -252 -149 -338 -25 -110 159 55 371 232 297z"/>
<path d="M5625 12735 c-16 -9 -38 -24 -49 -33 -27 -24 -56 -91 -56 -132 0 -49
38 -120 79 -147 92 -61 209 -31 259 67 41 81 20 170 -54 226 -45 35 -132 44
-179 19z"/>
<path d="M4780 12352 c-74 -37 -102 -131 -60 -199 28 -46 72 -66 134 -60 41 4
55 11 82 40 45 49 53 97 25 154 -16 33 -32 49 -64 63 -52 24 -73 25 -117 2z"/>
<path d="M5015 11671 c-64 -27 -81 -110 -32 -158 60 -61 162 -19 162 67 0 66
-72 116 -130 91z"/>
<path d="M3768 10105 c-59 -33 -85 -123 -53 -185 34 -66 104 -92 173 -65 99
40 120 155 42 230 -36 35 -118 45 -162 20z"/>
<path d="M4839 6307 c-72 -48 -86 -134 -35 -202 74 -97 230 -51 244 71 13 115
-114 195 -209 131z"/>
<path d="M6150 4144 c-45 -20 -68 -41 -91 -86 -45 -87 -7 -197 83 -244 34 -18
109 -18 151 0 41 16 81 64 97 112 47 141 -104 277 -240 218z"/>
<path d="M6833 3845 c-29 -20 -46 -75 -34 -107 21 -55 92 -84 142 -58 30 17
52 68 45 106 -12 63 -99 97 -153 59z"/>
<path d="M6645 3321 c-56 -34 -70 -58 -70 -121 0 -63 20 -96 77 -126 90 -47
207 37 194 140 -12 98 -122 156 -201 107z"/>
<path d="M8455 14276 c-107 -26 -222 -112 -277 -207 -47 -82 -61 -142 -56
-250 2 -54 8 -103 14 -109 8 -8 25 -3 60 15 l49 25 0 93 c0 107 19 158 87 227
63 65 136 95 233 95 103 -1 165 -27 235 -101 l50 -53 43 15 c23 8 48 16 55 19
33 12 -95 153 -176 194 -94 48 -214 62 -317 37z"/>
<path d="M8474 14094 c-103 -37 -174 -138 -174 -249 0 -36 2 -65 4 -65 1 0 54
24 117 53 63 30 168 75 234 102 66 26 124 51 128 55 13 12 -81 87 -130 104
-57 19 -124 19 -179 0z"/>
<path d="M8925 13972 c-22 -8 -41 -16 -43 -17 -1 -1 1 -28 6 -59 18 -111 -12
-207 -88 -285 -64 -66 -137 -96 -235 -96 -105 0 -172 31 -249 116 l-54 60 -46
-23 c-25 -12 -46 -27 -46 -33 0 -7 13 -30 29 -51 169 -230 485 -255 681 -55
108 111 151 260 119 411 -12 54 -15 56 -74 32z"/>
<path d="M8775 13920 c-11 -5 -76 -32 -145 -60 -200 -83 -300 -132 -300 -147
0 -8 22 -36 49 -62 89 -87 207 -103 315 -43 90 51 136 131 136 239 0 81 -9 93
-55 73z"/>
<path d="M13065 13097 c-108 -36 -188 -104 -232 -197 -33 -69 -42 -182 -20
-252 12 -38 12 -51 2 -64 -17 -25 -41 -12 -65 36 -78 153 -258 232 -420 184
-101 -30 -180 -97 -228 -193 -25 -51 -27 -65 -25 -156 1 -55 3 -116 5 -135 5
-61 -24 -50 -76 28 -78 117 -182 174 -321 176 -72 1 -88 -3 -147 -32 -155 -76
-232 -232 -184 -370 21 -60 163 -267 661 -962 505 -705 478 -670 497 -657 9 7
57 41 105 75 48 35 94 67 102 72 13 7 3 117 -62 751 -69 673 -75 745 -61 756
9 6 21 9 27 7 7 -3 114 -152 239 -332 644 -928 598 -864 632 -859 51 8 321 51
323 51 1 1 -7 48 -17 106 -10 58 -39 227 -65 375 -25 149 -52 304 -60 345 -8
41 -41 235 -75 430 -92 535 -99 571 -125 626 -53 118 -167 194 -298 200 -42 2
-88 -2 -112 -9z m175 -186 c14 -10 35 -33 48 -51 42 -62 21 -174 -39 -209 -20
-11 -27 -22 -23 -36 13 -58 174 -931 174 -947 0 -24 -28 -35 -45 -17 -7 8 -43
174 -80 369 -68 362 -102 538 -110 576 -3 15 -15 24 -40 28 -95 18 -150 127
-111 219 35 85 153 120 226 68z m-744 -287 c98 -47 119 -177 40 -252 -68 -64
-160 -62 -223 4 -117 124 29 321 183 248z m-726 -334 c78 -40 104 -155 51
-229 l-22 -31 222 -327 c122 -181 238 -350 256 -376 37 -53 39 -80 7 -85 -18
-2 -65 61 -280 377 l-259 380 -51 1 c-89 0 -156 66 -156 154 0 123 120 193
232 136z"/>
<path d="M13086 12839 c-29 -34 -33 -67 -11 -108 44 -86 175 -50 175 49 0 55
-36 90 -94 90 -37 0 -48 -5 -70 -31z"/>
<path d="M12379 12565 c-50 -27 -62 -111 -21 -148 33 -30 70 -38 107 -23 63
27 76 106 26 157 -33 32 -70 37 -112 14z"/>
<path d="M11629 12221 c-22 -22 -29 -39 -29 -67 0 -86 99 -126 161 -65 40 41
40 89 -2 130 -41 42 -89 42 -130 2z"/>
<path d="M10624 12339 l-71 -39 23 -65 c32 -88 45 -199 32 -288 -20 -148 -72
-251 -181 -361 l-79 -79 65 -65 65 -65 83 85 c133 134 207 288 228 472 10 88
2 205 -20 291 -13 49 -59 155 -68 155 -3 -1 -38 -19 -77 -41z"/>
<path d="M7655 12131 c-129 -34 -214 -140 -215 -268 l0 -62 83 46 c88 49 268
129 355 157 28 10 52 21 52 25 0 14 -55 59 -97 80 -47 23 -133 34 -178 22z"/>
<path d="M8520 12078 c-124 -9 -302 -37 -415 -66 -59 -16 -69 -22 -66 -38 2
-10 5 -64 5 -119 1 -93 -1 -104 -29 -153 -111 -201 -372 -245 -530 -88 -28 28
-58 61 -66 74 l-14 23 -73 -50 c-338 -233 -607 -548 -793 -926 -142 -291 -220
-583 -236 -887 l-6 -128 440 0 441 0 7 88 c22 270 107 519 256 743 87 130 282
324 415 412 180 119 379 198 589 234 l103 17 47 181 c73 283 74 285 96 285 25
0 30 -13 84 -225 26 -99 50 -194 56 -210 9 -30 12 -31 117 -49 534 -90 992
-474 1171 -980 34 -96 34 -119 -1 -114 -17 2 -27 19 -50 82 -149 426 -499 766
-929 904 -101 32 -267 67 -276 58 -3 -3 5 -47 18 -98 l24 -91 92 -23 c355 -87
669 -341 833 -675 34 -69 35 -99 1 -99 -14 0 -29 19 -55 73 -112 232 -309 432
-539 548 -75 38 -217 90 -284 104 l-31 6 29 -113 c16 -62 59 -225 94 -363 36
-137 91 -351 123 -475 l59 -225 933 -3 933 -2 -6 122 c-27 510 -248 1051 -584
1427 l-39 44 -54 -31 c-30 -17 -98 -46 -150 -64 -91 -31 -101 -32 -250 -32
-178 -1 -228 10 -375 79 -102 47 -195 114 -256 183 -46 52 -134 180 -128 186
5 4 206 119 236 134 19 11 24 7 53 -38 122 -190 363 -286 589 -234 120 27 120
30 3 117 -317 236 -671 388 -1052 451 -82 14 -365 35 -425 32 -11 -1 -72 -4
-135 -8z"/>
<path d="M12660 11989 c0 -13 7 -87 15 -164 8 -77 35 -345 60 -595 25 -250 48
-474 51 -497 l6 -41 47 27 c119 70 271 136 441 192 63 20 114 42 113 48 -2 5
-167 245 -368 532 -247 353 -365 514 -365 498z"/>
<path d="M7860 11934 c-105 -38 -400 -180 -400 -193 0 -5 16 -29 35 -54 24
-32 55 -55 100 -78 59 -29 71 -31 132 -27 80 6 133 30 184 85 51 53 71 97 77
169 4 57 -11 135 -26 133 -4 0 -50 -16 -102 -35z"/>
<path d="M9407 11645 l-78 -46 23 -32 c79 -113 225 -230 351 -280 207 -83 455
-74 650 24 31 16 57 33 57 37 0 4 -27 34 -60 67 l-59 59 -83 -30 c-74 -26 -96
-29 -203 -29 -133 0 -180 11 -296 72 -66 34 -153 108 -200 170 l-24 33 -78
-45z"/>
<path d="M8686 11493 c-3 -10 -12 -43 -20 -73 -8 -30 -96 -365 -195 -745 -99
-379 -196 -753 -216 -830 -20 -77 -90 -345 -155 -595 -65 -250 -137 -527 -160
-615 -22 -88 -43 -168 -46 -178 -5 -16 6 -17 182 -15 l187 3 17 65 c10 36 53
200 95 365 42 165 90 347 105 405 15 58 58 222 95 365 95 371 93 365 116 365
25 0 31 -16 73 -180 19 -74 56 -216 81 -315 26 -99 68 -263 95 -365 26 -102
78 -303 116 -447 l68 -263 187 0 187 0 -18 68 c-11 37 -191 726 -400 1532
-210 806 -383 1466 -385 1468 -2 2 -6 -5 -9 -15z"/>
<path d="M8405 11129 c-443 -95 -808 -375 -1007 -774 -83 -164 -131 -336 -147
-520 -5 -60 -6 -114 -2 -118 4 -4 48 -7 97 -5 l89 3 7 87 c23 308 148 580 367
799 159 158 352 271 561 325 58 15 107 29 108 30 3 2 51 180 52 192 0 5 -41
-1 -125 -19z"/>
<path d="M13830 10961 c-98 -9 -289 -40 -307 -50 -9 -4 11 -40 60 -111 693
-998 811 -1165 822 -1167 17 -3 151 164 240 297 98 147 196 339 255 500 47
129 101 332 91 342 -3 3 -62 26 -131 51 -147 53 -333 100 -480 122 -123 18
-429 27 -550 16z"/>
<path d="M13285 10849 c-158 -52 -471 -198 -482 -224 -3 -9 6 -129 21 -268 14
-138 26 -256 26 -262 0 -5 18 26 39 70 115 233 361 369 641 352 49 -2 110 -14
145 -26 32 -11 60 -21 62 -21 3 0 -278 403 -291 417 -8 9 -46 0 -161 -38z"/>
<path d="M8382 10870 c-316 -83 -610 -325 -760 -625 -69 -139 -122 -343 -122
-469 l0 -66 330 0 c182 0 330 3 330 6 0 3 38 152 85 332 47 180 99 381 116
447 17 66 44 167 59 225 31 118 43 170 38 169 -2 0 -36 -9 -76 -19z"/>
<path d="M12646 10524 c-161 -113 -351 -291 -483 -454 -148 -183 -300 -453
-381 -675 -40 -110 -92 -294 -92 -326 0 -12 28 -27 95 -53 183 -70 368 -115
575 -142 116 -14 429 -19 513 -8 43 6 46 8 41 33 -2 14 -18 161 -35 326 -52
524 -119 1158 -135 1299 -4 31 -10 56 -13 56 -3 -1 -41 -25 -85 -56z"/>
<path d="M13341 10444 c-238 -52 -418 -241 -449 -471 -5 -35 -8 -63 -7 -63 1
0 20 30 41 67 44 75 143 186 213 237 69 51 181 104 269 128 87 23 274 29 352
10 l45 -11 -25 20 c-109 90 -269 120 -439 83z"/>
<path d="M13523 10273 c70 -137 -37 -312 -191 -313 -78 0 -166 51 -196 115
-10 20 -23 34 -29 32 -6 -2 -28 -24 -50 -50 l-39 -46 21 -35 c28 -44 69 -79
135 -114 46 -24 62 -27 151 -27 95 0 103 2 163 34 137 74 209 220 181 369
l-11 62 -74 0 -75 0 14 -27z"/>
<path d="M13380 10271 c-54 -17 -156 -67 -194 -96 -23 -18 -16 -51 21 -96 70
-83 197 -75 253 16 29 46 25 145 -6 175 -18 18 -21 18 -74 1z"/>
<path d="M13733 10239 c32 -163 -69 -351 -233 -432 -61 -30 -71 -32 -175 -32
-104 0 -114 2 -176 32 -41 20 -85 53 -118 87 l-52 55 -19 -32 c-28 -46 -64
-157 -54 -167 5 -5 47 -19 94 -31 120 -31 301 -24 410 16 195 71 334 196 421
380 21 44 39 93 41 109 3 28 0 31 -52 47 -30 10 -64 18 -76 18 -20 1 -21 -2
-11 -50z"/>
<path d="M14858 10175 l-15 -34 136 -93 136 -92 -114 122 c-62 68 -117 124
-121 127 -3 2 -13 -11 -22 -30z"/>
<path d="M13900 10124 c-89 -237 -327 -430 -584 -475 -96 -16 -274 -7 -356 19
-35 12 -65 20 -66 19 -1 -1 13 -144 31 -317 18 -173 36 -352 40 -398 4 -52 12
-85 20 -88 24 -10 272 47 417 96 326 108 636 292 882 522 l79 73 -160 230
c-259 372 -268 385 -273 385 -3 0 -16 -30 -30 -66z"/>
<path d="M14790 10044 c-13 -20 -19 -39 -14 -43 5 -5 70 -30 144 -55 74 -26
145 -51 158 -56 13 -6 25 -10 28 -10 3 0 -45 34 -108 76 -62 42 -127 87 -145
100 -17 13 -34 24 -37 24 -2 0 -14 -16 -26 -36z"/>
<path d="M14696 9894 c-20 -30 -36 -55 -36 -57 0 -2 60 -7 134 -10 74 -4 174
-9 223 -12 l88 -6 -70 27 c-38 14 -123 45 -187 69 l-117 43 -35 -54z"/>
<path d="M8676 9799 c-8 -30 -36 -135 -61 -234 -75 -293 -225 -871 -259 -1000
l-32 -120 364 -3 c201 -1 367 0 369 2 2 2 -7 46 -21 97 -13 52 -45 175 -71
274 -26 99 -73 281 -105 405 -32 124 -82 315 -110 425 -29 110 -53 202 -55
204 -2 2 -11 -21 -19 -50z"/>
<path d="M6100 9480 l0 -170 974 0 c536 0 977 3 980 8 4 6 86 319 86 328 0 2
-459 4 -1020 4 l-1020 0 0 -170z"/>
<path d="M9250 9635 c0 -8 14 -65 30 -127 17 -62 35 -132 41 -155 l12 -43 973
0 974 0 0 170 0 170 -1015 0 c-890 0 -1015 -2 -1015 -15z"/>
<path d="M14312 9449 l-74 -71 146 -357 c120 -293 146 -365 146 -405 0 -103
-85 -182 -185 -174 -28 2 -44 -1 -41 -7 2 -5 21 -53 41 -105 21 -52 43 -100
49 -107 15 -15 104 -1 160 27 147 71 229 252 183 401 -22 70 -341 869 -347
869 -3 0 -38 -32 -78 -71z"/>
<path d="M14135 9299 c-27 -22 -69 -52 -92 -67 -24 -15 -43 -32 -43 -38 0 -17
245 -620 263 -648 19 -29 83 -52 121 -42 46 12 78 48 83 97 5 40 -6 72 -92
285 -117 286 -186 454 -189 453 0 0 -23 -18 -51 -40z"/>
<path d="M4785 9274 c-282 -46 -511 -234 -599 -491 -39 -113 -50 -230 -33
-343 45 -303 249 -530 552 -616 76 -21 247 -24 333 -5 l64 14 -7 71 c-4 39 -8
72 -10 74 -1 2 -40 -4 -86 -14 -420 -85 -792 298 -694 715 47 197 209 370 405
432 86 28 240 30 325 5 101 -30 194 -85 265 -157 264 -266 218 -705 -95 -911
-55 -36 -63 -45 -60 -67 2 -14 7 -47 10 -73 4 -27 9 -48 12 -48 16 0 129 68
179 109 167 134 274 360 274 575 -1 391 -312 715 -702 730 -56 3 -116 2 -133
0z"/>
<path d="M6300 8572 c0 -373 -3 -976 -7 -1338 l-6 -660 157 -77 c87 -42 160
-77 162 -77 2 0 3 636 2 1413 l-3 1412 -152 3 -153 3 0 -679z"/>
<path d="M6670 7664 l0 -1585 34 -14 c19 -8 85 -40 147 -70 61 -30 115 -55
120 -55 5 0 9 715 9 1655 l0 1655 -155 0 -155 0 0 -1586z"/>
<path d="M7047 9113 c-4 -75 -7 -895 -7 -1822 l0 -1686 155 -77 c85 -43 156
-74 158 -70 3 4 2 859 -1 1900 l-5 1892 -147 0 -147 0 -6 -137z"/>
<path d="M7416 7188 c-7 -1980 -6 -2063 11 -2076 10 -8 56 -32 102 -53 46 -22
110 -54 142 -70 l59 -29 0 2145 0 2145 -153 0 -154 0 -7 -2062z"/>
<path d="M7790 6938 l0 -2313 155 -78 155 -77 0 1955 0 1955 -135 0 c-110 0
-137 3 -141 15 -3 8 8 70 26 137 17 68 65 252 106 410 41 159 74 292 74 298 0
6 -46 10 -120 10 l-120 0 0 -2312z"/>
<path d="M9354 9234 c3 -8 42 -156 86 -327 44 -172 91 -354 104 -406 14 -51
22 -99 19 -107 -4 -11 -34 -14 -139 -14 l-134 0 0 -153 c0 -85 -3 -256 -7
-380 l-6 -227 161 0 162 0 0 815 0 815 -126 0 c-111 0 -125 -2 -120 -16z"/>
<path d="M9660 8435 l0 -815 155 0 155 0 0 815 0 815 -155 0 -155 0 0 -815z"/>
<path d="M10040 8788 c0 -255 -3 -622 -7 -815 l-6 -353 161 0 162 0 -2 813 -3
812 -152 3 -153 3 0 -463z"/>
<path d="M10410 8435 l0 -815 155 0 155 0 0 815 0 815 -155 0 -155 0 0 -815z"/>
<path d="M10787 9243 c-4 -3 -7 -370 -7 -815 l0 -809 158 3 157 3 0 53 c-1 28
-2 394 -3 812 l-2 760 -148 0 c-82 0 -152 -3 -155 -7z"/>
<path d="M13863 9119 c-40 -22 -73 -44 -73 -48 0 -4 103 -262 229 -572 125
-310 245 -605 265 -655 50 -126 47 -185 -12 -247 -39 -41 -74 -57 -127 -57
-58 0 -104 19 -136 58 -14 16 -69 137 -121 268 -299 749 -421 1050 -428 1057
-11 12 -152 -34 -147 -48 67 -171 546 -1353 562 -1385 30 -59 92 -115 164
-148 46 -22 71 -26 136 -26 103 0 183 34 250 105 67 72 88 126 89 230 l1 86
-284 711 c-157 392 -287 712 -290 712 -3 0 -39 -19 -78 -41z"/>
<path d="M4720 9047 c-181 -62 -306 -197 -355 -382 -76 -293 135 -602 442
-647 84 -12 183 -4 247 21 27 11 28 14 23 56 -19 132 -28 504 -18 706 6 118
11 219 11 226 0 21 -99 43 -194 43 -67 0 -108 -6 -156 -23z"/>
<path d="M13630 9003 c-52 -23 -99 -44 -104 -46 -6 -2 47 -145 117 -318 382
-951 396 -983 427 -1011 70 -64 190 -9 190 87 0 14 -56 164 -124 333 -68 169
-186 460 -261 647 -75 187 -140 343 -143 346 -4 3 -50 -14 -102 -38z"/>
<path d="M5127 8952 c-15 -144 -18 -415 -7 -622 6 -123 15 -230 19 -237 11
-20 108 54 158 119 81 106 113 199 113 327 0 98 -14 160 -56 246 -31 65 -138
181 -190 208 l-32 16 -5 -57z"/>
<path d="M11680 8305 l0 -685 300 0 300 0 2 428 3 427 25 0 25 0 3 -427 2
-428 115 0 115 0 0 279 c0 238 2 282 15 295 9 8 22 13 30 10 13 -5 15 -50 15
-295 l0 -289 305 0 305 0 0 625 0 625 -22 -9 c-45 -17 -276 -51 -420 -61 -338
-26 -763 43 -1072 174 -21 9 -40 16 -42 16 -2 0 -4 -308 -4 -685z"/>
<path d="M8540 7995 l0 -375 155 0 155 0 0 375 0 375 -155 0 -155 0 0 -375z"/>
<path d="M8910 7995 l0 -375 162 0 161 0 -6 98 c-4 53 -7 222 -7 375 l0 277
-155 0 -155 0 0 -375z"/>
<path d="M2995 7784 c-82 -12 -78 -7 -72 -86 3 -39 8 -72 10 -75 3 -2 42 1 87
7 272 37 572 -95 734 -324 227 -320 194 -743 -81 -1020 -96 -97 -223 -173
-345 -206 -27 -7 -48 -15 -48 -19 0 -3 12 -36 26 -73 l25 -67 52 16 c265 78
503 296 607 557 50 123 64 204 63 356 0 112 -4 151 -25 231 -89 332 -348 590
-683 679 -78 20 -280 34 -350 24z"/>
<path d="M2750 7717 c-114 -50 -197 -104 -284 -187 -129 -123 -210 -254 -263
-427 -24 -80 -27 -103 -27 -253 -1 -143 2 -176 22 -245 115 -399 441 -668 848
-701 94 -8 214 3 214 18 0 6 -9 37 -21 68 l-21 57 -131 6 c-150 5 -225 24
-347 88 -193 101 -345 295 -400 513 -27 107 -27 262 0 376 59 244 236 452 465
544 30 13 58 26 61 29 4 3 3 38 -1 76 -8 84 -9 84 -115 38z"/>
<path d="M3001 7569 c-30 -5 -57 -12 -60 -15 -9 -9 49 -387 89 -585 47 -230
95 -418 160 -632 71 -236 62 -218 107 -205 127 34 260 115 349 211 105 113
163 231 190 388 63 362 -179 731 -540 824 -77 19 -226 27 -295 14z"/>
<path d="M8440 7390 l0 -170 563 0 564 0 -18 83 c-10 45 -21 121 -25 170 l-7
87 -538 0 -539 0 0 -170z"/>
<path d="M9583 7472 c16 -221 115 -472 259 -660 192 -248 497 -427 807 -473
133 -19 385 -7 496 24 253 71 416 165 590 341 198 201 319 454 354 741 6 50
11 96 11 103 0 9 -38 12 -159 12 l-158 0 -7 -31 c-3 -17 -6 -44 -6 -58 0 -50
-42 -196 -80 -278 -132 -284 -371 -471 -685 -534 -97 -19 -276 -15 -379 10
-276 66 -505 247 -628 496 -58 116 -98 262 -98 357 l0 38 -161 0 -162 0 6 -88z"/>
<path d="M9960 7521 c0 -52 25 -171 52 -243 l21 -58 803 0 804 0 16 38 c23 53
50 167 58 240 l7 62 -881 0 -880 0 0 -39z"/>
<path d="M12155 7503 c-6 -60 -32 -221 -42 -260 l-5 -23 661 0 661 0 0 170 0
170 -634 0 -635 0 -6 -57z"/>
<path d="M2824 7517 c-28 -12 -79 -39 -112 -60 l-62 -38 6 -42 c52 -363 124
-708 208 -1002 66 -231 70 -240 93 -249 34 -14 233 -20 233 -8 0 7 -25 94 -55
194 -103 337 -181 689 -231 1038 -14 102 -27 186 -27 187 -1 1 -25 -8 -53 -20z"/>
<path d="M2546 7308 c-60 -68 -120 -190 -147 -298 -18 -71 -21 -103 -16 -200
6 -129 25 -200 81 -306 49 -94 122 -182 198 -239 67 -51 184 -113 193 -103 3
3 -12 68 -34 144 -83 287 -155 612 -201 914 -12 74 -22 136 -24 138 -2 1 -25
-21 -50 -50z"/>
<path d="M8444 7038 c30 -492 220 -978 531 -1363 217 -267 524 -510 830 -656
336 -159 662 -233 1035 -233 192 0 312 12 495 50 1059 220 1853 1158 1898
2242 l3 72 -297 0 -297 0 -7 -67 c-27 -302 -80 -490 -201 -723 -84 -161 -174
-280 -324 -431 -98 -98 -165 -155 -244 -208 -292 -194 -584 -292 -921 -307
-297 -14 -582 45 -850 176 -416 203 -726 546 -889 982 -40 109 -44 133 -19
142 24 10 36 -9 67 -99 198 -575 698 -1002 1316 -1121 146 -28 457 -26 608 4
464 93 850 349 1112 737 145 215 253 514 275 760 3 39 8 89 11 113 l5 42 -119
0 -119 0 -7 -72 c-27 -288 -119 -544 -273 -762 -77 -107 -237 -266 -348 -345
-171 -121 -382 -208 -600 -249 -123 -23 -377 -22 -505 1 -467 86 -856 381
-1066 808 -38 78 -40 109 -7 109 13 0 31 -26 62 -87 153 -309 416 -557 726
-684 415 -169 870 -138 1251 86 397 234 659 650 693 1103 l6 92 -96 0 c-96 0
-97 0 -103 -26 -4 -14 -21 -56 -38 -92 -157 -333 -435 -581 -781 -697 -162
-54 -264 -68 -462 -62 -149 4 -185 8 -286 35 -325 86 -593 278 -775 555 -45
68 -112 198 -132 257 l-11 30 -577 0 -577 0 7 -112z"/>
<path d="M10111 7088 c161 -238 428 -379 719 -381 238 -2 439 77 607 237 66
62 163 181 163 200 0 3 -344 6 -765 6 l-766 0 42 -62z"/>
<path d="M10373 4754 c3 -10 19 -73 36 -139 64 -247 189 -732 201 -782 8 -29
17 -53 21 -53 4 0 46 118 94 263 48 144 91 266 95 270 5 5 16 6 26 3 14 -4 33
-46 67 -144 98 -279 130 -367 137 -375 3 -4 23 57 43 135 20 79 73 283 117
453 110 426 103 388 77 381 -77 -21 -282 -39 -447 -39 -166 0 -370 18 -449 39
-19 6 -22 4 -18 -12z"/>
<path d="M10831 4160 c-36 -84 -172 -508 -168 -525 11 -54 169 -661 173 -664
7 -7 11 2 32 89 12 47 51 200 87 340 36 140 65 262 65 272 0 9 -20 73 -44 140
-144 402 -133 375 -145 348z"/>
<path d="M8071 3944 c-83 -22 -147 -62 -212 -131 -32 -35 -59 -68 -59 -73 0
-6 21 -23 48 -40 l47 -29 20 27 c34 46 78 83 130 110 43 23 62 27 140 27 78 0
97 -4 147 -28 67 -33 121 -90 155 -163 33 -73 39 -136 19 -213 -9 -35 -15 -65
-13 -67 12 -12 93 -42 99 -36 3 4 13 31 22 61 32 110 13 251 -47 353 -32 54
-121 139 -175 167 -97 49 -218 63 -321 35z"/>
<path d="M8094 3764 c-44 -16 -118 -73 -134 -105 -9 -16 -4 -23 32 -45 46 -29
421 -224 431 -224 12 0 30 77 29 131 -1 94 -60 187 -147 231 -52 27 -155 33
-211 12z"/>
<path d="M7749 3613 c-6 -33 -9 -93 -6 -139 12 -201 168 -369 375 -404 132
-22 275 24 376 122 31 30 56 58 56 64 0 5 -23 19 -50 31 l-49 21 -38 -36 c-64
-60 -135 -87 -228 -86 -98 0 -172 31 -233 98 -73 79 -87 117 -87 233 l0 101
-41 26 c-23 14 -46 26 -52 26 -6 0 -16 -26 -23 -57z"/>
<path d="M7924 3565 c-4 -9 -4 -46 -1 -82 14 -184 223 -298 384 -209 29 16 60
37 69 47 16 17 12 20 -72 60 -88 42 -278 143 -342 181 -29 18 -33 18 -38 3z"/>
<path d="M11056 3549 c-3 -8 -28 -104 -56 -214 -142 -556 -138 -543 -171 -530
-10 4 -41 105 -93 308 -104 405 -113 435 -120 417 -3 -8 -57 -167 -121 -353
-63 -186 -118 -343 -121 -350 -7 -11 -140 -170 -187 -224 l-20 -23 252 3 253
2 32 -85 c18 -47 57 -148 86 -224 42 -108 56 -135 62 -120 4 10 44 111 87 224
l79 205 252 -2 c199 -2 250 0 243 10 -6 6 -51 64 -100 128 -80 102 -95 128
-128 220 -20 57 -77 219 -126 359 -50 140 -92 256 -94 259 -3 2 -7 -2 -9 -10z"/>
<path d="M4620 15054 c-234 -63 -348 -321 -242 -548 60 -129 182 -222 324
-247 219 -40 438 148 438 375 0 193 -138 372 -325 421 -72 18 -123 18 -195 -1z"/>
<path d="M3325 13796 c-190 -60 -310 -248 -276 -432 41 -223 259 -382 484
-352 123 16 239 105 295 225 23 50 27 71 27 153 0 87 -3 101 -33 163 -91 187
-321 299 -497 243z"/>
<path d="M16973 12125 c-95 -46 -173 -89 -173 -95 0 -22 161 -330 190 -363 38
-43 107 -77 159 -77 23 0 60 11 92 28 90 47 122 144 84 255 -26 78 -156 337
-168 336 -7 0 -90 -38 -184 -84z"/>
</g>
</svg>
