<?xml version="1.0" encoding="utf-8"?>
<!-- Generator: Adobe Illustrator 27.0.0, SVG Export Plug-In . SVG Version: 6.00 Build 0)  -->
<svg version="1.1" xmlns="http://www.w3.org/2000/svg" xmlns:xlink="http://www.w3.org/1999/xlink" x="0px" y="0px"
	 viewBox="0 0 1020 1020" style="enable-background:new 0 0 1020 1020;" xml:space="preserve">
<style type="text/css">
	.st0{fill:none;}
	.st1{fill:url(#SVGID_1_);}
	.st2{fill:url(#SVGID_00000088111839549673603090000002583962329073364666_);}
	.st3{fill:url(#SVGID_00000140699622843553620890000017445003328995656093_);}
	.st4{fill:url(#SVGID_00000016046081893199213830000000374886437027859341_);}
	.st5{fill:url(#SVGID_00000153678199647368897680000005355848919631372948_);}
	.st6{fill:url(#SVGID_00000093173228566153304360000010807800869813187974_);}
	.st7{fill:url(#SVGID_00000146481531859016928070000012550666527168009095_);}
	.st8{fill:url(#SVGID_00000167393651325678532580000011338856758409707400_);}
	.st9{fill:url(#SVGID_00000011729681733361940060000012746087901315503748_);}
	.st10{fill:url(#SVGID_00000070806326081420347720000012865739621985295778_);}
	.st11{fill:url(#SVGID_00000008861578867262593800000006909635294211671956_);}
	.st12{fill:url(#SVGID_00000094575956980616874040000006781738716197143221_);}
	.st13{fill:url(#SVGID_00000071523680168228501780000012873610829370195859_);}
	.st14{fill:url(#SVGID_00000025420719493729478140000002615602524144760733_);}
	.st15{fill:url(#SVGID_00000080916362754195372610000010884701262395978650_);}
	.st16{fill:url(#SVGID_00000104704139621654670710000003989610793397355659_);}
	.st17{fill:url(#SVGID_00000147215123307278429950000002174742797880185271_);}
	.st18{fill:url(#SVGID_00000177448392362083829650000011791976449419006648_);}
	.st19{fill:url(#SVGID_00000177442477936936824470000003587917735968407197_);}
	.st20{fill:url(#SVGID_00000014599197090786444460000005192817896238888372_);}
	.st21{fill:url(#SVGID_00000066475537312516165780000014612911765312068749_);}
	.st22{fill:url(#SVGID_00000168811011811121290590000006994890860057118622_);}
	.st23{fill:url(#SVGID_00000183222204410616251470000000777443135903885230_);}
	.st24{fill:url(#SVGID_00000134246225298556807150000001083858997222665661_);}
	.st25{fill:url(#SVGID_00000157293676117052423800000010787174878391780225_);}
	.st26{fill:url(#SVGID_00000010291280795028291030000013163165039065916604_);}
	.st27{fill:url(#SVGID_00000074415394199423925590000001680510109419772847_);}
	.st28{fill:url(#SVGID_00000137120272239104309390000002887191195180481457_);}
	.st29{fill:url(#SVGID_00000125571919191922850360000016334643236268856978_);}
	.st30{fill:url(#SVGID_00000065033052842998709320000014678666831505280662_);}
	.st31{fill:url(#SVGID_00000173129781091377486920000016795446180098107548_);}
	.st32{fill:url(#SVGID_00000065041115693008627920000001978360321178941830_);}
	.st33{fill:url(#SVGID_00000091000214619640562750000004263177748145148297_);}
	.st34{fill:url(#SVGID_00000108282616988456275310000002406409487414858674_);}
	.st35{fill:url(#SVGID_00000065074463551577633190000004100932547758485638_);}
	.st36{fill:url(#SVGID_00000049913935517603981200000004761101989944142497_);}
	.st37{fill:url(#SVGID_00000001652378723992644010000015695012515603295388_);}
	.st38{fill:url(#SVGID_00000016068484576044323320000002724309921644962480_);}
	.st39{fill:url(#SVGID_00000151508425556125934640000009356882494304374163_);}
	.st40{fill:url(#SVGID_00000123443286417395045400000013170831553978096040_);}
	.st41{fill:url(#SVGID_00000009583588566142457110000012779913866953964697_);}
	.st42{fill:url(#SVGID_00000106825712998805286230000009287443339216015001_);}
	.st43{fill:url(#SVGID_00000178189074462118125880000006764155179051407536_);}
	.st44{fill:url(#SVGID_00000088114785791530118430000008749628918919745414_);}
	.st45{fill:url(#SVGID_00000137820434475510260200000000934442412754937791_);}
	.st46{fill:url(#SVGID_00000049936795713834741840000016171269336322324108_);}
	.st47{fill:url(#SVGID_00000175306850119478190350000002414508400524622491_);}
	.st48{fill:url(#SVGID_00000078762164566968364360000009667042924205411509_);}
	.st49{fill:url(#SVGID_00000116218170958160936660000004895370333537731503_);}
	.st50{fill:url(#SVGID_00000139263151215611347700000004241571402187163063_);}
	.st51{fill:url(#SVGID_00000054966578106999572060000004321490217826470803_);}
	.st52{fill:url(#SVGID_00000153666622185642552990000011954949516885324218_);}
	.st53{fill:url(#SVGID_00000088833829915481709180000008112513084726696373_);}
	.st54{fill:url(#SVGID_00000100383115289754725170000011624557420996029367_);}
	.st55{fill:url(#SVGID_00000096044090979573546510000003214023241572785082_);}
	.st56{fill:url(#SVGID_00000065060856753390892090000007148362812003357596_);}
	.st57{fill:url(#SVGID_00000072971703467544514980000005711635366770699692_);}
	.st58{fill:url(#SVGID_00000077316725828911666180000006639383051916651961_);}
	.st59{fill:url(#SVGID_00000164510496020840551900000005584222031676709560_);}
	.st60{fill:url(#SVGID_00000125570044015088731350000005475180706300413115_);}
	.st61{fill:url(#SVGID_00000011720197898070119690000016535654334752501149_);}
	.st62{fill:url(#SVGID_00000016051186789068345410000008022210830466444726_);}
	.st63{fill:url(#SVGID_00000113341737911330161110000015794418565157339834_);}
	.st64{fill:url(#SVGID_00000109030544010027847810000004725855017119090342_);}
	.st65{fill:url(#SVGID_00000166636532525828437470000009928450012149276334_);}
	.st66{fill:url(#SVGID_00000179628119225422751040000014302595925586377892_);}
	.st67{fill:#1C75BC;}
	.st68{fill:#1F1F1F;}
	.st69{fill:#F8F8F8;}
</style>
<g id="Layer_12">
</g>
<g id="GRADIENT">
	<path class="st0" d="M639.97,629.56c-0.04,0.09-0.07,0.16-0.11,0.24h-104.1c-0.04-0.07-0.07-0.15-0.12-0.24H639.97z"/>
	<path class="st0" d="M665.91,629.56c-0.02,0.09-0.06,0.16-0.09,0.24"/>
	<path class="st0" d="M639.97,629.56c-0.04,0.09-0.07,0.16-0.11,0.24"/>
	<path class="st0" d="M535.76,629.8c-0.04-0.07-0.07-0.15-0.12-0.24"/>
	<path class="st0" d="M509.78,629.8c-0.02-0.07-0.05-0.15-0.07-0.24"/>
	<path class="st0" d="M639.86,629.8c-9.45,19.19-29.2,32.41-52.05,32.41c-22.85,0-42.6-13.22-52.05-32.41H639.86z"/>
	<path class="st0" d="M639.86,629.8c-9.45,19.19-29.2,32.41-52.05,32.41s-42.6-13.22-52.05-32.41"/>
	<path class="st0" d="M509.78,629.8c10.75,32.82,41.62,56.53,78.03,56.53s67.26-23.71,78.02-56.53"/>
	<linearGradient id="SVGID_1_" gradientUnits="userSpaceOnUse" x1="583.3925" y1="354.0164" x2="557.3436" y2="308.8983">
		<stop  offset="0" style="stop-color:#27AAE1;stop-opacity:0"/>
		<stop  offset="0.3299" style="stop-color:#26A7DF;stop-opacity:0.3299"/>
		<stop  offset="0.5719" style="stop-color:#249ED8;stop-opacity:0.5719"/>
		<stop  offset="0.7859" style="stop-color:#218ECD;stop-opacity:0.7859"/>
		<stop  offset="0.9826" style="stop-color:#1C77BE;stop-opacity:0.9826"/>
		<stop  offset="1" style="stop-color:#1C75BC"/>
	</linearGradient>
	<path class="st1" d="M564.38,364.99c-3.61-3.85-7.4-7.53-11.39-11c0.02-0.01,0.04-0.02,0.06-0.04
		c17.74-10.16,23.9-32.77,13.74-50.51l13.37-7.64C593.81,319.65,586.64,349.72,564.38,364.99z"/>
	<polygon class="st0" points="618.04,470.73 618.04,496.31 490.52,496.31 483.88,470.73 	"/>
	<g>
		
			<linearGradient id="SVGID_00000102508554626884538560000013866647864136144008_" gradientUnits="userSpaceOnUse" x1="517.5303" y1="372.4519" x2="534.3896" y2="343.2506">
			<stop  offset="0" style="stop-color:#27AAE1;stop-opacity:0"/>
			<stop  offset="0.5436" style="stop-color:#218FCE;stop-opacity:0.5436"/>
			<stop  offset="1" style="stop-color:#1C75BC"/>
		</linearGradient>
		<path style="fill:url(#SVGID_00000102508554626884538560000013866647864136144008_);" d="M564.38,364.99
			c-1.18,0.82-2.4,1.59-3.68,2.32c-25.11,14.37-57.14,5.66-71.51-19.45l13.37-7.64c10.13,17.72,32.71,23.87,50.44,13.78
			C556.98,357.46,560.77,361.14,564.38,364.99z"/>
	</g>
	<line class="st0" x1="620.28" y1="781.55" x2="601.81" y2="853.13"/>
	<line class="st0" x1="574.35" y1="854.34" x2="555.57" y2="781.72"/>
	
		<linearGradient id="SVGID_00000121976296893980533840000007005549844882373269_" gradientUnits="userSpaceOnUse" x1="588.0812" y1="906.8723" x2="588.0812" y2="813.9862">
		<stop  offset="0.3284" style="stop-color:#27AAE1;stop-opacity:0"/>
		<stop  offset="1" style="stop-color:#1C75BC"/>
	</linearGradient>
	<polygon style="fill:url(#SVGID_00000121976296893980533840000007005549844882373269_);" points="601.81,853.13 587.93,906.87 
		574.35,854.34 587.97,813.99 	"/>
	<line class="st0" x1="574.35" y1="854.34" x2="557.04" y2="905.62"/>
	<line class="st0" x1="620.28" y1="905.39" x2="601.81" y2="853.13"/>
	<polyline class="st0" points="827.57,462.66 874.75,465.72 844.35,433.38 	"/>
	<line class="st0" x1="646.73" y1="321.42" x2="679.76" y2="369.91"/>
	<line class="st0" x1="737.43" y1="281.89" x2="749.18" y2="344.1"/>
	
		<linearGradient id="SVGID_00000121239659231085785940000016968489173792642970_" gradientUnits="userSpaceOnUse" x1="803.4474" y1="507.1688" x2="765.1238" y2="612.4622">
		<stop  offset="0" style="stop-color:#27AAE1;stop-opacity:0"/>
		<stop  offset="0.2578" style="stop-color:#25A2DC;stop-opacity:0.2578"/>
		<stop  offset="0.6474" style="stop-color:#218ECD;stop-opacity:0.6474"/>
		<stop  offset="1" style="stop-color:#1C75BC"/>
	</linearGradient>
	<path style="fill:url(#SVGID_00000121239659231085785940000016968489173792642970_);" d="M822.58,590.83l-35.99-89.8l-43.95,19.19
		l35.38,88.45c4.91,12.26,18.95,18.27,31.2,13.36C821.47,617.13,827.49,603.09,822.58,590.83z M801.71,604.55
		c-4.8,1.94-10.32-0.4-12.26-5.21l-33.3-82.57l16.93-8.26l33.83,83.78C808.86,597.09,806.52,602.61,801.71,604.55z"/>
	<path class="st0" d="M754.14,430.1c2.5,2.19,4.09,5.4,4.09,8.99c0,6.62-5.35,11.98-11.97,11.98c-6.57,0-11.89-5.28-11.98-11.82"/>
	<path class="st0" d="M746.26,463.47c13.44,0,24.36-10.92,24.36-24.37c0-3.44-0.73-6.72-2.02-9.69"/>
	
		<linearGradient id="SVGID_00000008129937860732412020000014738960018240650908_" gradientUnits="userSpaceOnUse" x1="716.1191" y1="443.2748" x2="783.6907" y2="443.2748">
		<stop  offset="0" style="stop-color:#27AAE1;stop-opacity:0"/>
		<stop  offset="1" style="stop-color:#1C75BC"/>
	</linearGradient>
	<path style="fill:url(#SVGID_00000008129937860732412020000014738960018240650908_);" d="M783.69,433.52
		c-4.1-1.88-8.54-3.22-13.23-3.89c-0.62-0.09-1.24-0.16-1.86-0.22c-4.94-0.51-9.8-0.25-14.46,0.69c-7.31,1.49-14.09,4.66-19.86,9.16
		c-3.79,2.95-7.14,6.49-9.91,10.48c-3.59,5.18-6.22,11.13-7.55,17.63c-5.14-32.23,18.77-49.63,42.65-48.1
		C770.29,419.97,776.74,424.85,783.69,433.52z"/>
	<path class="st0" d="M82.79,604.61c1.8,16.54,4.58,33.15,8.38,49.78c3.52,15.4,7.82,30.42,12.85,45.01"/>
	<path class="st0" d="M460.19,197.58c-11.99,4.44-23.64,9.47-34.91,15.04"/>
	<path class="st0" d="M435.1,873.72c-11.49-5.29-22.69-11.19-33.56-17.64"/>
	<polyline class="st0" points="620.47,905.75 635.57,924.94 600.86,923.77 588.28,956.32 575.69,923.77 540.98,924.94 
		556.77,906.09 	"/>
	<path class="st0" d="M751.97,517.29c-0.48,0.16-0.98,0.33-1.46,0.47"/>
	<path class="st0" d="M782.17,503.41c-0.62,0.38-1.26,0.76-1.9,1.1"/>
	<path class="st0" d="M825.1,465.52c-1.47,1.91-3.01,3.79-4.6,5.62"/>
	<path class="st0" d="M829.05,460.23c0.88-1.21,1.73-2.45,2.56-3.72c0.37-0.53,0.73-1.08,1.08-1.64"/>
	<path class="st0" d="M834.27,452.42c-0.3,0.51-0.62,1-0.94,1.5"/>
	<path class="st0" d="M837.36,447.25c-0.37,0.67-0.76,1.33-1.15,1.98"/>
	<path class="st0" d="M840.84,440.79c-0.27,0.55-0.55,1.09-0.83,1.62"/>
	<path class="st0" d="M843.52,435.28c-0.24,0.53-0.48,1.07-0.74,1.59"/>
	<path class="st0" d="M847.57,425.64c-0.2,0.53-0.41,1.07-0.62,1.6"/>
	<circle class="st0" cx="642.3" cy="313.4" r="8.05"/>
	<circle class="st0" cx="689.05" cy="292.46" r="8.05"/>
	<circle class="st0" cx="735.45" cy="273.63" r="8.05"/>
	
		<linearGradient id="SVGID_00000006704392731718426970000008440524204404626598_" gradientUnits="userSpaceOnUse" x1="109.5691" y1="607.1985" x2="55.96" y2="700.0523">
		<stop  offset="0" style="stop-color:#27AAE1;stop-opacity:0"/>
		<stop  offset="1" style="stop-color:#1C75BC"/>
	</linearGradient>
	<path style="fill:url(#SVGID_00000006704392731718426970000008440524204404626598_);" d="M108.68,712.27
		c-4.09,0.85-8.33,1.3-12.67,1.3c-2.58,0-5.1-0.17-7.59-0.48c-30.74-3.74-54.54-29.91-54.54-61.65c0-22.21,11.66-41.69,29.19-52.68
		c5.61-3.52,11.83-6.17,18.46-7.74c0.33,4.52,0.76,9.06,1.26,13.6c-6.73,1.9-12.87,5.22-18.09,9.6
		c-10.59,8.92-17.32,22.28-17.32,37.22c0,22.47,15.25,41.38,35.97,46.96c4.04,1.09,8.28,1.67,12.66,1.67c2.73,0,5.4-0.22,8-0.66
		C105.5,703.73,107.06,708.02,108.68,712.27z"/>
	<path class="st0" d="M81.53,591.01c4.65-1.12,9.49-1.71,14.48-1.71c34.32,0,62.13,27.82,62.13,62.13
		c0,29.97-21.22,54.99-49.46,60.83"/>
	<path class="st0" d="M82.79,604.61c4.2-1.19,8.65-1.82,13.22-1.82c26.86,0,48.63,21.78,48.63,48.64
		c0,24.14-17.57,44.16-40.63,47.97"/>
	<path class="st0" d="M83.35,698.39c-20.72-5.58-35.97-24.48-35.97-46.96c0-14.94,6.73-28.3,17.32-37.22
		C68.27,643.22,74.58,671.36,83.35,698.39z"/>
	<path class="st0" d="M144.64,651.43c0,24.14-17.57,44.16-40.63,47.97c-2.6,0.43-5.28,0.66-8,0.66c-4.39,0-8.62-0.58-12.66-1.67
		c-8.77-27.03-15.08-55.17-18.65-84.18c5.22-4.39,11.36-7.71,18.09-9.6c4.2-1.19,8.65-1.82,13.22-1.82
		C122.87,602.79,144.64,624.57,144.64,651.43z"/>
	
		<linearGradient id="SVGID_00000052791621714178721500000003385556197919633809_" gradientUnits="userSpaceOnUse" x1="208.688" y1="592.2591" x2="208.688" y2="494.318">
		<stop  offset="0" style="stop-color:#27AAE1;stop-opacity:0"/>
		<stop  offset="1" style="stop-color:#1C75BC"/>
	</linearGradient>
	<path style="fill:url(#SVGID_00000052791621714178721500000003385556197919633809_);" d="M223.87,496.72
		c-4.78-1.56-9.89-2.4-15.19-2.4c-27.05,0-48.96,21.93-48.96,48.96c0,27.05,21.92,48.98,48.96,48.98c5.71,0,11.2-0.98,16.3-2.79
		c19.03-6.72,32.67-24.85,32.67-46.19C257.66,521.54,243.48,503.11,223.87,496.72z M223.38,575.88c-4.47,2.03-9.45,3.16-14.69,3.16
		c-19.74,0-35.74-16.01-35.74-35.76c0-19.74,16.01-35.74,35.74-35.74c4.97,0,9.7,1.02,14,2.85c12.79,5.44,21.76,18.13,21.76,32.89
		C244.44,557.79,235.8,570.28,223.38,575.88z"/>
	<path class="st0" d="M244.44,543.28c0,14.51-8.64,27-21.06,32.6c-4.47,2.03-9.45,3.16-14.69,3.16c-19.74,0-35.74-16.01-35.74-35.76
		c0-19.74,16.01-35.74,35.74-35.74c4.97,0,9.7,1.02,14,2.85C235.47,515.83,244.44,528.51,244.44,543.28z"/>
	<path class="st0" d="M244.44,543.28c0,14.51-8.64,27-21.06,32.6c-4.47,2.03-9.45,3.16-14.69,3.16c-19.74,0-35.74-16.01-35.74-35.76
		c0-19.74,16.01-35.74,35.74-35.74c4.97,0,9.7,1.02,14,2.85C235.47,515.83,244.44,528.51,244.44,543.28z"/>
	<path class="st0" d="M471.05,193.75c-3.64,1.23-7.26,2.5-10.85,3.83c-3.1-6.31-9.59-10.66-17.09-10.66
		c-10.51,0-19.03,8.52-19.03,19.03c0,2.34,0.42,4.6,1.2,6.67c-3.44,1.7-6.86,3.44-10.23,5.25c-1.55-3.66-2.42-7.69-2.42-11.92
		c0-16.84,13.64-30.49,30.48-30.49C455.61,175.47,466.34,182.99,471.05,193.75z"/>
	
		<linearGradient id="SVGID_00000037691910662662747940000009884103001312281985_" gradientUnits="userSpaceOnUse" x1="415.0457" y1="215.096" x2="473.5874" y2="215.096">
		<stop  offset="0" style="stop-color:#27AAE1;stop-opacity:0"/>
		<stop  offset="1" style="stop-color:#1C75BC"/>
	</linearGradient>
	<path style="fill:url(#SVGID_00000037691910662662747940000009884103001312281985_);" d="M473.59,205.96
		c0,16.83-13.64,30.48-30.48,30.48c-12.6,0-23.42-7.66-28.06-18.56c3.37-1.81,6.79-3.56,10.23-5.25c2.7,7.21,9.66,12.35,17.83,12.35
		c10.51,0,19.02-8.51,19.02-19.02c0-3.01-0.69-5.85-1.93-8.38c3.59-1.33,7.21-2.6,10.85-3.83
		C472.68,197.48,473.59,201.61,473.59,205.96z"/>
	<path class="st0" d="M462.13,205.96c0,10.51-8.51,19.02-19.02,19.02c-8.16,0-15.13-5.14-17.83-12.35c-0.78-2.07-1.2-4.32-1.2-6.67
		c0-10.51,8.52-19.03,19.03-19.03c7.5,0,13.99,4.35,17.09,10.66C461.43,200.11,462.13,202.95,462.13,205.96z"/>
	<path class="st0" d="M462.13,205.96c0,10.51-8.51,19.02-19.02,19.02c-8.16,0-15.13-5.14-17.83-12.35c-0.78-2.07-1.2-4.32-1.2-6.67
		c0-10.51,8.52-19.03,19.03-19.03c7.5,0,13.99,4.35,17.09,10.66C461.43,200.11,462.13,202.95,462.13,205.96z"/>
	
		<linearGradient id="SVGID_00000165230772001188969670000016162896159234788536_" gradientUnits="userSpaceOnUse" x1="391.7034" y1="855.7148" x2="449.5141" y2="855.7148">
		<stop  offset="0" style="stop-color:#27AAE1;stop-opacity:0"/>
		<stop  offset="1" style="stop-color:#1C75BC"/>
	</linearGradient>
	<path style="fill:url(#SVGID_00000165230772001188969670000016162896159234788536_);" d="M449.51,863.53
		c0,5.39-1.4,10.46-3.87,14.86c-3.54-1.5-7.05-3.05-10.54-4.67c1.87-2.94,2.96-6.44,2.96-10.18c0-10.51-8.52-19.03-19.03-19.03
		c-7.86,0-14.61,4.77-17.49,11.57c-3.31-1.96-6.59-3.96-9.84-6.03c4.97-10.07,15.34-17,27.33-17
		C435.87,833.04,449.51,846.7,449.51,863.53z"/>
	
		<linearGradient id="SVGID_00000011735813237671097570000008372532154241220249_" gradientUnits="userSpaceOnUse" x1="388.5564" y1="872.0261" x2="445.6485" y2="872.0261">
		<stop  offset="0" style="stop-color:#27AAE1;stop-opacity:0"/>
		<stop  offset="1" style="stop-color:#1C75BC"/>
	</linearGradient>
	<path style="fill:url(#SVGID_00000011735813237671097570000008372532154241220249_);" d="M445.65,878.39
		c-5.2,9.32-15.18,15.62-26.61,15.62c-16.84,0-30.48-13.65-30.48-30.48c0-4.84,1.13-9.43,3.15-13.49c3.25,2.07,6.53,4.08,9.84,6.03
		c-0.98,2.29-1.52,4.81-1.52,7.46c0,10.51,8.51,19.02,19.02,19.02c6.76,0,12.7-3.52,16.07-8.83
		C438.6,875.34,442.1,876.89,445.65,878.39z"/>
	<path class="st0" d="M438.07,863.53c0,3.74-1.09,7.25-2.96,10.18c-3.37,5.32-9.3,8.83-16.07,8.83c-10.51,0-19.02-8.51-19.02-19.02
		c0-2.65,0.55-5.17,1.52-7.46c2.89-6.8,9.64-11.57,17.49-11.57C429.54,844.5,438.07,853.03,438.07,863.53z"/>
	<path class="st0" d="M438.07,863.53c0,3.74-1.09,7.25-2.96,10.18c-3.37,5.32-9.3,8.83-16.07,8.83c-10.51,0-19.02-8.51-19.02-19.02
		c0-2.65,0.55-5.17,1.52-7.46c2.89-6.8,9.64-11.57,17.49-11.57C429.54,844.5,438.07,853.03,438.07,863.53z"/>
	
		<linearGradient id="SVGID_00000096751202954111644910000014042463124397974183_" gradientUnits="userSpaceOnUse" x1="370.3931" y1="337.2405" x2="408.7517" y2="337.2405">
		<stop  offset="0" style="stop-color:#27AAE1;stop-opacity:0"/>
		<stop  offset="1" style="stop-color:#1C75BC"/>
	</linearGradient>
	<path style="fill:url(#SVGID_00000096751202954111644910000014042463124397974183_);" d="M408.75,332.23
		c0,10.89-8.82,19.72-19.71,19.72c-8.64,0-15.98-5.56-18.65-13.29c11.08-6.81,23.09-12.28,35.79-16.14
		C407.82,325.38,408.75,328.7,408.75,332.23z"/>
	<path class="st0" d="M406.19,322.52c-12.7,3.87-24.72,9.33-35.79,16.14c-0.71-2.02-1.08-4.18-1.08-6.43
		c0-10.89,8.83-19.71,19.72-19.71C396.4,312.52,402.82,316.55,406.19,322.52z"/>
	
		<linearGradient id="SVGID_00000182514760191643619960000006359261463309931658_" gradientUnits="userSpaceOnUse" x1="752.1643" y1="401.4073" x2="673.6257" y2="265.3743">
		<stop  offset="0.0775" style="stop-color:#27AAE1;stop-opacity:0"/>
		<stop  offset="0.3126" style="stop-color:#26A3DC;stop-opacity:0.2548"/>
		<stop  offset="0.6564" style="stop-color:#218FCE;stop-opacity:0.6275"/>
		<stop  offset="1" style="stop-color:#1C75BC"/>
	</linearGradient>
	<path style="fill:url(#SVGID_00000182514760191643619960000006359261463309931658_);" d="M759.77,271.2
		c-1.59-9.23-8.08-17.08-17.07-19.72c-2.48-0.73-5.12-1.08-7.87-1c-12.34,0.37-22.77,9.97-24.11,22.24
		c-0.47,4.27,0.15,8.36,1.6,12.03l0,0c-3.76-9.46-13.12-16.13-24.08-15.8c-12.34,0.37-22.77,9.97-24.12,22.24
		c-0.47,4.27,0.15,8.36,1.6,12.04c-3.6-9.07-12.39-14.88-22.71-15.81c-14.73-1.32-33.65,16.12-21.71,33.83
		c18.58,27.52,70.29,98.78,70.29,98.78l87.91-34.42L759.77,271.2z M642.3,321.46c-4.45,0-8.05-3.61-8.05-8.05
		c0-4.45,3.61-8.05,8.05-8.05c4.45,0,8.05,3.61,8.05,8.05C650.35,317.85,646.75,321.46,642.3,321.46z M689.05,300.52
		c-4.45,0-8.05-3.61-8.05-8.05s3.61-8.05,8.05-8.05s8.05,3.61,8.05,8.05S693.49,300.52,689.05,300.52z M735.45,281.68
		c-4.45,0-8.05-3.61-8.05-8.05s3.61-8.05,8.05-8.05c4.45,0,8.05,3.61,8.05,8.05S739.89,281.68,735.45,281.68z"/>
	<path class="st0" d="M483.44,661.3c13.5,45.91,55.96,79.43,106.24,79.43c61.15,0,110.73-49.57,110.73-110.73"/>
	<path class="st0" d="M505.04,666.01c13.88,33.04,46.55,56.24,84.64,56.24c50.68,0,91.77-41.09,91.77-91.77"/>
	<line class="st0" x1="833.95" y1="451.19" x2="874.75" y2="465.72"/>
	<line class="st0" x1="839.53" y1="441.77" x2="874.75" y2="465.72"/>
	
		<linearGradient id="SVGID_00000170995809399477427420000008837451405069730740_" gradientUnits="userSpaceOnUse" x1="391.5795" y1="771.8766" x2="391.5795" y2="772.9709">
		<stop  offset="0" style="stop-color:#27AAE1;stop-opacity:0"/>
		<stop  offset="0.4267" style="stop-color:#27A8DF;stop-opacity:0.4267"/>
		<stop  offset="0.6364" style="stop-color:#25A0DA;stop-opacity:0.6364"/>
		<stop  offset="0.7988" style="stop-color:#2293D1;stop-opacity:0.7988"/>
		<stop  offset="0.9361" style="stop-color:#1E81C4;stop-opacity:0.9361"/>
		<stop  offset="1" style="stop-color:#1C75BC"/>
	</linearGradient>
	<path style="fill:url(#SVGID_00000170995809399477427420000008837451405069730740_);" d="M391.53,771.88l0.09,0.14l0.01,0.96
		L391.53,771.88z"/>
	
		<linearGradient id="SVGID_00000065783685477326397760000001491770559210541738_" gradientUnits="userSpaceOnUse" x1="451.3155" y1="551.8979" x2="451.3155" y2="346.1898">
		<stop  offset="0" style="stop-color:#27AAE1;stop-opacity:0"/>
		<stop  offset="0.2524" style="stop-color:#26A4DD;stop-opacity:0.2524"/>
		<stop  offset="0.5792" style="stop-color:#2294D2;stop-opacity:0.5792"/>
		<stop  offset="0.9457" style="stop-color:#1D7ABF;stop-opacity:0.9457"/>
		<stop  offset="1" style="stop-color:#1C75BC"/>
	</linearGradient>
	<polygon style="fill:url(#SVGID_00000065783685477326397760000001491770559210541738_);" points="397.65,551.9 450.91,346.19 
		504.99,551.31 477.08,551.66 451.61,453.98 425.45,550.96 	"/>
	
		<linearGradient id="SVGID_00000146472536866163222040000008458275341484132754_" gradientUnits="userSpaceOnUse" x1="427.3093" y1="604.8008" x2="427.3093" y2="552.3576">
		<stop  offset="0" style="stop-color:#27AAE1;stop-opacity:0"/>
		<stop  offset="0.2555" style="stop-color:#25A3DC;stop-opacity:0.2555"/>
		<stop  offset="0.6329" style="stop-color:#218FCE;stop-opacity:0.6329"/>
		<stop  offset="1" style="stop-color:#1C75BC"/>
	</linearGradient>
	
		<rect x="414.98" y="552.36" style="fill:url(#SVGID_00000146472536866163222040000008458275341484132754_);" width="24.65" height="52.44"/>
	
		<linearGradient id="SVGID_00000166666694206465000110000001485694008317149109_" gradientUnits="userSpaceOnUse" x1="451.4378" y1="604.8008" x2="451.4378" y2="552.3576">
		<stop  offset="0" style="stop-color:#27AAE1;stop-opacity:0"/>
		<stop  offset="0.2555" style="stop-color:#25A3DC;stop-opacity:0.2555"/>
		<stop  offset="0.6329" style="stop-color:#218FCE;stop-opacity:0.6329"/>
		<stop  offset="1" style="stop-color:#1C75BC"/>
	</linearGradient>
	
		<rect x="439.82" y="552.36" style="fill:url(#SVGID_00000166666694206465000110000001485694008317149109_);" width="23.23" height="52.44"/>
	
		<linearGradient id="SVGID_00000025421245233930267930000002387211274079247777_" gradientUnits="userSpaceOnUse" x1="474.8105" y1="604.8008" x2="474.8105" y2="552.3576">
		<stop  offset="0" style="stop-color:#27AAE1;stop-opacity:0"/>
		<stop  offset="0.2555" style="stop-color:#25A3DC;stop-opacity:0.2555"/>
		<stop  offset="0.6329" style="stop-color:#218FCE;stop-opacity:0.6329"/>
		<stop  offset="1" style="stop-color:#1C75BC"/>
	</linearGradient>
	
		<rect x="463.19" y="552.36" style="fill:url(#SVGID_00000025421245233930267930000002387211274079247777_);" width="23.23" height="52.44"/>
	
		<linearGradient id="SVGID_00000057123092078230604860000008455655793710744990_" gradientUnits="userSpaceOnUse" x1="559.6017" y1="569.8814" x2="494.4575" y2="505.8022" gradientTransform="matrix(1 2.550998e-03 -2.580190e-03 1.0114 -1.6425 5.4137)">
		<stop  offset="0" style="stop-color:#27AAE1;stop-opacity:0"/>
		<stop  offset="1" style="stop-color:#1C75BC"/>
	</linearGradient>
	<polygon style="fill:url(#SVGID_00000057123092078230604860000008455655793710744990_);" points="535.48,604.74 512.25,604.68 
		512.52,496.77 535.75,496.83 	"/>
	
		<linearGradient id="SVGID_00000099643479279741444980000017831733790244866447_" gradientUnits="userSpaceOnUse" x1="581.9278" y1="569.8814" x2="516.7836" y2="505.8022" gradientTransform="matrix(1 2.550998e-03 -2.580190e-03 1.0114 -1.6425 5.4137)">
		<stop  offset="0" style="stop-color:#27AAE1;stop-opacity:0"/>
		<stop  offset="1" style="stop-color:#1C75BC"/>
	</linearGradient>
	<polygon style="fill:url(#SVGID_00000099643479279741444980000017831733790244866447_);" points="557.8,604.8 534.57,604.74 
		534.85,496.83 558.08,496.89 	"/>
	
		<linearGradient id="SVGID_00000025439327666067762330000015130463380558826661_" gradientUnits="userSpaceOnUse" x1="606.8702" y1="569.8814" x2="541.726" y2="505.8022" gradientTransform="matrix(1 2.550998e-03 -2.580190e-03 1.0114 -1.6425 5.4137)">
		<stop  offset="0" style="stop-color:#27AAE1;stop-opacity:0"/>
		<stop  offset="1" style="stop-color:#1C75BC"/>
	</linearGradient>
	<polygon style="fill:url(#SVGID_00000025439327666067762330000015130463380558826661_);" points="582.75,604.86 559.51,604.8 
		559.79,496.89 583.02,496.95 	"/>
	
		<linearGradient id="SVGID_00000113341243836219624680000017149036774068490649_" gradientUnits="userSpaceOnUse" x1="629.7195" y1="569.8814" x2="564.5753" y2="505.8022" gradientTransform="matrix(1 2.550998e-03 -2.580190e-03 1.0114 -1.6425 5.4137)">
		<stop  offset="0" style="stop-color:#27AAE1;stop-opacity:0"/>
		<stop  offset="1" style="stop-color:#1C75BC"/>
	</linearGradient>
	<polygon style="fill:url(#SVGID_00000113341243836219624680000017149036774068490649_);" points="605.6,604.92 582.36,604.86 
		582.64,496.95 605.87,497.01 	"/>
	
		<linearGradient id="SVGID_00000127017035541631578480000004640375075409923007_" gradientUnits="userSpaceOnUse" x1="498.9681" y1="604.1612" x2="498.9681" y2="496.3127">
		<stop  offset="0" style="stop-color:#27AAE1;stop-opacity:0"/>
		<stop  offset="0.073" style="stop-color:#26A5DE;stop-opacity:0.073"/>
		<stop  offset="0.6757" style="stop-color:#1F82C5;stop-opacity:0.6757"/>
		<stop  offset="1" style="stop-color:#1C75BC"/>
	</linearGradient>
	<polygon style="fill:url(#SVGID_00000127017035541631578480000004640375075409923007_);" points="510.57,496.72 510.74,604.16 
		487.72,604.16 487.19,551.83 504.99,551.31 490.52,496.31 	"/>
	
		<linearGradient id="SVGID_00000101802221748408605980000012955664016424420506_" gradientUnits="userSpaceOnUse" x1="355.8541" y1="806.6662" x2="355.8541" y2="496.8039">
		<stop  offset="0" style="stop-color:#27AAE1;stop-opacity:0"/>
		<stop  offset="0.2896" style="stop-color:#26A6DE;stop-opacity:0.2896"/>
		<stop  offset="0.5524" style="stop-color:#249BD7;stop-opacity:0.5524"/>
		<stop  offset="0.8039" style="stop-color:#2089CA;stop-opacity:0.8039"/>
		<stop  offset="1" style="stop-color:#1C75BC"/>
	</linearGradient>
	<polygon style="fill:url(#SVGID_00000101802221748408605980000012955664016424420506_);" points="295.33,496.89 296.72,670.27 
		320.1,682.13 319.75,700.97 343.47,712.83 344.52,731.32 367.54,743.18 368.24,762.71 391.26,774.22 392.31,793.41 416.38,806.67 
		415.55,551.49 397.8,551.66 411.93,496.8 	"/>
	
		<linearGradient id="SVGID_00000098916138925819973940000013459013072593469586_" gradientUnits="userSpaceOnUse" x1="375.7964" y1="315.3589" x2="375.7964" y2="470.7277">
		<stop  offset="0" style="stop-color:#27AAE1;stop-opacity:0"/>
		<stop  offset="0.3307" style="stop-color:#26A7DF;stop-opacity:0.3307"/>
		<stop  offset="0.5724" style="stop-color:#249ED8;stop-opacity:0.5724"/>
		<stop  offset="0.7858" style="stop-color:#218ECD;stop-opacity:0.7858"/>
		<stop  offset="0.9818" style="stop-color:#1D77BE;stop-opacity:0.9818"/>
		<stop  offset="1" style="stop-color:#1C75BC"/>
	</linearGradient>
	<path style="fill:url(#SVGID_00000098916138925819973940000013459013072593469586_);" d="M294.63,469.8l61.4,0.93
		c0,0,0.93-47.91,32.09-71.16s54.42-23.26,54.42-23.26l14.42-60.93c0,0-60-1.86-102.33,34.42
		C322.03,377.74,300.21,413.05,294.63,469.8z"/>
	
		<linearGradient id="SVGID_00000014596052309034613340000015552202667515908260_" gradientUnits="userSpaceOnUse" x1="724.0608" y1="446.7556" x2="770.8581" y2="446.7556">
		<stop  offset="0" style="stop-color:#27AAE1;stop-opacity:0"/>
		<stop  offset="1" style="stop-color:#1C75BC"/>
	</linearGradient>
	<path style="fill:url(#SVGID_00000014596052309034613340000015552202667515908260_);" d="M724.06,450.84c0,0,8.6-10.35,9.07-10.58
		c0.47-0.23,0.25,0,0.7-0.58c0.45-0.58,1.51,13.49,16.28,10.7c14.77-2.79,4.42-20.23,4.42-20.23s15.12,0.23,15.93,1.28
		c0,0,3.72,21.86-11.51,28.49c-15.23,6.63-23.26,2.56-28.84-2.56C724.53,452.24,724.06,450.84,724.06,450.84z"/>
	<g>
		
			<linearGradient id="SVGID_00000078040056069656402540000006450220827760065207_" gradientUnits="userSpaceOnUse" x1="499.3316" y1="676.4257" x2="681.6462" y2="676.4257">
			<stop  offset="0.1237" style="stop-color:#27AAE1;stop-opacity:0"/>
			<stop  offset="0.4086" style="stop-color:#26A7DF;stop-opacity:0.3251"/>
			<stop  offset="0.6224" style="stop-color:#249DD8;stop-opacity:0.5692"/>
			<stop  offset="0.8125" style="stop-color:#218DCD;stop-opacity:0.786"/>
			<stop  offset="0.9887" style="stop-color:#1C77BD;stop-opacity:0.9871"/>
			<stop  offset="1" style="stop-color:#1C75BC"/>
		</linearGradient>
		<path style="fill:url(#SVGID_00000078040056069656402540000006450220827760065207_);" d="M587.81,686.33
			c-36.41,0-67.28-23.71-78.03-56.53h-10.39c-0.02,0.7-0.05,1.39-0.05,2.1c0,50.26,40.89,91.16,91.16,91.16
			c50.26,0,91.16-40.89,91.16-91.16c0-0.7-0.04-1.4-0.05-2.1h-15.77C655.07,662.62,624.22,686.33,587.81,686.33z"/>
		
			<linearGradient id="SVGID_00000158726727763956469840000016851060833466338224_" gradientUnits="userSpaceOnUse" x1="433.2711" y1="707.1368" x2="742.6063" y2="707.1368">
			<stop  offset="0.1237" style="stop-color:#27AAE1;stop-opacity:0"/>
			<stop  offset="0.4086" style="stop-color:#26A7DF;stop-opacity:0.3251"/>
			<stop  offset="0.6224" style="stop-color:#249DD8;stop-opacity:0.5692"/>
			<stop  offset="0.8125" style="stop-color:#218DCD;stop-opacity:0.786"/>
			<stop  offset="0.9887" style="stop-color:#1C77BD;stop-opacity:0.9871"/>
			<stop  offset="1" style="stop-color:#1C75BC"/>
		</linearGradient>
		<path style="fill:url(#SVGID_00000158726727763956469840000016851060833466338224_);" d="M700.2,629.8
			c0.01,0.7,0.03,1.39,0.03,2.1c0,60.51-49.23,109.74-109.74,109.74c-60.51,0-109.74-49.23-109.74-109.74c0-0.7,0.01-1.4,0.03-2.1
			h-47.5c0,85.43,69.25,154.67,154.66,154.67c85.43,0,154.67-69.25,154.67-154.67H700.2z"/>
	</g>
	
		<linearGradient id="SVGID_00000003097976748006838130000013816395798286222522_" gradientUnits="userSpaceOnUse" x1="832.7509" y1="484.0409" x2="803.9773" y2="563.0957">
		<stop  offset="0" style="stop-color:#27AAE1;stop-opacity:0"/>
		<stop  offset="0.2578" style="stop-color:#25A2DC;stop-opacity:0.2578"/>
		<stop  offset="0.6474" style="stop-color:#218ECD;stop-opacity:0.6474"/>
		<stop  offset="1" style="stop-color:#1C75BC"/>
	</linearGradient>
	<path style="fill:url(#SVGID_00000003097976748006838130000013816395798286222522_);" d="M815.34,477.7
		c0,0,24.19,56.98,23.95,61.86c-0.23,4.88-0.99,19.24-13.02,24.48c-12.04,5.23-14.3,1.57-14.3,1.57l-7.5-21.11
		c0,0,5.41,5.58,10.81,2.27c5.41-3.31,7.67-8.02,4.36-15c-3.31-6.98-17.79-42.73-17.79-42.73L815.34,477.7z"/>
	
		<linearGradient id="SVGID_00000171715063110319173930000004839590410750127495_" gradientUnits="userSpaceOnUse" x1="829.8015" y1="467.9101" x2="865.6439" y2="447.2164">
		<stop  offset="0" style="stop-color:#27AAE1;stop-opacity:0"/>
		<stop  offset="0.0445" style="stop-color:#26A6DE;stop-opacity:0.0445"/>
		<stop  offset="0.4174" style="stop-color:#218BCC;stop-opacity:0.4174"/>
		<stop  offset="0.7479" style="stop-color:#1D7BC0;stop-opacity:0.7479"/>
		<stop  offset="1" style="stop-color:#1C75BC"/>
	</linearGradient>
	<polygon style="fill:url(#SVGID_00000171715063110319173930000004839590410750127495_);" points="844.24,432.88 877.2,467.24 
		826.8,462.7 839.18,444.91 	"/>
	
		<linearGradient id="SVGID_00000099623518677267512670000010490926493103595161_" gradientUnits="userSpaceOnUse" x1="691.0367" y1="604.4519" x2="691.0367" y2="511.1938">
		<stop  offset="0" style="stop-color:#27AAE1;stop-opacity:0"/>
		<stop  offset="0.2858" style="stop-color:#26A6DE;stop-opacity:0.2858"/>
		<stop  offset="0.5513" style="stop-color:#249BD7;stop-opacity:0.5513"/>
		<stop  offset="0.8078" style="stop-color:#2088CA;stop-opacity:0.8078"/>
		<stop  offset="1" style="stop-color:#1C75BC"/>
	</linearGradient>
	<path style="fill:url(#SVGID_00000099623518677267512670000010490926493103595161_);" d="M638.83,511.19
		c2.09,1.86,31.63,13.95,56.51,14.19c24.88,0.23,46.75-5.35,46.75-5.35l1.4,83.03l-104.89,1.4L638.83,511.19z"/>
	
		<linearGradient id="SVGID_00000174578607925040641430000014057219325545172611_" gradientUnits="userSpaceOnUse" x1="680.804" y1="525.5287" x2="680.804" y2="410.0285">
		<stop  offset="0.1239" style="stop-color:#27AAE1;stop-opacity:0"/>
		<stop  offset="0.3604" style="stop-color:#26A6DE;stop-opacity:0.2699"/>
		<stop  offset="0.606" style="stop-color:#2499D5;stop-opacity:0.5503"/>
		<stop  offset="0.8551" style="stop-color:#1F85C7;stop-opacity:0.8346"/>
		<stop  offset="1" style="stop-color:#1C75BC"/>
	</linearGradient>
	<path style="fill:url(#SVGID_00000174578607925040641430000014057219325545172611_);" d="M710.8,410.03
		c0,0-35.23,19.54-52.68,53.02c-17.44,33.49-18.31,48.14-18.31,48.14s40.64,19.36,81.98,13.08L710.8,410.03z"/>
	
		<linearGradient id="SVGID_00000074421331772630919530000014182556817302352040_" gradientUnits="userSpaceOnUse" x1="842.5346" y1="462.005" x2="789.9153" y2="370.8657">
		<stop  offset="0.1239" style="stop-color:#27AAE1;stop-opacity:0"/>
		<stop  offset="0.3604" style="stop-color:#26A6DE;stop-opacity:0.2699"/>
		<stop  offset="0.606" style="stop-color:#2499D5;stop-opacity:0.5503"/>
		<stop  offset="0.8551" style="stop-color:#1F85C7;stop-opacity:0.8346"/>
		<stop  offset="1" style="stop-color:#1C75BC"/>
	</linearGradient>
	<path style="fill:url(#SVGID_00000074421331772630919530000014182556817302352040_);" d="M754.41,391.37l60.93,86.34
		c0,0,35.52-36.98,39.19-76.92c0,0-20.76-12.73-56.16-13.78C762.96,385.96,754.41,391.37,754.41,391.37z"/>
	
		<linearGradient id="SVGID_00000021831474711271880700000005771268871760841626_" gradientUnits="userSpaceOnUse" x1="920.8697" y1="558.7275" x2="79.5318" y2="558.7275">
		<stop  offset="0.4811" style="stop-color:#27AAE1;stop-opacity:0"/>
		<stop  offset="0.6581" style="stop-color:#26A7DF;stop-opacity:0.3412"/>
		<stop  offset="0.7815" style="stop-color:#259ED9;stop-opacity:0.5789"/>
		<stop  offset="0.8884" style="stop-color:#218FCE;stop-opacity:0.785"/>
		<stop  offset="0.9855" style="stop-color:#1D79BF;stop-opacity:0.9721"/>
		<stop  offset="1" style="stop-color:#1C75BC"/>
	</linearGradient>
	<path style="fill:url(#SVGID_00000021831474711271880700000005771268871760841626_);" d="M623.62,906.63l11.02,17.83l-33.78-0.69
		l-12.73,31.85l-12.43-31.85l-34.71,1.17l14.12-16.06l0.68-1.85c-39.08-3.35-76.42-12.8-111.04-27.44
		c-5.41,8.65-15.01,14.4-25.96,14.4c-16.9,0-30.6-13.7-30.6-30.6c0-4.32,0.9-8.43,2.52-12.16
		c-89.1-56.73-152.05-150.87-166.77-260.29c-4.67,1.45-9.63,2.24-14.77,2.24c-27.42,0-49.65-22.23-49.65-49.65
		c0-27.42,22.23-49.65,49.65-49.65c4.97,0,9.76,0.74,14.28,2.1c14.98-120.75,88.66-223.29,191.59-278.2
		c-1.47-3.57-2.29-7.48-2.29-11.58c0-16.76,13.59-30.35,30.35-30.35c12.32,0,22.92,7.35,27.68,17.89
		c36.65-12.29,75.87-18.95,116.66-18.95c89.8,0,172.06,32.29,235.82,85.87c-78.59-82.27-189.37-133.53-312.13-133.53
		c-238.36,0-431.59,193.23-431.59,431.59c0,10.66,0.39,21.22,1.15,31.68c4.78-1.17,9.76-1.8,14.9-1.8
		c34.53,0,62.52,27.99,62.52,62.52c0,30.38-21.67,55.68-50.39,61.33c61.95,162.45,219.2,277.85,403.4,277.85
		c190.88,0,352.81-123.92,409.75-295.7C867.66,810.37,755.96,893.67,623.62,906.63z M260.88,273.99c7,0,12.68,5.68,12.68,12.68
		s-5.68,12.68-12.68,12.68c-7,0-12.68-5.68-12.68-12.68S253.88,273.99,260.88,273.99z M227.78,350.41c0,4.64-3.76,8.39-8.39,8.39
		c-4.64,0-8.39-3.76-8.39-8.39c0-4.64,3.76-8.39,8.39-8.39C224.02,342.01,227.78,345.77,227.78,350.41z M206.11,298.52
		c5.78,0,10.46,4.68,10.46,10.46c0,5.78-4.68,10.46-10.46,10.46s-10.46-4.68-10.46-10.46C195.64,303.21,200.33,298.52,206.11,298.52
		z M142.64,462.09c-5.81,0-10.52-4.71-10.52-10.52c0-5.81,4.71-10.52,10.52-10.52c5.81,0,10.52,4.71,10.52,10.52
		C153.16,457.38,148.45,462.09,142.64,462.09z M210.67,703.49c-5.81,0-10.52-4.71-10.52-10.52c0-5.81,4.71-10.52,10.52-10.52
		c5.81,0,10.52,4.71,10.52,10.52C221.19,698.78,216.48,703.49,210.67,703.49z M293.82,847.09c-7.22,0-13.08-5.85-13.08-13.08
		c0-7.22,5.85-13.08,13.08-13.08c7.22,0,13.08,5.85,13.08,13.08C306.9,841.23,301.04,847.09,293.82,847.09z M325.08,894.38
		c-6.02,0-10.91-4.88-10.91-10.91c0-6.02,4.88-10.91,10.91-10.91c6.02,0,10.91,4.88,10.91,10.91
		C335.99,889.49,331.1,894.38,325.08,894.38z M336.85,855.21c-4.7,0-8.5-3.81-8.5-8.5c0-4.7,3.81-8.5,8.5-8.5
		c4.7,0,8.5,3.81,8.5,8.5C345.36,851.4,341.55,855.21,336.85,855.21z"/>
</g>
<g id="macaroons_copy">
	<g>
		<path class="st68" d="M652.21,313.4c0-5.47-4.45-9.91-9.91-9.91s-9.91,4.45-9.91,9.91s4.45,9.91,9.91,9.91
			c1.09,0,2.14-0.18,3.12-0.51l32.8,48.16c0.36,0.53,0.94,0.81,1.54,0.81c0.36,0,0.72-0.1,1.05-0.32c0.85-0.58,1.07-1.73,0.49-2.58
			l-32.62-47.89C650.84,319.15,652.21,316.44,652.21,313.4z M642.3,319.59c-3.42,0-6.2-2.78-6.2-6.2s2.78-6.2,6.2-6.2
			s6.2,2.78,6.2,6.2S645.72,319.59,642.3,319.59z"/>
		<path class="st68" d="M835.15,237.13c-41.73-41.73-90.33-74.49-144.44-97.38c-56.02-23.7-115.53-35.71-176.87-35.71
			s-120.85,12.01-176.87,35.71c-54.11,22.89-102.71,55.65-144.44,97.38c-41.73,41.73-74.49,90.33-97.38,144.44
			c-23.7,56.02-35.71,115.53-35.71,176.87c0,13.11,0.58,26.34,1.69,39.37c-18.25,11.88-29.12,31.83-29.12,53.62
			c0,31.92,23.59,58.93,55.05,63.34c31.63,86.35,88.09,160.32,163.33,213.95c77.21,55.04,168.31,84.13,263.45,84.13
			c61.34,0,120.85-12.01,176.87-35.71c54.11-22.89,102.71-55.65,144.44-97.38c41.73-41.73,74.49-90.33,97.38-144.44
			c23.7-56.02,35.71-115.53,35.71-176.87s-12.01-120.85-35.71-176.87C909.65,327.46,876.88,278.86,835.15,237.13z M35.73,651.43
			c0-20.89,10.59-39.99,28.33-51.1c4.92-3.08,10.24-5.42,15.78-6.96c0.28,3.31,0.58,6.62,0.94,9.93
			c-5.22,1.66-10.16,4.17-14.61,7.43l-0.02-0.15l-2.62,2.21l-0.77,0.65l0,0.03c-10.95,9.61-17.23,23.37-17.23,37.95
			c0,22.45,14.91,42.23,36.37,48.47l0.01,0.02l0.97,0.26l3.31,0.89l-0.04-0.13c3.25,0.65,6.56,0.97,9.87,0.97
			c2.29,0,4.55-0.17,6.76-0.47c1.09,3.14,2.22,6.27,3.38,9.38c-3.3,0.56-6.69,0.87-10.15,0.87c-2.39,0-4.8-0.15-7.37-0.47
			C58.48,707.57,35.73,681.85,35.73,651.43z M459.16,199.93c0.71,1.88,1.11,3.9,1.11,6.02c0,9.47-7.7,17.17-17.17,17.17
			c-6.77,0-12.62-3.95-15.41-9.65C437.94,208.48,448.43,203.96,459.16,199.93z M426.43,209.95c-0.31-1.29-0.49-2.62-0.49-4
			c0-9.47,7.7-17.17,17.17-17.17c6.01,0,11.31,3.11,14.37,7.81C446.9,200.58,436.54,205.04,426.43,209.95z M443.11,185.07
			c-11.51,0-20.88,9.37-20.88,20.88c0,1.97,0.29,3.87,0.81,5.68c-2.35,1.17-4.68,2.37-7,3.59c-1-2.91-1.55-6.02-1.55-9.27
			c0-15.78,12.84-28.62,28.62-28.62c10.99,0,20.55,6.23,25.34,15.34c-2.49,0.85-4.96,1.72-7.42,2.62
			C457.39,189.18,450.73,185.07,443.11,185.07z M424.37,215.12c3.4,6.93,10.51,11.72,18.74,11.72c11.51,0,20.88-9.37,20.88-20.88
			c0-2.57-0.49-5.02-1.34-7.29c2.43-0.88,4.87-1.74,7.32-2.58c1.13,3.08,1.76,6.4,1.76,9.87c0,15.78-12.84,28.62-28.62,28.62
			c-11.22,0-20.95-6.49-25.64-15.91C419.76,217.46,422.06,216.28,424.37,215.12z M443.11,173.61c-17.83,0-32.34,14.51-32.34,32.34
			c0,3.87,0.68,7.58,1.94,11.02c-37.51,20.23-71.31,46.95-100.1,79.41c-49.55,55.86-80.63,124.29-89.97,198.02
			c-4.52-1.29-9.2-1.94-13.95-1.94c-28.03,0-50.83,22.8-50.83,50.83c0,28.03,22.8,50.83,50.83,50.83c5.08,0,9.99-0.76,14.63-2.16
			c1.46,10.36,3.35,20.69,5.69,30.95c17.73,77.62,58.98,145.92,119.28,197.54c12.98,11.11,26.67,21.27,40.98,30.44
			c-1.66,3.88-2.57,8.16-2.57,12.64c0,17.83,14.51,32.34,32.34,32.34c11.49,0,21.58-6.02,27.32-15.07
			c34.17,14.27,70.07,23.24,106.79,26.72l-13.59,16.23c-0.47,0.56-0.57,1.35-0.25,2.01c0.32,0.66,1.02,1.1,1.73,1.04l33.39-1.12
			l12.11,31.32c0.28,0.72,0.97,1.19,1.73,1.19s1.46-0.47,1.73-1.19l12.11-31.32l33.39,1.12c0.76,0.03,1.4-0.37,1.72-1.02
			c0.33-0.64,0.25-1.42-0.2-1.99l-12.96-16.47c15.32-1.53,30.72-4.04,45.82-7.49c57.25-13.08,108.98-38.66,153.75-76.03
			c34.51-28.81,63.76-64.21,85.77-103.59c-23.54,57.67-59.48,109.92-105.12,152.49c-55.07,51.37-123.2,87.44-197.04,104.3
			c-111.83,25.54-226.91,6.01-324.04-55C203.86,872.16,144.25,799.5,111.16,713.6c27.99-6.83,48.84-32.1,48.84-62.17
			c0-35.29-28.71-63.99-63.99-63.99c-1.29,0-2.57,0.05-3.85,0.12c-0.13,0.01-0.27,0.01-0.4,0.02c-1.21,0.08-2.42,0.2-3.63,0.35
			c-0.19,0.02-0.37,0.04-0.56,0.07c-1.18,0.16-2.35,0.35-3.51,0.57c-0.2,0.04-0.4,0.08-0.6,0.12c-0.09,0.02-0.18,0.03-0.27,0.05
			c-6.61-90.52,15.6-180.49,64.78-258.79c61.01-97.13,156.2-164.7,268.02-190.24c73.84-16.87,150.88-13.96,222.79,8.41
			c59.6,18.54,114.66,50,160.9,91.73c-36.93-25.91-78.65-45.1-122.24-56.07c-56.55-14.23-114.26-14.81-171.52-1.74
			c-11.51,2.63-22.83,5.79-33.92,9.44C466.69,180.89,455.74,173.61,443.11,173.61z M246.29,543.29c0-20.74-16.87-37.61-37.61-37.61
			s-37.61,16.87-37.61,37.61s16.87,37.61,37.61,37.61c4.56,0,8.94-0.82,12.99-2.31c0.34,3.22,0.7,6.44,1.12,9.66
			c-4.46,1.4-9.2,2.16-14.11,2.16c-25.98,0-47.11-21.13-47.11-47.11s21.13-47.11,47.11-47.11c5,0,9.91,0.78,14.61,2.31
			c19.44,6.34,32.5,24.34,32.5,44.8c0,19.72-12.19,36.64-29.42,43.65c-0.42-3.3-0.79-6.6-1.12-9.9
			C237.7,570.9,246.29,558.08,246.29,543.29z M224.86,573.06c-1.79-19.89-1.92-39.87-0.41-59.76c10.77,5.68,18.13,16.99,18.13,29.99
			C242.58,556.12,235.41,567.31,224.86,573.06z M221.29,574.74c-3.9,1.57-8.15,2.44-12.6,2.44c-18.69,0-33.89-15.2-33.89-33.89
			s15.2-33.89,33.89-33.89c4.28,0,8.38,0.81,12.16,2.26C219.17,532.66,219.32,553.75,221.29,574.74z M419.04,842.65
			c-7.92,0-14.82,4.43-18.36,10.94c-2.21-1.33-4.41-2.68-6.6-4.05c4.91-8.72,14.25-14.63,24.95-14.63
			c15.78,0,28.62,12.84,28.62,28.62c0,4.5-1.05,8.76-2.91,12.55c-2.38-1.02-4.75-2.07-7.1-3.13c1.44-2.83,2.27-6.03,2.27-9.42
			C439.92,852.01,430.55,842.65,419.04,842.65z M403.89,855.48c2.89-5.42,8.59-9.12,15.15-9.12c9.47,0,17.17,7.7,17.17,17.17
			c0,2.84-0.7,5.52-1.93,7.88C423.88,866.57,413.75,861.25,403.89,855.48z M432.19,874.54c-3.15,3.76-7.88,6.15-13.15,6.15
			c-9.46,0-17.17-7.7-17.17-17.17c0-1.58,0.23-3.1,0.63-4.55C412.15,864.6,422.05,869.8,432.19,874.54z M399.2,857.03
			c-0.67,2.05-1.05,4.23-1.05,6.5c0,11.51,9.37,20.88,20.88,20.88c6.78,0,12.8-3.26,16.62-8.29c2.4,1.09,4.81,2.16,7.24,3.2
			c-5.13,7.72-13.91,12.83-23.85,12.83c-15.78,0-28.62-12.84-28.62-28.62c0-3.75,0.73-7.33,2.05-10.62
			C394.7,854.3,396.94,855.68,399.2,857.03z M286.4,494.45v-21.86h129.9l-5.67,21.86H286.4z M390.03,498.17v273.25l-20.09-9.87
			V498.17H390.03z M366.23,498.17v242.2l-20.09-9.97V498.17H366.23z M342.42,498.17v211.33l-20.09-9.58V498.17H342.42z
			 M318.61,498.17v180.51l-20.09-9.81V498.17H318.61z M371.55,335.87c-0.24-1.17-0.37-2.39-0.37-3.63c0-9.85,8.01-17.86,17.86-17.86
			c5.83,0,10.99,2.82,14.25,7.14C392.11,325.13,381.48,329.97,371.55,335.87z M405.25,324.79c1.05,2.27,1.64,4.78,1.64,7.44
			c0,9.85-8.01,17.86-17.86,17.86c-7.27,0-13.52-4.37-16.31-10.61C382.87,333.38,393.77,328.43,405.25,324.79z M389.04,353.81
			c11.9,0,21.58-9.68,21.58-21.58c0-3.03-0.63-5.91-1.77-8.53c13.48-3.9,27.72-6.01,42.45-6.01c37.42,0,71.73,13.53,98.33,35.94
			c-7.55,3.56-16.03,4.33-24.18,2.11c-9.06-2.47-16.62-8.31-21.28-16.46l-0.92-1.61l-16.59,9.49l0.92,1.61
			c7.2,12.58,18.87,21.6,32.85,25.41c4.74,1.29,9.55,1.93,14.33,1.93c9.33,0,18.55-2.43,26.87-7.19c0.82-0.47,1.62-0.96,2.41-1.46
			c24.49,26.77,39.6,62.25,40.06,101.19H485.26l-19.43-74.9c24.9,4.74,46.24,21.95,56.12,45.46c0.4,0.95,1.49,1.39,2.43,0.99
			c0.71-0.3,1.14-0.99,1.14-1.72c0-0.24-0.05-0.48-0.15-0.72c-10.59-25.2-33.72-43.49-60.57-47.98l-3.27-12.6
			c36.81,3.99,68.27,30.16,78.76,65.83c0.29,0.99,1.32,1.55,2.31,1.26c0.81-0.24,1.33-0.98,1.33-1.78c0-0.17-0.02-0.35-0.08-0.53
			c-11.05-37.56-44.43-64.99-83.32-68.62l-7.44-28.69c-0.21-0.82-0.95-1.39-1.8-1.39c-0.85,0-1.59,0.57-1.8,1.39l-7.46,28.75
			c-23.45,2.29-45.16,13.08-61.23,30.47c-16.35,17.69-25.41,40.66-25.54,64.75h-56.76c0.64-53.45,28.86-100.38,71.06-127.2
			C373.02,348.74,380.44,353.81,389.04,353.81z M569.3,304.16l10.14-5.81c11.68,22.24,5.09,49.61-14.88,64.23
			c-2.74-2.87-5.58-5.63-8.53-8.29c7.94-5.21,13.63-13.02,16.15-22.26C574.75,322.61,573.72,312.79,569.3,304.16z M561.44,364.7
			c-0.55,0.34-1.09,0.68-1.66,1c-11.72,6.71-25.35,8.45-38.38,4.9c-12.43-3.38-22.89-11.19-29.65-22.07l10.14-5.81
			c10.8,16.96,32.92,22.89,50.77,13.55C555.7,358.97,558.63,361.77,561.44,364.7z M667.47,302.55c-1.41-3.55-1.91-7.3-1.48-11.15
			c1.25-11.4,10.85-20.25,22.32-20.59c0.23-0.01,0.46-0.01,0.69-0.01c9.42,0,18,5.75,21.54,14.49c0.02,0.05,0.04,0.1,0.06,0.15l0,0
			c0,0,0,0,0,0c0.38,0.95,1.46,1.42,2.41,1.04c0.95-0.38,1.42-1.46,1.04-2.41c-1.41-3.54-1.91-7.29-1.48-11.15
			c1.25-11.39,10.84-20.24,22.32-20.59c2.48-0.08,4.93,0.24,7.29,0.93c8.07,2.37,14.25,9.53,15.76,18.25l19.68,113.98
			c-7.55,0.66-15.05,1.88-22.47,3.65l-52.81-75.61c-0.48-0.69-1.38-0.97-2.17-0.68c-0.79,0.3-1.29,1.09-1.2,1.93l9.6,93.85
			c-5.3,3.31-10.37,6.92-15.2,10.8c-0.06-0.17-0.13-0.34-0.25-0.49c-0.52-0.71-51.91-71.55-70.26-98.73
			c-4.26-6.31-4.58-13.2-0.91-19.42c4.28-7.25,13.26-12.2,20.91-11.51c9.81,0.88,17.92,6.49,21.15,14.65
			c0.38,0.95,1.46,1.41,2.41,1.04C667.39,304.58,667.85,303.5,667.47,302.55z M837.6,450.52c0.48-0.81,0.96-1.62,1.42-2.44
			c0.2-0.35,0.4-0.7,0.59-1.05c0.4-0.71,0.79-1.43,1.18-2.15l20.92,14.23L837.6,450.52z M861.58,463l-30.81-2
			c0.06-0.09,0.12-0.18,0.18-0.26c0.72-1.01,1.42-2.03,2.11-3.06c0.34-0.5,0.67-1.01,1-1.51c0.52-0.8,1.04-1.6,1.55-2.41L861.58,463
			z M842.53,441.57c0.58-1.14,1.14-2.28,1.7-3.44c0.1-0.21,0.2-0.42,0.3-0.63c0.13-0.27,0.26-0.53,0.38-0.8l16.91,17.99
			L842.53,441.57z M845.08,426.9c-0.55,1.38-1.11,2.76-1.7,4.12c-0.05,0.11-0.09,0.22-0.14,0.33c-0.64,1.47-1.3,2.92-1.98,4.37
			c-0.13,0.27-0.26,0.55-0.39,0.82c-0.56,1.18-1.14,2.34-1.73,3.51c-0.16,0.32-0.32,0.63-0.48,0.95c-0.69,1.34-1.41,2.66-2.14,3.98
			c-0.19,0.34-0.39,0.68-0.58,1.02c-0.55,0.97-1.12,1.94-1.69,2.91c-0.29,0.49-0.58,0.97-0.88,1.46c-0.61,1-1.24,1.99-1.87,2.97
			c-0.44,0.69-0.89,1.37-1.35,2.04c-0.47,0.7-0.94,1.4-1.42,2.09c-0.45,0.65-0.91,1.3-1.37,1.94c-0.37,0.52-0.75,1.03-1.12,1.54
			c-0.95,1.29-1.92,2.57-2.91,3.83c-0.24,0.3-0.47,0.6-0.71,0.9c-0.64,0.8-1.29,1.59-1.94,2.38c-0.17,0.2-0.34,0.4-0.51,0.6
			c-1.72,2.04-3.49,4.04-5.31,5.99l-57.42-82.22c17.77-4.05,35.99-4.87,54.21-2.44c14.2,1.9,27.99,5.75,41.02,11.45
			c-0.05,0.23-0.1,0.47-0.15,0.7c-0.27,1.27-0.55,2.53-0.85,3.79c-0.07,0.3-0.14,0.6-0.21,0.89c-0.38,1.55-0.77,3.08-1.2,4.61
			c-0.06,0.23-0.13,0.46-0.2,0.69c-0.38,1.34-0.77,2.67-1.18,4c-0.09,0.3-0.19,0.6-0.28,0.91c-0.97,3.06-2.04,6.09-3.21,9.07
			C845.29,426.36,845.19,426.63,845.08,426.9z M714.83,409.22c0.71-0.41,1.42-0.84,2.14-1.24c1-0.56,2.01-1.09,3.02-1.62
			c0.69-0.36,1.36-0.74,2.06-1.09c1.14-0.58,2.3-1.14,3.46-1.69c0.57-0.27,1.13-0.56,1.7-0.82c1.73-0.8,3.48-1.58,5.24-2.31
			c0.26-0.11,0.53-0.21,0.8-0.32c1.5-0.62,3.01-1.22,4.53-1.8c0.63-0.24,1.28-0.45,1.91-0.68c1.16-0.42,2.32-0.84,3.49-1.23
			c0.74-0.25,1.49-0.47,2.24-0.71c1.08-0.34,2.15-0.68,3.24-1c0.8-0.23,1.61-0.45,2.42-0.67c0.83-0.23,1.67-0.46,2.5-0.67
			l19.51,27.93c-3.78-2.17-8.13-3.54-13.49-3.88c-13.51-0.88-26.64,4.15-35.09,13.44c-3.14,3.45-6.42,8.35-8.4,14.89l-3.6-35.17
			C713.28,410.12,714.06,409.67,714.83,409.22z M712.08,406.49l-8.69-84.96l47.89,68.57c-0.63,0.17-1.24,0.36-1.87,0.53
			c-0.73,0.2-1.47,0.41-2.2,0.62c-1.14,0.34-2.28,0.69-3.42,1.06c-0.68,0.22-1.37,0.43-2.04,0.66c-1.26,0.42-2.51,0.87-3.75,1.32
			c-0.54,0.2-1.09,0.38-1.63,0.58c-1.78,0.67-3.54,1.37-5.29,2.1c-0.23,0.1-0.45,0.2-0.68,0.3c-1.52,0.64-3.03,1.31-4.53,2
			c-0.61,0.28-1.2,0.58-1.81,0.87c-1.11,0.53-2.23,1.07-3.33,1.63c-0.68,0.35-1.35,0.7-2.03,1.06c-1.01,0.53-2.02,1.07-3.03,1.63
			c-0.7,0.39-1.39,0.78-2.08,1.18C713.09,405.92,712.58,406.19,712.08,406.49z M727.24,433.36c7.7-8.46,19.71-13.04,32.11-12.23
			c7.84,0.51,13.18,3.41,18,8.09c-2.17-0.62-4.38-1.1-6.63-1.43c-0.64-0.09-1.28-0.16-1.92-0.23c-5.05-0.53-10.11-0.28-15.02,0.72
			c-7.43,1.51-14.54,4.78-20.55,9.44c0,0,0,0-0.01,0c-0.03,0.02-0.05,0.04-0.08,0.06c-3.95,3.08-7.42,6.75-10.3,10.9
			c-1.92,2.77-3.54,5.69-4.85,8.74C718.26,447.99,721.39,439.79,727.24,433.36z M746.26,452.94c7.63,0,13.84-6.21,13.84-13.84
			c0-0.44-0.03-0.88-0.07-1.32c-0.01-0.12-0.03-0.23-0.04-0.35c-0.05-0.37-0.1-0.74-0.18-1.1c-0.01-0.07-0.02-0.14-0.04-0.21
			c-0.09-0.42-0.21-0.84-0.34-1.25c-0.03-0.1-0.07-0.2-0.1-0.3c-0.12-0.33-0.24-0.66-0.38-0.98c-0.04-0.09-0.08-0.19-0.12-0.28
			c-0.18-0.39-0.38-0.77-0.59-1.15c-0.04-0.07-0.09-0.14-0.13-0.21c-0.11-0.19-0.23-0.38-0.35-0.56c3.15-0.41,6.35-0.48,9.54-0.23
			c0.08,0.22,0.17,0.44,0.25,0.66c0.1,0.28,0.19,0.57,0.28,0.85c0.13,0.42,0.23,0.85,0.34,1.28c0.06,0.27,0.14,0.55,0.19,0.83
			c0.09,0.47,0.16,0.96,0.22,1.44c0.03,0.24,0.07,0.47,0.1,0.71c0.07,0.72,0.11,1.45,0.11,2.18c0,12.41-10.09,22.5-22.5,22.5
			c-8.29,0-15.73-4.45-19.69-11.69c1.89-2.59,4.02-4.98,6.39-7.11C734.58,448.63,739.95,452.94,746.26,452.94z M736.2,440.13
			c5.15-3.84,11.12-6.59,17.37-8c0.02,0.02,0.05,0.05,0.07,0.07c0.09,0.1,0.17,0.2,0.26,0.3c0.14,0.16,0.28,0.32,0.4,0.49
			c0.08,0.11,0.16,0.22,0.24,0.34c0.12,0.17,0.23,0.34,0.34,0.51c0.07,0.12,0.14,0.24,0.21,0.36c0.1,0.18,0.19,0.35,0.28,0.53
			c0.06,0.13,0.12,0.25,0.18,0.38c0.08,0.19,0.15,0.37,0.22,0.56c0.05,0.13,0.09,0.26,0.14,0.39c0.06,0.2,0.12,0.4,0.17,0.6
			c0.03,0.13,0.07,0.26,0.09,0.38c0.05,0.22,0.08,0.45,0.11,0.68c0.02,0.11,0.04,0.22,0.05,0.33c0.04,0.34,0.06,0.68,0.06,1.03
			c0,5.58-4.54,10.12-10.12,10.12c-0.34,0-0.67-0.02-0.99-0.05c-0.11-0.01-0.22-0.03-0.33-0.05c-0.21-0.03-0.43-0.06-0.64-0.1
			c-0.13-0.03-0.25-0.06-0.38-0.09c-0.19-0.04-0.37-0.09-0.56-0.14c-0.13-0.04-0.26-0.09-0.39-0.14c-0.17-0.06-0.34-0.12-0.51-0.18
			c-0.13-0.05-0.26-0.12-0.39-0.18c-0.16-0.07-0.32-0.14-0.47-0.23c-0.13-0.07-0.25-0.14-0.38-0.21c-0.15-0.08-0.29-0.17-0.43-0.26
			c-0.12-0.08-0.24-0.17-0.36-0.25c-0.14-0.1-0.27-0.19-0.4-0.3c-0.12-0.09-0.23-0.19-0.34-0.28c-0.13-0.11-0.25-0.22-0.37-0.33
			c-0.11-0.1-0.21-0.21-0.32-0.31c-0.11-0.12-0.23-0.24-0.33-0.36c-0.1-0.11-0.19-0.23-0.29-0.34c-0.1-0.13-0.2-0.26-0.3-0.39
			c-0.09-0.12-0.17-0.24-0.26-0.36c-0.09-0.14-0.18-0.28-0.26-0.43c-0.08-0.13-0.15-0.25-0.22-0.38c-0.08-0.15-0.15-0.3-0.23-0.46
			c-0.06-0.13-0.13-0.26-0.18-0.4c-0.07-0.16-0.13-0.32-0.19-0.49c-0.05-0.14-0.1-0.27-0.14-0.41c-0.05-0.17-0.1-0.35-0.14-0.53
			c-0.03-0.13-0.07-0.27-0.1-0.4c-0.04-0.19-0.07-0.39-0.1-0.58c-0.02-0.13-0.04-0.25-0.06-0.38
			C736.2,440.17,736.2,440.15,736.2,440.13z M746.26,465.32c14.46,0,26.22-11.76,26.22-26.22c0-0.8-0.05-1.6-0.12-2.39
			c-0.02-0.22-0.05-0.43-0.07-0.65c-0.08-0.65-0.18-1.3-0.3-1.95c-0.03-0.15-0.05-0.3-0.08-0.45c-0.14-0.67-0.31-1.34-0.5-2
			c3.5,0.59,6.9,1.58,10.15,2.95c-5.47,22.96-27.67,38.19-51.23,34.81c-3.92-0.56-7.74-1.61-11.36-3.14
			c1.09-4.58,2.87-8.92,5.29-12.95C729.06,460.8,737.23,465.32,746.26,465.32z M729.8,473.1c2.37,0.34,4.72,0.5,7.05,0.5
			c21.94,0,41.56-14.58,47.71-35.86l27.68,39.63c-0.29,0.29-0.57,0.58-0.86,0.87c-0.25,0.26-0.51,0.51-0.76,0.76
			C787.38,502,757,517.35,723.89,521.92l-4.39-42.92l-0.91-8.89C722.19,471.53,725.94,472.55,729.8,473.1z M801.19,492.43
			l17.61,43.16c0.75,1.86,0.73,3.92-0.06,5.78c-0.79,1.87-2.26,3.31-4.12,4.06c-1.86,0.75-3.92,0.73-5.78-0.06
			c-1.87-0.79-3.31-2.26-4.06-4.12c-0.06-0.14-0.14-0.27-0.22-0.39l-15.8-39.42C793.05,498.64,797.2,495.65,801.19,492.43z
			 M772.09,510.99l33.11,81.99c0.75,1.86,0.73,3.92-0.06,5.78c-0.79,1.87-2.26,3.31-4.12,4.06c-1.86,0.75-3.92,0.73-5.78-0.06
			c-1.87-0.79-3.31-2.25-4.06-4.12l-32.93-81.64C762.95,515.23,767.57,513.22,772.09,510.99z M754.75,518.28l32.98,81.76
			c1.12,2.78,3.27,4.97,6.05,6.15c1.43,0.6,2.93,0.91,4.43,0.91c1.42,0,2.85-0.27,4.2-0.82c2.78-1.12,4.97-3.27,6.15-6.05
			c1.18-2.78,1.21-5.84,0.09-8.63l-33.23-82.29c3.47-1.81,6.86-3.75,10.17-5.8l35.27,88.02c2.19,5.47,2.11,11.48-0.23,16.94
			c-2.34,5.45-6.63,9.66-12.1,11.85c-5.46,2.19-11.48,2.11-16.93-0.23c-5.45-2.34-9.66-6.63-11.85-12.1l-34.66-86.65
			C748.34,520.42,751.56,519.4,754.75,518.28z M807.8,548.95c1.3,0.5,2.66,0.76,4.02,0.76c1.42,0,2.85-0.27,4.2-0.82
			c5.77-2.33,8.56-8.91,6.23-14.68l-18.06-44.27c1.83-1.55,3.62-3.14,5.38-4.77c0,0,0,0,0,0c1.4-1.3,2.78-2.63,4.14-3.99
			c0.16-0.16,0.32-0.31,0.48-0.47l21.32,53.27c4.54,11.33-0.99,24.25-12.33,28.79c-2.97,1.19-6.07,1.7-9.23,1.54L807.8,548.95z
			 M708.99,412.75l11.21,109.63c-2.16,0.24-4.33,0.44-6.51,0.59c-0.62,0.04-1.25,0.09-1.87,0.12c-0.69,0.04-1.38,0.07-2.08,0.1
			c-0.8,0.03-1.6,0.06-2.39,0.08c-0.58,0.02-1.15,0.03-1.73,0.04c-1.22,0.02-2.43,0.03-3.65,0.02c-0.18,0-0.35,0-0.53,0
			c-1.43-0.02-2.85-0.06-4.28-0.11c-0.4-0.02-0.8-0.04-1.2-0.06c-1.05-0.05-2.1-0.11-3.16-0.18c-0.46-0.03-0.92-0.06-1.38-0.1
			c-1.04-0.08-2.07-0.17-3.11-0.27c-0.42-0.04-0.84-0.08-1.26-0.12c-1.43-0.15-2.86-0.32-4.29-0.51c-1.81-0.24-3.6-0.52-5.4-0.82
			c-0.61-0.1-1.21-0.23-1.82-0.34c-1.18-0.22-2.36-0.43-3.53-0.67c-0.71-0.15-1.42-0.32-2.13-0.48c-1.06-0.23-2.12-0.46-3.17-0.72
			c-0.75-0.18-1.5-0.39-2.25-0.59c-1-0.26-2.01-0.51-3-0.8c-0.77-0.22-1.54-0.46-2.3-0.69c-0.97-0.29-1.94-0.57-2.9-0.88
			c-0.78-0.25-1.55-0.52-2.32-0.78c-0.94-0.32-1.89-0.63-2.82-0.97c-0.77-0.28-1.54-0.58-2.31-0.87c-0.92-0.35-1.85-0.7-2.76-1.06
			c-0.77-0.31-1.54-0.64-2.3-0.96c-0.67-0.28-1.34-0.56-2-0.86C650,470.36,674.38,434.95,708.99,412.75z M682.27,525.68
			c1.74,0.23,3.48,0.44,5.22,0.61c1.6,0.16,3.19,0.29,4.79,0.4c0.14,0.01,0.29,0.03,0.43,0.04c1.61,0.11,3.21,0.18,4.81,0.24
			c0.14,0.01,0.28,0.02,0.42,0.02c0.25,0.01,0.5,0.01,0.75,0.01c1.49,0.04,2.98,0.07,4.47,0.07c0.13,0,0.27-0.01,0.4-0.01
			c1.25,0,2.5-0.02,3.74-0.06c0.55-0.01,1.1-0.03,1.64-0.05c0.87-0.03,1.74-0.07,2.61-0.12c0.6-0.03,1.19-0.06,1.79-0.1
			c1.19-0.08,2.38-0.17,3.56-0.28c0.84-0.07,1.67-0.16,2.5-0.25c0.46-0.05,0.92-0.1,1.38-0.15c0.56-0.06,1.11-0.11,1.67-0.18
			c5.65-0.7,11.3-1.72,16.78-3.03c0.56-0.13,1.12-0.29,1.68-0.43v79.7h-38.78v-35.47c0-1.03-0.83-1.86-1.86-1.86
			c-1.03,0-1.86,0.83-1.86,1.86v35.47h-15.12v-53.26c0-1.03-0.83-1.86-1.86-1.86c-1.03,0-1.86,0.83-1.86,1.86v53.26H641.5v-87.66
			C654.49,520.01,668.18,523.8,682.27,525.68z M752.83,605.84v21.87h-84.4c2.07-7.11,3.19-14.45,3.33-21.87H752.83z M506.74,551.43
			l-13.82-53.26h16.14v103.96h-20.09v-48.37h15.97c0.58,0,1.12-0.27,1.47-0.72C506.77,552.58,506.89,551.99,506.74,551.43z
			 M528,605.84c0.23,8.58,2.22,16.83,5.97,24.54c0,0,0,0,0,0c0.02,0.03,0.05,0.06,0.07,0.09c0.02,0.05,0.03,0.1,0.06,0.15
			c10.16,20.63,30.74,33.45,53.71,33.45c22.97,0,43.55-12.82,53.71-33.45c0.02-0.05,0.04-0.1,0.05-0.15
			c0.02-0.03,0.05-0.05,0.06-0.09c0,0,0,0,0,0v0c0,0,0,0,0,0c3.75-7.71,5.74-15.96,5.97-24.54h20.43
			c-0.16,7.87-1.47,15.65-3.9,23.15c0,0,0,0,0,0.01c0,0,0,0,0,0.01c0,0,0,0,0,0.01v0c-0.01,0.03-0.01,0.06-0.02,0.09
			c-0.02,0.04-0.04,0.08-0.05,0.12c-10.83,33.05-41.47,55.25-76.26,55.25c-34.78,0-65.43-22.2-76.26-55.25
			c-0.01-0.04-0.04-0.08-0.05-0.12c-0.01-0.03-0.01-0.07-0.02-0.1c0,0,0,0,0-0.01c0,0,0,0,0-0.01c-2.43-7.5-3.74-15.28-3.9-23.15
			H528z M512.78,602.13V498.17h20.09v103.96H512.78z M538.85,631.66h97.92c-0.04,0.07-0.08,0.15-0.12,0.22
			c-0.55,0.97-1.12,1.91-1.71,2.84c-0.09,0.14-0.18,0.28-0.27,0.42c-0.61,0.92-1.24,1.83-1.89,2.71c-0.09,0.12-0.19,0.25-0.28,0.37
			c-0.67,0.88-1.36,1.75-2.08,2.59c-0.08,0.1-0.17,0.2-0.26,0.29c-0.74,0.85-1.5,1.68-2.28,2.49c-0.06,0.07-0.13,0.13-0.2,0.19
			c-0.82,0.83-1.65,1.63-2.51,2.4c-0.02,0.02-0.05,0.04-0.07,0.06c-0.87,0.78-1.76,1.52-2.68,2.24c-0.04,0.03-0.08,0.07-0.12,0.1
			c-0.9,0.7-1.82,1.37-2.76,2.01c-0.09,0.06-0.17,0.12-0.26,0.18c-0.91,0.62-1.84,1.2-2.79,1.76c-0.12,0.07-0.24,0.15-0.36,0.22
			c-0.93,0.54-1.88,1.06-2.84,1.54c-0.14,0.07-0.29,0.15-0.43,0.22c-0.95,0.47-1.92,0.92-2.91,1.34c-0.16,0.07-0.31,0.13-0.47,0.2
			c-0.98,0.41-1.98,0.79-2.99,1.14c-0.16,0.06-0.33,0.11-0.49,0.17c-1.01,0.34-2.04,0.66-3.08,0.95c-0.16,0.04-0.32,0.09-0.48,0.13
			c-1.05,0.28-2.11,0.53-3.18,0.75c-0.15,0.03-0.29,0.06-0.44,0.09c-1.09,0.22-2.2,0.4-3.31,0.56c-0.12,0.02-0.24,0.03-0.36,0.04
			c-1.15,0.15-2.3,0.27-3.47,0.35c-0.07,0-0.15,0.01-0.22,0.01c-1.22,0.08-2.44,0.12-3.67,0.12c-1.23,0-2.45-0.04-3.67-0.12
			c-0.07,0-0.15-0.01-0.22-0.01c-1.17-0.08-2.32-0.2-3.47-0.35c-0.12-0.02-0.24-0.03-0.35-0.04c-1.12-0.15-2.22-0.34-3.32-0.56
			c-0.14-0.03-0.29-0.05-0.43-0.08c-1.07-0.22-2.14-0.47-3.19-0.76c-0.16-0.04-0.31-0.08-0.47-0.13c-1.04-0.29-2.07-0.61-3.09-0.95
			c-0.16-0.05-0.32-0.11-0.48-0.16c-1.01-0.35-2.01-0.74-3-1.15c-0.15-0.06-0.31-0.13-0.46-0.19c-0.99-0.42-1.96-0.87-2.92-1.34
			c-0.14-0.07-0.28-0.14-0.42-0.21c-0.97-0.49-1.92-1-2.85-1.55c-0.12-0.07-0.23-0.14-0.35-0.21c-0.95-0.56-1.88-1.15-2.8-1.77
			c-0.09-0.06-0.17-0.12-0.25-0.18c-0.94-0.64-1.86-1.31-2.76-2.01c-0.04-0.03-0.08-0.06-0.11-0.09c-0.92-0.72-1.81-1.47-2.69-2.25
			c-0.02-0.02-0.05-0.04-0.07-0.06c-0.86-0.77-1.7-1.57-2.51-2.4c-0.06-0.07-0.13-0.13-0.2-0.19c-0.78-0.8-1.54-1.63-2.28-2.48
			c-0.09-0.1-0.17-0.2-0.26-0.3c-0.71-0.84-1.4-1.7-2.07-2.58c-0.1-0.13-0.19-0.25-0.29-0.38c-0.65-0.88-1.28-1.78-1.88-2.7
			c-0.09-0.14-0.19-0.29-0.28-0.43c-0.59-0.92-1.16-1.86-1.7-2.82C538.93,631.81,538.89,631.74,538.85,631.66z M643.9,605.84
			c-0.21,7.63-1.91,14.97-5.1,21.87H536.82c-3.19-6.9-4.89-14.24-5.1-21.87H643.9z M536.59,602.13V498.17h20.09v103.96H536.59z
			 M560.4,602.13V498.17h20.09v103.96H560.4z M604.29,602.13H584.2V498.17h20.09V602.13z M491.96,494.45l-5.67-21.86h129.9v21.86
			H491.96z M390.84,416.5c-12.5,14.48-19.39,33-19.42,52.15h-12.45c0.13-23.15,8.84-45.23,24.56-62.23
			c15.15-16.38,35.48-26.67,57.51-29.15l-3.27,12.61C419.59,393.02,402.97,402.44,390.84,416.5z M436.74,393.85l-19.41,74.81h-42.19
			c0.03-18.26,6.61-35.92,18.52-49.73C404.85,405.95,420.06,397.12,436.74,393.85z M393.75,498.17h15.92l-13.82,53.26
			c-0.14,0.56-0.02,1.15,0.33,1.6c0.35,0.45,0.89,0.72,1.47,0.72h16.2v248.95l-20.09-10.21V498.17z M400.05,550.04l13.82-53.26
			l6.64-25.58c0,0,0,0,0-0.01l0.05-0.21c0,0,0,0,0,0l20.5-79c0,0,0,0,0-0.01l4.24-16.34c0,0,0,0,0-0.01l5.99-23.08l5.97,23.02
			c0,0,0,0,0,0.01l24.76,95.41c0,0,0,0,0,0l0.05,0.21c0,0,0,0,0,0.01l6.64,25.58l13.82,53.26h-23.86c0-0.15-0.01-0.3-0.05-0.46
			l-25.53-98.39c-0.21-0.82-0.95-1.39-1.8-1.39c-0.85,0-1.59,0.57-1.8,1.39l-25.53,98.39c-0.04,0.15-0.05,0.31-0.05,0.46H400.05z
			 M485.26,553.76v48.37h-20.09v-48.37H485.26z M451.29,459.06l23.61,90.98h-47.22L451.29,459.06z M441.36,553.76h20.09v48.37
			h-20.09V553.76z M503.85,605.84c0.14,7.41,1.26,14.75,3.33,21.87h-72.14v-21.87H503.85z M508.45,631.66
			c0.11,0.33,0.24,0.65,0.36,0.98c0.19,0.52,0.37,1.04,0.57,1.55c0.2,0.53,0.42,1.06,0.63,1.59c0.21,0.51,0.41,1.01,0.62,1.51
			c0.22,0.52,0.46,1.04,0.69,1.56c0.22,0.5,0.45,0.99,0.68,1.48c0.24,0.51,0.49,1.02,0.75,1.52c0.24,0.48,0.48,0.97,0.73,1.45
			c0.26,0.5,0.53,0.99,0.8,1.48c0.26,0.47,0.52,0.95,0.79,1.41c0.28,0.48,0.57,0.96,0.85,1.44c0.28,0.46,0.55,0.92,0.84,1.37
			c0.3,0.47,0.6,0.93,0.91,1.4c0.29,0.45,0.59,0.89,0.89,1.34c0.31,0.46,0.63,0.91,0.96,1.36c0.31,0.43,0.62,0.87,0.94,1.3
			c0.33,0.44,0.67,0.88,1,1.31c0.33,0.42,0.65,0.84,0.98,1.26c0.34,0.43,0.7,0.85,1.05,1.27c0.34,0.41,0.68,0.82,1.03,1.22
			c0.36,0.41,0.73,0.82,1.1,1.22c0.36,0.39,0.71,0.79,1.08,1.18c0.37,0.4,0.76,0.79,1.14,1.18c0.37,0.38,0.74,0.76,1.12,1.13
			c0.39,0.38,0.79,0.75,1.18,1.13c0.39,0.36,0.77,0.73,1.16,1.09c0.4,0.37,0.81,0.72,1.22,1.08c0.4,0.35,0.79,0.7,1.2,1.04
			c0.42,0.35,0.84,0.69,1.27,1.03c0.41,0.33,0.82,0.67,1.23,0.99c0.43,0.34,0.87,0.66,1.31,0.99c0.42,0.32,0.84,0.64,1.27,0.94
			c0.44,0.32,0.89,0.62,1.34,0.93c0.43,0.3,0.87,0.6,1.31,0.89c0.45,0.3,0.92,0.59,1.38,0.88c0.45,0.28,0.89,0.57,1.34,0.84
			c0.47,0.28,0.94,0.55,1.41,0.83c0.46,0.27,0.91,0.53,1.37,0.79c0.48,0.27,0.97,0.52,1.45,0.78c0.46,0.25,0.92,0.5,1.39,0.74
			c0.49,0.25,0.99,0.49,1.49,0.73c0.47,0.23,0.94,0.46,1.41,0.68c0.51,0.23,1.02,0.45,1.53,0.67c0.48,0.21,0.95,0.42,1.44,0.62
			c0.52,0.21,1.04,0.41,1.57,0.62c0.48,0.19,0.96,0.38,1.45,0.56c0.53,0.2,1.07,0.38,1.61,0.56c0.49,0.17,0.97,0.34,1.46,0.5
			c0.54,0.18,1.09,0.34,1.64,0.5c0.49,0.15,0.98,0.31,1.48,0.45c0.56,0.16,1.12,0.3,1.68,0.44c0.49,0.13,0.98,0.27,1.48,0.39
			c0.58,0.14,1.16,0.26,1.75,0.39c0.49,0.11,0.97,0.22,1.46,0.32c0.6,0.12,1.2,0.22,1.8,0.33c0.48,0.09,0.96,0.18,1.45,0.26
			c0.62,0.1,1.25,0.18,1.88,0.26c0.47,0.06,0.93,0.14,1.4,0.19c0.66,0.08,1.33,0.14,1.99,0.2c0.44,0.04,0.88,0.1,1.33,0.13
			c0.74,0.06,1.48,0.09,2.22,0.13c0.38,0.02,0.75,0.05,1.12,0.07c1.12,0.04,2.25,0.07,3.38,0.07c1.13,0,2.26-0.02,3.38-0.07
			c0.38-0.02,0.75-0.05,1.13-0.07c0.74-0.04,1.48-0.07,2.22-0.13c0.45-0.04,0.89-0.09,1.34-0.13c0.66-0.06,1.33-0.12,1.98-0.2
			c0.47-0.06,0.94-0.13,1.42-0.2c0.62-0.09,1.25-0.16,1.87-0.26c0.49-0.08,0.98-0.17,1.47-0.26c0.59-0.11,1.19-0.2,1.78-0.32
			c0.5-0.1,0.99-0.22,1.48-0.32c0.57-0.13,1.15-0.24,1.72-0.38c0.5-0.12,1-0.26,1.5-0.39c0.55-0.14,1.11-0.28,1.66-0.44
			c0.5-0.14,1-0.3,1.5-0.45c0.54-0.16,1.08-0.32,1.62-0.5c0.5-0.16,0.99-0.34,1.49-0.51c0.53-0.18,1.06-0.36,1.58-0.55
			c0.5-0.18,0.98-0.38,1.48-0.57c0.51-0.2,1.03-0.4,1.54-0.61c0.49-0.2,0.97-0.42,1.46-0.63c0.5-0.22,1.01-0.43,1.5-0.66
			c0.48-0.22,0.96-0.46,1.44-0.69c0.49-0.24,0.98-0.47,1.47-0.71c0.48-0.24,0.94-0.5,1.42-0.75c0.48-0.25,0.96-0.5,1.43-0.77
			c0.47-0.26,0.93-0.53,1.39-0.8c0.47-0.27,0.93-0.54,1.39-0.82c0.46-0.28,0.91-0.57,1.36-0.86c0.45-0.29,0.91-0.57,1.36-0.87
			c0.45-0.3,0.88-0.6,1.32-0.91c0.44-0.31,0.89-0.61,1.32-0.92c0.43-0.31,0.86-0.63,1.29-0.95c0.43-0.32,0.87-0.64,1.29-0.97
			c0.42-0.33,0.83-0.67,1.25-1c0.42-0.34,0.84-0.67,1.25-1.02c0.41-0.35,0.81-0.7,1.22-1.06c0.4-0.35,0.81-0.7,1.21-1.07
			s0.78-0.73,1.17-1.1c0.39-0.37,0.78-0.74,1.17-1.12c0.38-0.38,0.76-0.76,1.13-1.14c0.38-0.39,0.76-0.77,1.13-1.16
			c0.37-0.39,0.73-0.79,1.09-1.19c0.36-0.4,0.73-0.8,1.09-1.21c0.35-0.4,0.7-0.82,1.04-1.23c0.35-0.42,0.7-0.83,1.04-1.26
			c0.34-0.42,0.66-0.84,0.99-1.27c0.33-0.43,0.67-0.86,1-1.3c0.32-0.43,0.63-0.87,0.94-1.3c0.32-0.45,0.64-0.9,0.95-1.35
			c0.3-0.44,0.6-0.89,0.89-1.34c0.3-0.46,0.61-0.92,0.9-1.39c0.29-0.46,0.56-0.92,0.84-1.38c0.29-0.47,0.57-0.95,0.85-1.43
			c0.27-0.47,0.53-0.94,0.79-1.42c0.27-0.49,0.54-0.98,0.8-1.47c0.25-0.48,0.49-0.96,0.74-1.45c0.25-0.5,0.5-1.01,0.74-1.52
			c0.23-0.49,0.46-0.98,0.68-1.48c0.23-0.52,0.46-1.03,0.69-1.56c0.21-0.5,0.42-1.01,0.62-1.51c0.21-0.53,0.43-1.06,0.63-1.59
			c0.2-0.51,0.38-1.03,0.57-1.55c0.12-0.33,0.25-0.65,0.36-0.98h12.39c-0.63,49.03-40.7,88.73-89.88,88.73
			c-36.31,0-68.86-21.63-82.92-55.1c-0.4-0.95-1.49-1.39-2.43-0.99c-0.95,0.4-1.39,1.49-0.99,2.43
			c14.65,34.86,48.54,57.38,86.35,57.38c51.23,0,92.96-41.37,93.6-92.45h15.25c-0.89,59.27-49.37,107.22-108.85,107.22
			c-23.99,0-46.74-7.65-65.79-22.12c-18.44-14.01-32.17-33.89-38.67-55.98c-0.29-0.99-1.32-1.55-2.31-1.26
			c-0.98,0.29-1.55,1.32-1.26,2.31c6.72,22.85,20.92,43.41,39.99,57.89c19.7,14.97,43.23,22.88,68.04,22.88
			c61.53,0,111.68-49.61,112.57-110.93h38.49c-1,83.4-69.16,150.95-152.8,150.95c-83.64,0-151.8-67.55-152.8-150.95H508.45z
			 M587.94,786.33c10.23,0,20.24-1,29.93-2.88l-16.34,63.32l-11.81-33.39c-0.26-0.75-0.97-1.19-1.77-1.24
			c-0.79,0.01-1.49,0.51-1.75,1.26l-11.62,34.44l-16.66-64.4C567.65,785.33,577.68,786.33,587.94,786.33z M599.87,853.21
			l-11.93,46.23l-11.65-45.02l11.72-34.73L599.87,853.21z M586.14,907.34c0.21,0.82,0.95,1.39,1.8,1.39c0.85,0,1.59-0.57,1.8-1.39
			l12.35-47.85l16.45,46.52c0.05,0.15,0.12,0.28,0.21,0.4c0.07,0.17,0.15,0.34,0.27,0.49l12.63,16.04l-30.72-1.03
			c-0.82-0.03-1.51,0.45-1.8,1.19l-10.85,28.06l-10.85-28.06c-0.28-0.74-1.03-1.25-1.8-1.19l-30.55,1.03l13.12-15.66
			c0.13-0.15,0.21-0.32,0.28-0.49c0.14-0.17,0.26-0.36,0.33-0.58l15.31-45.36L586.14,907.34z M146.5,651.43
			c0-27.84-22.65-50.49-50.49-50.49c-3.93,0-7.83,0.47-11.61,1.37c-0.34-3.28-0.64-6.56-0.91-9.84c4.1-0.87,8.29-1.31,12.53-1.31
			c33.24,0,60.28,27.04,60.28,60.28c0,28.48-19.85,52.39-46.44,58.66c-1.15-3.07-2.27-6.16-3.36-9.27
			C129.31,695.98,146.5,675.68,146.5,651.43z M105.26,697.28c-4.8-14.12-8.91-28.56-12.28-43.3c-3.64-15.94-6.33-31.95-8.15-47.96
			c0.09-0.02,0.18-0.05,0.27-0.07c0.3-0.07,0.6-0.15,0.9-0.21c0.36-0.08,0.72-0.15,1.08-0.22c0.3-0.06,0.59-0.12,0.89-0.17
			c0.37-0.07,0.75-0.12,1.12-0.17c0.29-0.04,0.57-0.09,0.86-0.13c0.4-0.05,0.8-0.09,1.2-0.13c0.27-0.03,0.54-0.06,0.81-0.09
			c0.45-0.04,0.89-0.06,1.34-0.09c0.23-0.01,0.45-0.03,0.67-0.04c0.67-0.03,1.35-0.04,2.03-0.04c25.79,0,46.77,20.98,46.77,46.77
			C142.78,674.06,126.63,692.98,105.26,697.28z M89.35,654.81c3.35,14.65,7.42,29.01,12.17,43.06c-1.81,0.21-3.65,0.34-5.52,0.34
			c-0.99,0-1.97-0.04-2.96-0.1c-0.32-0.02-0.65-0.06-0.97-0.09c-0.66-0.06-1.32-0.11-1.97-0.2c-0.39-0.05-0.77-0.12-1.16-0.18
			c-0.59-0.09-1.18-0.18-1.76-0.29c-0.41-0.08-0.83-0.17-1.24-0.27c-0.38-0.08-0.76-0.17-1.14-0.27c-0.57-1.77-1.11-3.54-1.66-5.32
			c-0.44-1.43-0.9-2.84-1.32-4.27c-0.62-2.1-1.21-4.2-1.8-6.31c-0.36-1.3-0.75-2.58-1.1-3.88c-0.65-2.39-1.26-4.79-1.87-7.19
			c-0.26-1.03-0.54-2.06-0.8-3.09c-1.7-6.88-3.23-13.81-4.6-20.77c-0.22-1.11-0.41-2.22-0.62-3.32c-0.45-2.37-0.9-4.75-1.31-7.13
			c-0.24-1.41-0.45-2.82-0.68-4.23c-0.34-2.09-0.69-4.17-1-6.26c-0.23-1.54-0.42-3.09-0.64-4.63c-0.25-1.8-0.5-3.59-0.73-5.39
			c0.14-0.11,0.27-0.22,0.41-0.33c0.26-0.21,0.53-0.41,0.79-0.61c0.27-0.21,0.55-0.41,0.83-0.61c0.27-0.19,0.54-0.38,0.81-0.57
			c0.28-0.19,0.57-0.38,0.86-0.57c0.27-0.18,0.55-0.36,0.83-0.53c0.29-0.18,0.59-0.36,0.88-0.53c0.28-0.17,0.56-0.33,0.85-0.5
			c0.3-0.17,0.6-0.33,0.91-0.5c0.29-0.15,0.57-0.31,0.86-0.46c0.31-0.16,0.62-0.31,0.93-0.46c0.29-0.14,0.58-0.28,0.87-0.42
			c0.32-0.15,0.64-0.28,0.96-0.42c0.29-0.13,0.59-0.26,0.88-0.38c0.32-0.13,0.65-0.26,0.98-0.38c0.3-0.11,0.59-0.23,0.89-0.34
			c0.33-0.12,0.65-0.23,0.98-0.33C83.04,623.01,85.73,638.95,89.35,654.81z M80.49,695.55c-0.06-0.02-0.12-0.04-0.19-0.06
			c-0.29-0.1-0.58-0.21-0.86-0.32c-0.3-0.12-0.61-0.23-0.91-0.35c-0.28-0.11-0.56-0.23-0.84-0.35c-0.3-0.13-0.6-0.25-0.89-0.39
			c-0.28-0.12-0.55-0.25-0.83-0.38c-0.29-0.14-0.58-0.28-0.87-0.42c-0.27-0.13-0.54-0.27-0.8-0.41c-0.28-0.15-0.57-0.3-0.85-0.46
			c-0.26-0.14-0.52-0.29-0.78-0.44c-0.28-0.16-0.55-0.32-0.83-0.49c-0.25-0.15-0.51-0.31-0.76-0.47c-0.27-0.17-0.54-0.35-0.81-0.53
			c-0.24-0.16-0.49-0.32-0.73-0.49c-0.27-0.19-0.53-0.37-0.8-0.57c-0.23-0.17-0.47-0.34-0.7-0.51c-0.26-0.2-0.52-0.4-0.78-0.6
			c-0.22-0.18-0.45-0.35-0.67-0.53c-0.26-0.21-0.51-0.43-0.77-0.64c-0.21-0.18-0.43-0.36-0.64-0.54c-0.26-0.23-0.51-0.46-0.76-0.69
			c-0.2-0.18-0.4-0.36-0.6-0.55c-0.26-0.25-0.51-0.5-0.76-0.75c-0.18-0.18-0.37-0.36-0.54-0.54c-0.27-0.28-0.54-0.57-0.81-0.86
			c-0.15-0.16-0.3-0.31-0.44-0.48c-0.39-0.44-0.78-0.88-1.15-1.33c-0.01-0.02-0.03-0.03-0.04-0.05c-0.39-0.47-0.77-0.95-1.14-1.43
			c-0.13-0.16-0.24-0.33-0.37-0.5c-0.24-0.32-0.48-0.65-0.72-0.98c-0.14-0.2-0.27-0.4-0.41-0.6c-0.21-0.3-0.42-0.61-0.62-0.92
			c-0.14-0.22-0.27-0.44-0.41-0.65c-0.19-0.3-0.38-0.6-0.56-0.9c-0.14-0.23-0.27-0.46-0.4-0.7c-0.17-0.3-0.34-0.6-0.51-0.9
			c-0.13-0.24-0.26-0.48-0.38-0.72c-0.16-0.3-0.31-0.6-0.46-0.91c-0.12-0.25-0.24-0.5-0.36-0.75c-0.14-0.3-0.29-0.61-0.42-0.92
			c-0.11-0.25-0.22-0.51-0.33-0.77c-0.13-0.31-0.26-0.62-0.39-0.93c-0.1-0.26-0.21-0.52-0.31-0.78c-0.12-0.31-0.24-0.63-0.35-0.95
			c-0.09-0.26-0.19-0.53-0.28-0.8c-0.11-0.32-0.21-0.64-0.31-0.97c-0.08-0.27-0.17-0.54-0.24-0.81c-0.1-0.33-0.19-0.66-0.27-0.99
			c-0.07-0.27-0.14-0.54-0.21-0.81c-0.08-0.34-0.16-0.67-0.24-1.01c-0.06-0.27-0.12-0.54-0.18-0.81c-0.07-0.34-0.13-0.69-0.2-1.04
			c-0.05-0.27-0.1-0.54-0.15-0.81c-0.06-0.36-0.11-0.72-0.16-1.08c-0.04-0.26-0.08-0.52-0.11-0.79c-0.05-0.38-0.08-0.76-0.12-1.14
			c-0.02-0.25-0.05-0.5-0.07-0.75c-0.03-0.42-0.06-0.84-0.08-1.27c-0.01-0.21-0.03-0.42-0.04-0.64c-0.03-0.64-0.04-1.28-0.04-1.92
			c0-0.83,0.02-1.66,0.07-2.48c0.01-0.27,0.04-0.54,0.06-0.81c0.04-0.55,0.08-1.1,0.14-1.65c0.03-0.32,0.08-0.64,0.12-0.96
			c0.06-0.49,0.13-0.99,0.2-1.48c0.05-0.34,0.12-0.67,0.18-1c0.09-0.47,0.17-0.94,0.27-1.4c0.07-0.34,0.15-0.68,0.23-1.02
			c0.11-0.45,0.22-0.91,0.34-1.36c0.09-0.34,0.19-0.67,0.29-1.01c0.13-0.45,0.27-0.89,0.41-1.33c0.11-0.33,0.22-0.66,0.33-0.99
			c0.16-0.44,0.32-0.88,0.49-1.32c0.12-0.32,0.25-0.64,0.38-0.96c0.18-0.44,0.38-0.88,0.57-1.32c0.13-0.3,0.27-0.6,0.41-0.9
			c0.22-0.46,0.45-0.91,0.68-1.36c0.14-0.27,0.27-0.54,0.41-0.81c0.27-0.51,0.56-1.01,0.86-1.51c0.12-0.2,0.23-0.4,0.35-0.6
			c0.42-0.69,0.86-1.38,1.32-2.05c0.04-0.06,0.09-0.12,0.13-0.19c0.42-0.61,0.85-1.2,1.29-1.79c0.16-0.21,0.33-0.42,0.5-0.63
			c0.34-0.43,0.68-0.86,1.03-1.28c0.2-0.24,0.42-0.47,0.62-0.71c0.33-0.38,0.67-0.76,1.01-1.12c0.23-0.24,0.47-0.48,0.7-0.72
			c0.22-0.23,0.45-0.45,0.68-0.67c0.18,1.37,0.39,2.73,0.58,4.1c0.2,1.45,0.4,2.9,0.62,4.34c0.31,2.07,0.65,4.14,0.99,6.21
			c0.22,1.36,0.44,2.73,0.67,4.09c0.39,2.27,0.82,4.53,1.25,6.79c0.22,1.15,0.42,2.31,0.65,3.46c0.66,3.34,1.35,6.67,2.09,9.99
			c0.04,0.19,0.08,0.37,0.12,0.55c0.73,3.27,1.49,6.53,2.29,9.77c0.28,1.15,0.59,2.3,0.88,3.45c0.56,2.21,1.13,4.43,1.72,6.63
			c0.36,1.34,0.75,2.68,1.13,4.02c0.56,2,1.12,4,1.71,5.99c0.42,1.42,0.86,2.83,1.29,4.24C79.7,692.95,80.08,694.26,80.49,695.55z
			 M929.11,733.87c-22.7,53.67-55.2,101.87-96.59,143.26c-41.39,41.39-89.59,73.89-143.26,96.59
			c-55.56,23.5-114.58,35.42-175.43,35.42c-94.36,0-184.72-28.85-261.3-83.44c-74.12-52.83-129.87-125.56-161.36-210.46
			c0.22,0.02,0.44,0.02,0.66,0.04c0.24,0.02,0.49,0.03,0.73,0.04c1.15,0.07,2.3,0.11,3.44,0.11c3.92,0,7.75-0.37,11.47-1.05
			c33.34,86.89,93.54,160.39,173.76,210.78c69.9,43.91,149,66.51,229.56,66.51c32.36,0,64.97-3.65,97.29-11.03
			c74.48-17.01,143.21-53.39,198.75-105.21c53.9-50.28,94.38-113.93,117.08-184.08c0.3-0.94-0.18-1.95-1.1-2.31
			c-0.92-0.35-1.96,0.07-2.36,0.97c-22.63,50.37-56.93,95.65-99.19,130.93c-44.31,37-95.52,62.32-152.2,75.27
			c-15.6,3.56-31.54,6.13-47.36,7.62l-17.96-50.79l18.18-70.44c69.51-15.45,121.76-77.25,122.52-151.18h10.24
			c1.03,0,1.86-0.83,1.86-1.86v-25.58c0-1.03-0.83-1.86-1.86-1.86h-10.05v-71.89l31.65,79.13c4.04,10.1,13.77,16.25,24.04,16.25
			c3.19,0,6.44-0.6,9.58-1.85c13.24-5.3,19.7-20.38,14.4-33.62l-8.87-22.12c3.11-0.06,6.22-0.66,9.12-1.82
			c13.24-5.3,19.7-20.38,14.4-33.62l-21.94-54.81c1.34-1.42,2.65-2.87,3.93-4.34c0.24-0.27,0.47-0.55,0.71-0.82
			c1.05-1.21,2.07-2.44,3.08-3.68c0.39-0.48,0.78-0.96,1.16-1.45c0.6-0.77,1.21-1.53,1.8-2.31c0.15-0.2,0.3-0.41,0.46-0.61
			l51.17,3.32l-32.76-34.85c0.02-0.04,0.04-0.08,0.05-0.12c0.08-0.19,0.16-0.38,0.24-0.57c1.36-3.17,2.62-6.39,3.77-9.67
			c0.08-0.22,0.16-0.44,0.23-0.66c0.56-1.61,1.09-3.23,1.6-4.86c0.05-0.16,0.09-0.31,0.14-0.47c0.47-1.54,0.92-3.08,1.35-4.64
			c0.05-0.2,0.11-0.39,0.16-0.59c0.43-1.59,0.83-3.2,1.21-4.82c0.08-0.33,0.15-0.67,0.23-1c0.37-1.64,0.73-3.28,1.06-4.93
			c0.04-0.19,0.04-0.39,0.01-0.57c0-0.03,0-0.06-0.01-0.09c-0.03-0.18-0.09-0.35-0.16-0.51c-0.01-0.03-0.03-0.06-0.05-0.08
			c-0.09-0.16-0.19-0.31-0.33-0.43c-0.01-0.01-0.03-0.02-0.04-0.03c-0.14-0.12-0.29-0.23-0.46-0.31c-0.01-0.01-0.02-0.02-0.03-0.02
			c-0.01-0.01-0.02-0.01-0.04-0.02c0,0-0.01,0-0.01-0.01c-13.75-6.17-28.34-10.31-43.37-12.33c-10.29-1.38-20.58-1.73-30.79-1.08
			l-19.74-114.33c-1.74-10.1-8.96-18.42-18.37-21.18c-2.73-0.8-5.57-1.17-8.44-1.08c-13.32,0.4-24.45,10.67-25.9,23.9
			c-0.11,1.05-0.17,2.09-0.17,3.13c-5.19-5.54-12.6-8.82-20.51-8.56c-13.32,0.4-24.46,10.67-25.91,23.9
			c-0.12,1.11-0.18,2.21-0.17,3.3c-4.71-4.88-11.39-8.04-18.93-8.72c-9.12-0.82-19.4,4.79-24.44,13.33
			c-4.44,7.52-4.08,15.83,1.03,23.39c18.38,27.24,69.81,98.12,70.33,98.83c0.16,0.22,0.36,0.39,0.59,0.51
			c-27.15,22.86-46.03,54.5-52.9,89.6c0,0,0,0.01,0,0.01c0,0.01-0.01,0.03-0.01,0.04c0,0.01,0,0.02,0,0.03
			c-0.03,0.19-0.04,0.38-0.01,0.56c0,0.01,0,0.03,0,0.04c0,0.01,0,0.02,0,0.03v90.17h-29.77V498.17h10.03
			c1.03,0,1.86-0.83,1.86-1.86v-25.58c0-1.03-0.83-1.86-1.86-1.86H607.8c-0.41-39.81-15.75-76.12-40.69-103.55
			c21.68-16.15,28.42-46.4,14.67-70.44l-0.92-1.61l-16.59,9.49l0.92,1.61c4.66,8.15,5.87,17.63,3.41,26.69
			c-2.36,8.68-7.84,15.98-15.47,20.68c-27.39-23.52-62.98-37.76-101.84-37.76c-15.37,0-30.22,2.24-44.26,6.38
			c-3.87-5.84-10.49-9.7-18-9.7c-11.9,0-21.58,9.68-21.58,21.58c0,1.96,0.29,3.85,0.78,5.66c-43.66,27.44-72.88,75.84-73.45,130.97
			h-10.24c-1.03,0-1.86,0.83-1.86,1.86v25.58c0,1.03,0.83,1.86,1.86,1.86h10.26v173.03l23.81,11.62v19.44l23.81,11.36v19.09
			l23.81,11.81v19.36l23.81,11.69v19.22l27.52,13.98V553.76h20.09v48.37h-4.46c-1.03,0-1.86,0.83-1.86,1.86v25.58
			c0,0.18,0.03,0.36,0.08,0.53c0.14,74.48,52.57,136.92,122.46,152.49l18.54,71.69l-16.79,49.74
			c-36.94-3.28-73.07-12.19-107.44-26.49c2.04-4.24,3.19-8.99,3.19-14c0-17.83-14.51-32.34-32.34-32.34
			c-12.02,0-22.52,6.6-28.1,16.36c-14.05-9.02-27.49-19.01-40.23-29.92c-59.7-51.09-100.53-118.71-118.07-195.54
			c-2.38-10.4-4.28-20.86-5.74-31.35c19.06-7.34,32.62-25.83,32.62-47.44c0-21.44-13.3-40.38-33.29-47.72
			c9.14-73.25,39.94-141.25,89.15-196.72c28.43-32.05,61.79-58.45,98.8-78.45c5.32,10.6,16.28,17.89,28.92,17.89
			c17.83,0,32.34-14.51,32.34-32.34c0-3.88-0.69-7.61-1.95-11.06c10.88-3.58,21.97-6.67,33.26-9.25
			c56.68-12.95,113.8-12.37,169.78,1.72c53.4,13.44,103.95,39.33,146.21,74.88c0.75,0.64,1.87,0.57,2.55-0.15
			c0.68-0.72,0.67-1.84-0.01-2.56c-50.9-53.33-115.01-93.09-185.4-114.98c-72.53-22.56-150.24-25.49-224.72-8.48
			c-112.79,25.76-208.8,93.91-270.34,191.89c-49.72,79.16-72.11,170.12-65.3,261.63c-0.02,0.01-0.04,0.01-0.06,0.02
			c-1.17,0.31-2.33,0.65-3.47,1.03c-0.12,0.04-0.25,0.09-0.37,0.13c-1.2,0.4-2.38,0.83-3.55,1.31c-0.01,0-0.02,0.01-0.03,0.01
			c-1.17,0.47-2.33,0.99-3.48,1.54c-0.12,0.06-0.25,0.12-0.38,0.18c-1.09,0.53-2.16,1.09-3.21,1.67c-0.1,0.06-0.21,0.1-0.31,0.16
			c-1-12.32-1.51-24.82-1.51-37.19c0-60.84,11.92-119.86,35.42-175.43c22.7-53.67,55.2-101.87,96.59-143.26
			s89.59-73.89,143.26-96.59c55.56-23.5,114.58-35.42,175.43-35.42s119.86,11.92,175.43,35.42c53.67,22.7,101.87,55.2,143.26,96.59
			s73.89,89.59,96.59,143.26c23.5,55.56,35.42,114.58,35.42,175.43C964.53,619.28,952.61,678.31,929.11,733.87z"/>
		<path class="st68" d="M293.8,849.12c8.41,0,15.24-6.84,15.24-15.25c0-8.41-6.84-15.25-15.24-15.25c-8.41,0-15.25,6.84-15.25,15.25
			C278.56,842.28,285.4,849.12,293.8,849.12z M293.8,822.35c6.36,0,11.53,5.17,11.53,11.53s-5.17,11.53-11.53,11.53
			c-6.36,0-11.53-5.17-11.53-11.53S287.45,822.35,293.8,822.35z"/>
		<path class="st68" d="M336.59,857.29c5.47,0,9.93-4.45,9.93-9.93s-4.45-9.93-9.93-9.93c-5.47,0-9.93,4.45-9.93,9.93
			S331.12,857.29,336.59,857.29z M336.59,841.15c3.42,0,6.21,2.79,6.21,6.21c0,3.42-2.79,6.21-6.21,6.21
			c-3.42,0-6.21-2.79-6.21-6.21C330.38,843.94,333.17,841.15,336.59,841.15z"/>
		<path class="st68" d="M324.97,896.06c6.98,0,12.65-5.68,12.65-12.65s-5.68-12.65-12.65-12.65s-12.65,5.68-12.65,12.65
			S317.99,896.06,324.97,896.06z M324.97,874.48c4.93,0,8.94,4.01,8.94,8.94s-4.01,8.94-8.94,8.94c-4.93,0-8.94-4.01-8.94-8.94
			S320.04,874.48,324.97,874.48z"/>
		<path class="st68" d="M260.75,271.59c-4.07,0-7.9,1.59-10.78,4.47c-2.88,2.88-4.47,6.71-4.47,10.78c0,4.07,1.59,7.9,4.47,10.78
			c2.97,2.97,6.88,4.46,10.78,4.46s7.81-1.49,10.78-4.46c2.88-2.88,4.47-6.71,4.47-10.78c0-4.07-1.59-7.9-4.47-10.78
			C268.65,273.18,264.82,271.59,260.75,271.59z M268.9,294.99c-4.49,4.49-11.81,4.49-16.3,0c-4.49-4.49-4.49-11.81,0-16.3
			c2.18-2.18,5.07-3.38,8.15-3.38s5.97,1.2,8.15,3.38C273.39,283.18,273.39,290.5,268.9,294.99z"/>
		<path class="st68" d="M212.39,342.88c-3.87,3.87-3.87,10.17,0,14.04h0c1.94,1.93,4.48,2.9,7.02,2.9c2.54,0,5.08-0.97,7.02-2.9
			c3.87-3.87,3.87-10.17,0-14.04C222.55,339.01,216.26,339.01,212.39,342.88z M223.8,354.3c-2.42,2.42-6.36,2.42-8.78,0
			c-2.42-2.42-2.42-6.36,0-8.78c2.42-2.42,6.36-2.42,8.78,0C226.22,347.93,226.22,351.87,223.8,354.3z"/>
		<path class="st68" d="M214.82,299.79c-2.39-2.39-5.57-3.71-8.95-3.71c-3.38,0-6.56,1.32-8.95,3.71c-4.93,4.93-4.93,12.96,0,17.89
			c2.39,2.39,5.57,3.71,8.95,3.71c3.38,0,6.56-1.32,8.95-3.71C219.75,312.75,219.75,304.72,214.82,299.79z M212.19,315.05
			c-1.69,1.69-3.93,2.62-6.32,2.62c-2.39,0-4.63-0.93-6.32-2.62c-3.48-3.48-3.48-9.15,0-12.64c1.69-1.69,3.93-2.62,6.32-2.62
			c2.39,0,4.63,0.93,6.32,2.62C215.67,305.9,215.67,311.57,212.19,315.05z"/>
		<path class="st68" d="M133.28,442.64c-4.93,4.93-4.93,12.96,0,17.89c2.39,2.39,5.57,3.71,8.95,3.71c3.38,0,6.56-1.32,8.95-3.71
			c4.93-4.93,4.93-12.96,0-17.89C146.24,437.71,138.22,437.7,133.28,442.64z M148.55,457.9c-1.69,1.69-3.93,2.62-6.32,2.62
			s-4.63-0.93-6.32-2.62c-3.48-3.48-3.48-9.15,0-12.64c1.74-1.74,4.03-2.61,6.32-2.61s4.58,0.87,6.32,2.61
			C152.03,448.75,152.03,454.42,148.55,457.9z"/>
		<path class="st68" d="M210.6,705.63c3.24,0,6.48-1.23,8.95-3.7c4.93-4.93,4.93-12.96,0-17.89s-12.96-4.93-17.89,0
			c-4.93,4.93-4.93,12.96,0,17.89C204.12,704.4,207.36,705.63,210.6,705.63z M204.28,686.67c1.74-1.74,4.03-2.61,6.32-2.61
			c2.29,0,4.58,0.87,6.32,2.61c3.48,3.48,3.48,9.15,0,12.64c-3.48,3.48-9.15,3.48-12.64,0C200.8,695.82,200.8,690.15,204.28,686.67z
			"/>
		<path class="st68" d="M689.05,302.38c5.47,0,9.91-4.45,9.91-9.91s-4.45-9.91-9.91-9.91c-5.47,0-9.91,4.45-9.91,9.91
			S683.58,302.38,689.05,302.38z M689.05,286.27c3.42,0,6.19,2.78,6.19,6.2s-2.78,6.2-6.19,6.2c-3.42,0-6.2-2.78-6.2-6.2
			S685.63,286.27,689.05,286.27z"/>
		<path class="st68" d="M735.44,283.54c0.14,0,0.27-0.02,0.41-0.02l11.5,60.92c0.17,0.89,0.95,1.51,1.82,1.51
			c0.11,0,0.23-0.01,0.35-0.03c1.01-0.19,1.67-1.16,1.48-2.17l-11.53-61.07c3.46-1.55,5.88-5.02,5.88-9.05
			c0-5.47-4.45-9.91-9.91-9.91s-9.91,4.45-9.91,9.91C725.53,279.1,729.97,283.54,735.44,283.54z M735.44,267.43
			c3.42,0,6.2,2.78,6.2,6.2s-2.78,6.2-6.2,6.2s-6.2-2.78-6.2-6.2S732.02,267.43,735.44,267.43z"/>
		<polygon class="st68" points="70.78,364.14 25.28,341.45 65.78,335.75 65.93,335.45 46.1,299.68 91.61,322.37 93.55,318.48 
			41.15,292.36 39.33,296.02 59.83,332.51 18.35,338.09 16.52,341.75 68.92,367.88 		"/>
		<path class="st68" d="M98.95,256.32l0.13,0.11c12.35,10.14,30.65,10.12,41.9-3.58c11.25-13.7,7.68-31.89-4.67-42.03l-0.13-0.11
			c-12.35-10.13-30.65-10.12-41.9,3.58C83.03,228,86.6,246.18,98.95,256.32z M97.21,216.92c9.18-11.18,25.05-11.79,36.23-2.61
			l0.13,0.11c11.18,9.18,13.65,24.62,4.47,35.81c-9.18,11.18-25.05,11.79-36.23,2.61l-0.13-0.11
			C90.5,243.54,88.03,228.1,97.21,216.92z"/>
		<path class="st68" d="M176.39,172c9.81,12.61,27.66,16.62,41.65,5.74c13.99-10.89,14.52-29.41,4.71-42.02l-0.1-0.13
			c-9.81-12.61-27.66-16.62-41.65-5.74c-13.99,10.89-14.52,29.41-4.71,42.02L176.39,172z M183.28,133.05
			c11.42-8.88,27.02-5.98,35.91,5.44l0.1,0.13c8.88,11.42,7.89,27.02-3.53,35.91c-11.42,8.88-27.02,5.98-35.91-5.44l-0.1-0.13
			C170.87,157.54,171.86,141.94,183.28,133.05z"/>
		<polygon class="st68" points="289.07,130.23 266.8,83.22 326.33,112.57 329.27,111.18 304.21,58.28 300.43,60.07 322.24,106.09 
			263.93,77.37 260.23,79.12 285.29,132.02 		"/>
		<path class="st68" d="M448.64,79.4l-2.38-24.13l19.06-1.88l20.94,22.3l5.49-0.54l-21.68-22.98c9.69-2.3,16.38-8.59,15.42-18.33
			l-0.02-0.17c-0.41-4.16-2.46-7.91-5.48-10.38c-3.84-3.15-9.8-4.83-16.96-4.12l-24.47,2.42l5.76,58.25L448.64,79.4z M463.17,23.17
			c10.57-1.05,17.21,3.26,17.99,11.08l0.02,0.17c0.83,8.41-5.92,14.03-15.66,14.99l-19.64,1.94l-2.59-26.21L463.17,23.17z"/>
		<path class="st68" d="M568.44,79.41c17.61,1.99,30.93-10.9,32.72-26.77l0.02-0.17c1.79-15.87-8.17-31.22-25.79-33.2
			c-17.61-1.99-30.93,10.9-32.72,26.77l-0.02,0.17C540.86,62.07,550.83,77.42,568.44,79.41z M547.16,46.54l0.02-0.17
			c1.62-14.38,13.24-24.84,27.61-23.22c14.37,1.62,23.51,14.6,21.89,28.98l-0.02,0.17c-1.62,14.37-13.24,24.84-27.61,23.22
			C554.67,73.9,545.53,60.92,547.16,46.54z"/>
		<path class="st68" d="M673.27,103.33c16.73,5.86,32.59-3.73,37.87-18.8l0.05-0.16c5.28-15.07-1.01-32.25-17.74-38.12
			c-16.73-5.86-32.58,3.73-37.87,18.8l-0.06,0.16C650.25,80.29,656.54,97.47,673.27,103.33z M659.85,66.55l0.05-0.16
			c4.79-13.65,18.44-21.27,32.09-16.48c13.65,4.78,19.67,19.48,14.88,33.13l-0.06,0.16c-4.78,13.65-18.44,21.27-32.09,16.49
			C661.08,94.89,655.06,80.2,659.85,66.55z"/>
		<path class="st68" d="M764.45,146.33c9.66,5.84,19.98,4.45,24.86-3.63l0.09-0.14c4.41-7.3,2.05-14.39-8.11-23.76
			c-10.41-9.61-11.18-14.48-7.98-19.77l0.09-0.14c3.16-5.22,10.57-6.5,17.95-2.05c5.51,3.33,9.28,7.76,11.54,14.69l4.13-1.51
			c-2.61-7.15-6.2-12.05-13.5-16.46c-9.3-5.62-19.56-4.01-24.06,3.43l-0.09,0.14c-4.58,7.59-2.18,14.61,8.37,24.31
			c9.99,9.17,10.92,13.93,7.72,19.23l-0.09,0.14c-3.46,5.72-11.16,6.83-18.68,2.29c-7.37-4.45-11.02-9.89-13.46-18.3l-4.12,1.32
			C751.89,135.11,756.44,141.48,764.45,146.33z"/>
		<polygon class="st68" points="837.72,199.99 874.11,159.38 889.3,173 891.98,170.01 858.35,139.88 855.67,142.86 870.87,156.48 
			834.48,197.08 		"/>
		<polygon class="st68" points="912.76,284.93 915.96,282.5 893.16,252.45 911.89,238.25 932.15,264.97 935.35,262.54 
			915.08,235.83 933.4,221.93 955.94,251.65 959.14,249.22 933.97,216.04 887.34,251.42 		"/>
		<path class="st68" d="M1003.07,325.73l-10.7-22.13l-52.7,25.48l1.89,3.91l21.83-10.55l8.33,17.24l-13.72,27.34l2.4,4.97
			l14.1-28.27c5.5,8.3,13.71,12.41,22.52,8.15l0.15-0.07c3.76-1.82,6.57-5.04,7.86-8.72
			C1006.68,338.38,1006.2,332.21,1003.07,325.73z M995.14,347.95l-0.15,0.07c-7.6,3.68-15.21-0.73-19.47-9.53l-8.59-17.77
			l23.71-11.46l8.7,17.99C1003.97,336.81,1002.22,344.53,995.14,347.95z"/>
	</g>
</g>
</svg>
