<?xml version="1.0" standalone="no"?>
<!DOCTYPE svg PUBLIC "-//W3C//DTD SVG 20010904//EN"
 "http://www.w3.org/TR/2001/REC-SVG-20010904/DTD/svg10.dtd">
<svg version="1.0" xmlns="http://www.w3.org/2000/svg"
 width="40" height="36" viewBox="0 0 679.000000 349.000000"
 preserveAspectRatio="xMidYMid meet">

<g transform="translate(0.000000,349.000000) scale(0.100000,-0.100000)"
fill="#000000" stroke="none">
<path d="M191 3478 c-84 -24 -160 -104 -181 -190 -7 -30 -10 -513 -8 -1568 3
-1493 3 -1526 23 -1565 25 -50 80 -105 130 -130 40 -20 78 -20 3240 -20 3162
0 3200 0 3240 20 50 25 105 80 130 130 20 39 20 69 20 1590 0 1521 0 1551 -20
1590 -25 50 -80 105 -130 130 -40 20 -80 20 -3225 22 -2072 1 -3197 -2 -3219
-9z m6440 -56 c39 -20 62 -41 84 -77 l30 -48 0 -1552 0 -1552 -30 -48 c-22
-36 -45 -57 -84 -77 l-53 -28 -3183 0 -3183 0 -53 28 c-39 20 -62 41 -84 77
l-30 48 0 1552 0 1552 30 48 c22 36 45 57 84 77 l53 28 3183 0 3183 0 53 -28z"/>
<path d="M3676 3350 c-39 -12 -85 -57 -107 -105 -18 -38 -19 -100 -19 -1495 0
-1400 1 -1457 19 -1496 10 -23 36 -54 57 -70 l37 -29 1406 -3 c773 -1 1420 0
1438 3 42 7 89 47 113 96 20 37 20 69 20 1500 0 1451 0 1463 -20 1505 -12 24
-39 54 -62 70 l-41 29 -1406 2 c-779 1 -1419 -2 -1435 -7z m2844 -48 c19 -9
45 -32 57 -51 l23 -34 0 -1459 c0 -1619 5 -1507 -64 -1549 -30 -18 -79 -19
-1443 -19 l-1412 0 -34 30 c-19 16 -40 42 -46 57 -8 21 -11 415 -9 1490 3
1460 3 1462 24 1490 11 15 36 36 55 45 32 17 120 18 1424 18 1303 0 1392 -1
1425 -18z"/>
<path d="M4310 3038 c-57 -30 -100 -84 -107 -137 -12 -91 62 -193 152 -206
116 -18 227 88 211 199 -21 134 -142 202 -256 144z"/>
<path d="M4205 2654 c-58 -9 -140 -36 -166 -55 -30 -21 -63 -85 -74 -144 -4
-22 -10 -165 -14 -317 -6 -273 -6 -277 -31 -310 -17 -23 -25 -49 -28 -90 l-4
-57 -82 -3 -81 -3 -3 -302 -2 -303 147 0 c82 0 178 -3 214 -6 l66 -7 7 -99 c3
-54 12 -114 20 -132 24 -58 100 -66 137 -16 30 41 40 145 48 511 5 198 13 355
19 365 16 28 21 -50 30 -466 9 -403 13 -430 63 -443 35 -9 79 4 95 29 25 37
33 220 40 887 4 354 11 630 16 633 5 3 12 4 14 1 3 -3 7 -108 8 -234 3 -224
14 -319 39 -335 22 -14 64 -8 80 10 23 26 34 92 47 288 15 220 3 350 -41 470
-22 58 -55 81 -154 109 -59 16 -341 29 -410 19z m-55 -619 c0 -308 0 -315 -20
-315 -20 0 -20 7 -20 315 0 308 0 315 20 315 20 0 20 -7 20 -315z m-90 -325
l0 -41 -57 3 -58 3 -3 38 -3 37 60 0 61 0 0 -40z"/>
<path d="M6107 2575 c-78 -27 -121 -95 -121 -190 0 -95 52 -174 138 -210 54
-23 98 -13 142 32 51 51 78 115 70 166 -24 146 -128 238 -229 202z"/>
<path d="M6092 2093 c-18 -9 -41 -27 -52 -40 -38 -48 -76 -183 -52 -183 4 0
32 27 61 61 29 33 64 65 78 70 30 11 84 -10 107 -42 40 -58 9 -124 -158 -328
l-106 -129 0 -94 0 -93 -157 -29 c-87 -15 -176 -36 -198 -47 -53 -25 -86 -77
-119 -191 -81 -283 -155 -547 -160 -574 -6 -27 -3 -35 24 -58 67 -56 132 -19
174 99 19 53 134 405 161 491 4 13 67 21 274 34 248 16 306 35 344 112 34 69
-5 154 -80 179 -34 11 -112 9 -218 -6 -36 -5 -38 -4 -15 6 14 7 73 13 135 13
96 1 115 -2 147 -21 l36 -21 6 71 c21 271 26 355 26 469 0 136 -11 179 -57
220 -51 46 -142 60 -201 31z"/>
<path d="M6135 1990 c-37 -14 -188 -187 -282 -323 -30 -44 -37 -47 -130 -76
-54 -16 -147 -44 -208 -60 -66 -18 -115 -38 -123 -48 -20 -28 -10 -56 28 -76
30 -16 53 -18 165 -14 145 5 252 26 307 60 53 32 266 284 324 383 31 52 28 98
-9 131 -29 26 -47 32 -72 23z"/>
<path d="M6397 1643 c-4 -186 -7 -409 -7 -495 l0 -158 -315 0 -315 0 2 -297 3
-298 40 0 40 0 -3 238 -3 237 276 0 275 0 0 -241 0 -240 33 3 32 3 3 793 2
792 -28 0 -29 0 -6 -337z"/>
<path d="M4760 1325 l0 -35 120 0 120 0 0 -450 0 -450 50 0 50 0 0 450 0 450
300 0 300 0 0 35 0 35 -470 0 -470 0 0 -35z"/>
<path d="M382 2268 l3 -53 88 -3 87 -3 0 -249 0 -250 60 0 60 0 0 250 0 249
88 3 87 3 3 53 3 52 -241 0 -241 0 3 -52z"/>
<path d="M940 2015 l0 -305 55 0 55 0 0 128 c0 142 10 194 43 217 31 22 80 19
103 -6 17 -18 19 -40 22 -180 l3 -159 55 0 54 0 0 173 c0 144 -3 178 -18 206
-42 82 -164 94 -244 23 -17 -14 -18 -9 -18 96 l0 112 -55 0 -55 0 0 -305z"/>
<path d="M1534 2141 c-75 -34 -114 -109 -114 -220 0 -73 22 -132 61 -168 84
-77 237 -67 303 19 40 54 38 58 -46 73 -21 3 -38 2 -38 -3 0 -4 -9 -18 -20
-30 -46 -49 -140 -9 -140 59 l0 29 141 0 142 0 -6 58 c-5 62 -32 125 -65 155
-51 46 -150 59 -218 28z m140 -93 c14 -13 28 -35 32 -50 l6 -28 -86 0 c-85 0
-86 0 -86 25 0 36 42 75 79 75 17 0 41 -10 55 -22z"/>
<path d="M654 1420 c-157 -51 -244 -213 -232 -428 9 -143 58 -243 151 -306 65
-44 122 -59 217 -59 240 2 381 194 349 478 -16 142 -93 257 -206 307 -69 31
-199 34 -279 8z m209 -134 c73 -31 116 -107 124 -220 7 -85 -16 -184 -52 -232
-31 -40 -100 -74 -151 -74 -85 1 -170 68 -194 156 -8 26 -11 81 -8 141 6 130
33 186 113 227 37 20 125 21 168 2z"/>
<path d="M1361 1423 c-56 -29 -75 -64 -79 -143 l-4 -70 -39 0 -39 0 0 -60 0
-60 40 0 40 0 0 -225 0 -225 70 0 70 0 0 225 0 225 55 0 55 0 0 60 0 60 -56 0
-57 0 6 46 c6 55 17 64 79 64 l47 0 7 46 c4 28 2 50 -4 56 -6 6 -44 13 -84 15
-57 3 -80 0 -107 -14z"/>
<path d="M1711 1423 c-56 -29 -75 -64 -79 -143 l-4 -70 -39 0 -39 0 0 -60 0
-60 40 0 40 0 0 -225 0 -225 70 0 70 0 0 225 0 225 55 0 55 0 0 60 0 60 -56 0
-57 0 6 46 c6 55 17 64 79 64 l47 0 7 46 c4 28 2 50 -4 56 -6 6 -44 13 -84 15
-57 3 -80 0 -107 -14z"/>
<path d="M1960 1360 l0 -70 70 0 70 0 0 70 0 70 -70 0 -70 0 0 -70z"/>
<path d="M2361 1194 c-98 -49 -147 -154 -139 -293 11 -177 102 -273 258 -272
86 0 140 22 188 76 34 39 68 112 57 123 -2 2 -33 10 -69 16 l-65 13 -6 -28
c-10 -43 -52 -79 -92 -79 -83 0 -123 58 -123 181 0 117 36 169 115 169 44 0
78 -23 90 -61 6 -19 12 -20 63 -14 64 8 82 14 82 26 0 23 -42 88 -74 117 -68
59 -194 71 -285 26z"/>
<path d="M2945 1200 c-22 -10 -47 -25 -55 -32 -122 -103 -131 -365 -17 -476
46 -44 98 -63 176 -63 107 -1 179 39 222 124 22 42 24 41 -61 56 -47 9 -56 8
-65 -6 -37 -62 -87 -78 -144 -48 -30 15 -61 68 -61 104 0 21 4 21 180 21 l180
0 0 28 c0 49 -21 145 -40 182 -25 48 -67 89 -115 111 -54 25 -148 25 -200 -1z
m163 -116 c25 -17 42 -52 42 -90 0 -24 0 -24 -106 -24 l-106 0 6 33 c18 90 93
127 164 81z"/>
<path d="M1960 925 l0 -285 70 0 70 0 0 285 0 285 -70 0 -70 0 0 -285z"/>
</g>
</svg>
