<?xml version="1.0" encoding="UTF-8" standalone="no"?>
<svg
   xmlns="http://www.w3.org/2000/svg"
   width="36"
   height="40"
   viewBox="0 10 210 297"
   version="1.1"
   >
  <defs
     id="defs848" />
    <path
       style="fill:#7761b3;fill-opacity:1;stroke-width:0.553548"
       d="m 187.23293,147.78385 c -0.2966,-1.13766 -0.8552,-3.68758 -1.2412,-5.66653 -0.3944,-2.0224 -1.2906,-4.39185 -2.0469,-5.4106 -1.7089,-2.30312 -10.1801,-7.57415 -15.5854,-9.69812 -5.5037,-2.16259 -14.5308,-2.63699 -23.2492,-1.22176 -3.1968,0.51887 -7.4478,1.14715 -9.4465,1.39612 -3.8309,0.47721 -18.1262,4.9067 -21.7445,6.7378 -2.6513,1.34168 -3.2307,0.90403 -1.2425,-0.93858 1.075,-0.99634 1.4567,-1.83052 1.3322,-2.91166 -0.2274,-1.97514 -2.0457,-2.26539 -4.5388,-0.72459 -1.0205,0.63074 -2.3724,1.14679 -3.0042,1.14679 -1.6791,0 -2.9204,2.01551 -2.2795,3.70128 0.7433,1.95487 0.6448,2.38778 -0.5437,2.38778 -2.3926,0 -15.083901,6.06121 -19.0833,9.114 -1.439,1.09844 -3.2907,2.13201 -4.1148,2.29685 l -1.498399,0.29969 -0.101502,-4.16859 c -0.062,-2.57545 -0.413899,-4.65452 -0.919099,-5.44012 -0.5792,-0.90072 -0.919599,-3.68964 -1.1669,-9.56448 -0.2555,-6.06237 -0.5646,-8.53085 -1.149601,-9.1772 -0.9631,-1.06416 -1.0535,-5.10297 -0.151699,-6.78413 0.608801,-1.13528 0.672899,-6.46091 0.2565,-21.299938 -0.091,-3.22389 0.085,-4.76909 0.5901,-5.18813 0.839899,-0.69705 0.9807,-1.79533 0.1656,-1.29157 -1.0376,0.64125 -0.557501,-0.65526 0.634299,-1.71325 0.854501,-0.75843 1.255901,-0.86024 1.4301,-0.36259 0.133,0.38058 0.5008,0.69194 0.8173,0.69194 0.380399,0 0.3688,-0.24868 -0.035,-0.73475 -0.4696,-0.56573 -0.198601,-1.04328 1.177701,-2.07581 1.544299,-1.15859 4.517499,-2.72495 5.172401,-2.72495 0.117099,0 0.213198,0.87186 0.213198,1.93744 0,2.19731 0.499502,2.41927 1.9177,0.85214 0.654,-0.72265 0.898501,-1.65557 0.7316,-2.79212 -0.2705,-1.84306 -0.083,-2.07224 2.232202,-2.73637 1.280199,-0.36716 1.524,-0.26945 1.524,0.61108 0,0.61275 -0.288401,0.93753 -0.694002,0.78187 -0.381799,-0.14647 -0.842299,-0.0265 -1.0237,0.26697 -0.8011,1.29632 1.600801,1.09132 3.621601,-0.30912 1.204799,-0.83492 2.798001,-1.51802 3.540501,-1.51802 0.959498,0 1.445599,-0.38036 1.680099,-1.31469 0.379701,-1.51312 2.7478,-1.86311 3.2768,-0.48437 0.414,1.07897 2.014,1.07897 2.014,0 0,-0.45667 0.4235,-0.83031 0.941,-0.83031 0.732,0 0.7935,0.1475 0.2768,0.66426 -0.8932,0.89334 -0.8709,3.37095 0.028,3.07499 0.3806,-0.12531 0.7715,-0.76883 0.8687,-1.43002 0.097,-0.66117 0.5334,-1.20214 0.9689,-1.20214 0.4354,0 0.7917,-0.2491 0.7917,-0.55353 0,-0.33589 2.2313,-0.53639 5.674,-0.50988 3.1206,0.0241 5.3626,0.16925 4.982,0.32292 -1.5247,0.61521 -0.5782,1.3276 1.3838,1.04154 1.1417,-0.16653 1.7646,-0.15714 1.3839,0.0209 -0.3804,0.17804 -0.6918,0.58036 -0.6918,0.894 0,0.90366 5.114,-0.0778 5.8816,-1.12882 0.5578,-0.76356 1.7234,-0.91377 6.9431,-0.89482 5.7416,0.0209 6.6712,0.17698 10.9779,1.84452 l 4.7053,1.82176 8.58,-0.21119 c 8.5205,-0.20971 8.6044,-0.22421 12.0788,-2.08783 3.4849,-1.86949 3.5052,-1.87291 5.2585,-0.89559 2.1361,1.19052 6.3839,6.18559 6.8546,8.06019 0.1877,0.74718 -0.2311,3.73634 -0.9305,6.64265 -2.0279,8.42624 -2.0329,9.43954 -0.067,13.475818 0.9434,1.93624 1.7151,3.78047 1.7151,4.09826 0,0.31779 0.4853,1.67484 1.0782,3.01567 1.8564,4.19674 3.9355,15.094 3.775,19.78628 -0.1648,4.81441 0.8863,12.37213 2.137,15.3652 0.9416,2.25367 0.4814,3.83738 -1.4687,5.05534 -0.945,0.59007 -1.1105,0.44373 -1.594,-1.41004 z M 91.304831,134.25686 c 0.805799,-0.80576 0.884899,-1.75154 0.106098,-1.27029 -0.599599,0.37055 -1.696998,-1.9273 -1.267799,-2.65443 0.142,-0.24056 -0.368001,-0.28019 -1.133401,-0.0881 -1.208198,0.30322 -1.3517,0.19667 -1.0889,-0.80811 0.173601,-0.66387 0.04,-1.15745 -0.3155,-1.15745 -0.34,0 -0.618098,0.62894 -0.618098,1.39761 0,0.98139 0.412099,1.55424 1.3839,1.92371 0.971698,0.36949 1.3838,0.94234 1.3838,1.92378 0,1.52366 0.515699,1.76763 1.5499,0.73327 z m 89.791499,-2.37415 c -0.3764,-0.45334 -0.9092,-0.68525 -1.184,-0.51533 -0.7067,0.43669 -0.031,1.33956 1.0024,1.33956 0.7039,0 0.7377,-0.15399 0.1816,-0.82423 z m -88.0201,-0.83643 c 0,-0.30446 -0.1099,-0.55356 -0.243999,-0.55356 -0.1344,0 -0.398201,0.2491 -0.586301,0.55356 -0.188,0.30443 -0.078,0.55353 0.243999,0.55353 0.322501,0 0.586301,-0.2491 0.586301,-0.55353 z m 85.8972,-1.83473 c -1.4046,-1.49505 -1.513,-2.04015 -0.4058,-2.04015 0.8908,0 1.7018,-1.00631 1.2084,-1.4996 -0.1753,-0.17534 -0.7063,0 -1.18,0.39597 -0.6769,0.56179 -1.3156,0.5787 -2.9836,0.0789 -1.1677,-0.34975 -3.0902,-0.63037 -4.2726,-0.62362 l -2.1501,0.0127 1.384,1.11059 c 0.7611,0.61079 1.8819,1.38879 2.491,1.72886 1.0661,0.59553 1.0712,0.57804 0.1382,-0.4745 -0.5328,-0.60105 -0.9687,-1.23674 -0.9687,-1.41261 0,-0.7973 3.9874,1.0173 5.3416,2.43091 0.8295,0.86577 1.7541,1.57411 2.0546,1.57411 0.3006,0 0,-0.57652 -0.657,-1.28116 z m -85.3437,-0.37949 c 0,-0.30448 -0.248999,-0.55356 -0.5535,-0.55356 -0.304401,0 -0.553501,0.24908 -0.553501,0.55356 0,0.30446 0.2491,0.55356 0.553501,0.55356 0.304501,0 0.5535,-0.2491 0.5535,-0.55356 z m -4.9819,-2.491 c 0,-0.45667 -0.2491,-0.83034 -0.553601,-0.83034 -0.304398,0 -0.553599,0.37367 -0.553599,0.83034 0,0.4567 0.249201,0.83034 0.553599,0.83034 0.304501,0 0.553601,-0.37364 0.553601,-0.83034 z m 6.241301,-0.24532 c 0.4005,-1.53157 -1.205101,-2.80268 -2.781702,-2.20221 -0.684898,0.26096 -1.245399,0.85611 -1.245399,1.3226 0,0.95456 0.862499,1.13819 1.3839,0.29459 0.1881,-0.30446 0.606999,-0.55354 0.930799,-0.55354 0.402,0 0.3932,0.23556 -0.028,0.74287 -0.339101,0.4086 -0.452702,0.90678 -0.252402,1.1071 0.7092,0.70914 1.715,0.34999 1.992701,-0.71141 z m 40.533899,-0.56483 c -1.6536,-0.40072 -1.6471,-0.40871 1.538,-1.87196 3.1867,-1.46404 8.8325,-2.02221 11.2135,-1.1086 0.8166,0.31337 0.7679,0.45667 -0.3699,1.08749 -1.1867,0.65786 -1.2058,0.72607 -0.2034,0.7212 0.6089,0 1.8544,-0.32472 2.7677,-0.71514 l 1.6607,-0.70975 -1.3604,-0.73011 c -0.7483,-0.40156 -3.9865,-0.9162 -7.1962,-1.14367 -5.5746,-0.39507 -10.2275,-1.63644 -8.9932,-2.39932 1.8288,-1.13024 6.4779,-1.41081 10.2698,-0.61973 2.1773,0.45424 4.9362,0.82608 6.1311,0.82632 h 2.1721 l -1.342,-1.43656 c -0.738,-0.79009 -2.4629,-2.0751 -3.8329,-2.85549 -2.5423,-1.44814 -7.1962,-5.54881 -7.1962,-6.34071 0,-1.65928 5.5201,0.73954 9.0504,3.93295 3.1027,2.80684 4.8358,3.93206 6.0561,3.93206 1.2107,0 1.0365,-0.79616 -1.2721,-5.81232 -1.5954,-3.46607 -2.6425,-8.0265 -1.8433,-8.0265 1.0548,5e-5 3.7587,4.27714 5.0317,7.95893 1.4608,4.2255 2.1094,5.32632 3.1385,5.32632 0.7858,0 1.9808,-3.10626 1.9808,-5.14844 0,-1.70051 1.5754,-5.92259 2.2098,-5.92259 1.1931,0 1.4128,4.71746 0.3868,8.30328 -0.7991,2.7922 -0.6415,4.98197 0.3583,4.98197 0.365,0 1.8693,-0.99639 3.3429,-2.21422 2.7983,-2.31214 5.3268,-2.93015 5.3268,-1.30182 0,0.5018 -1.4313,2.23398 -3.1807,3.84926 -3.7234,3.43768 -3.5594,4.00553 1.3246,4.59047 1.7821,0.21338 3.9874,0.86167 4.9008,1.44057 l 1.6606,1.05254 -1.3367,-1.48838 c -1.2545,-1.39716 -1.28,-1.55081 -0.415,-2.50651 1.3317,-1.47164 1.1577,-2.01319 -1.0251,-3.1887 -1.3417,-0.72263 -1.8383,-1.30858 -1.598,-1.88622 1.1917,-2.86401 0.7169,-3.85656 -1.8528,-3.87403 -1.0759,-0.006 -1.2455,-0.30054 -1.2455,-2.15492 0,-2.66428 -1.03,-3.70676 -2.5364,-2.56699 -1.4282,1.08074 -1.892,1.03518 -1.892,-0.18598 0,-1.79982 -1.1891,-4.51104 -1.9787,-4.51104 -0.42,0 -1.1727,0.62453 -1.6728,1.3878 l -0.9094,1.38784 -1.5821,-2.49491 c -2.0023,-3.157139 -3.1362,-3.232757 -3.6147,-0.24109 l -0.3603,2.2538 -2.2965,-2.2538 c -2.9827,-2.927397 -3.6385,-2.884667 -3.6385,0.23715 0,1.37003 -0.1483,2.49097 -0.3297,2.49097 -0.1813,0 -1.0061,-0.48165 -1.8327,-1.07029 -0.8267,-0.58868 -2.1729,-1.23841 -2.9916,-1.44389 -1.2191,-0.30596 -1.485,-0.18746 -1.4691,0.65514 0.011,0.56578 0.3758,1.65145 0.8109,2.41263 1.1721,2.05036 1.0088,2.33486 -0.8028,1.39805 -1.5772,-0.81557 -6.1167,-1.19335 -6.1167,-0.50903 0,0.18455 0.7591,1.29384 1.6867,2.46513 l 1.6868,2.1296 -3.7185,0.16423 c -2.0452,0.0904 -3.8001,0.41336 -3.8998,0.71781 -0.1001,0.30446 0.988,1.29246 2.4173,2.19557 l 2.5989,1.642 -2.0644,0.42889 c -1.1353,0.2359 -2.8658,0.8463 -3.8452,1.35641 l -1.7812,0.92747 2.2144,1.00034 c 1.2178,0.5502 2.65,1.00687 3.1827,1.01489 1.7498,0.0262 1.0178,0.86691 -2.0758,2.38416 -1.6745,0.82127 -3.0445,1.74498 -3.0445,2.05274 0,0.30777 1.1833,0.5301 2.6293,0.49409 2.3112,-0.0576 2.4285,-0.11422 0.9688,-0.46792 z m 34.3477,-4.40428 c -0.4909,-0.7945 2.4457,-2.81208 4.0932,-2.81208 0.8139,0 1.9637,0.37365 2.5547,0.83035 1.0636,0.82192 1.0636,0.8387 0,1.66065 -1.1766,0.90911 -6.1364,1.14869 -6.6479,0.32108 z m -24.6707,-3.93949 c -2.4837,-0.59002 -6.5847,-2.38326 -8.0162,-3.50523 -1.0512,-0.82367 -0.9809,-0.86839 1.3837,-0.8822 3.4662,-0.0209 5.8931,0.75269 9.4217,3.00059 l 3.0333,1.93236 -1.9375,-0.0415 c -1.0656,-0.0228 -2.8137,-0.24963 -3.885,-0.50411 z m 21.0452,-1.99131 c 0,-2.05581 1.4012,-5.3517 2.6124,-6.14545 1.682,-1.10209 2.0069,-0.70025 1.5621,1.93254 -0.5232,3.09648 -4.1745,6.78143 -4.1745,4.21291 z m -14.4033,-2.53391 c -2.2242,-1.71061 -6.0082,-7.33359 -5.3667,-7.97505 0.5316,-0.5317 3.5238,1.36023 5.2368,3.31121 1.6078,1.83102 3.3097,5.67148 2.7578,6.22321 -0.1433,0.14351 -1.326,-0.55816 -2.6279,-1.55937 z m 8.077,-0.0217 c -1.1923,-1.81962 -1.8282,-8.0971 -0.9735,-9.61131 0.5287,-0.93702 0.6849,-0.81692 1.5219,1.17004 1.2422,2.94849 1.5648,5.66841 0.9522,8.02625 l -0.5033,1.93717 z m 27.3612,12.72688 c 0,-0.38343 -0.4889,-1.00253 -1.0866,-1.37578 -0.9425,-0.58864 -1.0397,-0.55126 -0.7323,0.28199 0.2998,0.81243 1.1857,1.75218 1.6806,1.7825 0.076,0.005 0.1387,-0.30527 0.1387,-0.68871 z m -21.0349,-0.68672 c 0,-0.45667 0.2491,-0.83032 0.5535,-0.83032 0.9274,0 0.617,-2.32082 -0.4152,-3.1043 -0.5328,-0.40444 -1.5409,-0.7433 -2.2406,-0.75295 -0.6996,-0.0103 -1.8205,-0.60164 -2.491,-1.31543 -2.8872,-3.07364 -6.0915,-1.83216 -5.5956,2.16789 0.1401,1.12818 0.3854,2.26295 0.5453,2.52166 0.1597,0.25874 -0.1583,0.30906 -0.7068,0.11176 -0.5852,-0.2105 -0.807,-0.15065 -0.5364,0.14476 0.2537,0.27686 1.079,0.51519 1.8344,0.52959 1.1253,0.0214 1.3145,-0.17825 1.0478,-1.10713 -0.9511,-3.31303 -0.9503,-4.02177 0,-4.38832 1.2927,-0.49604 3.0177,1.13112 3.0177,2.84649 0,1.38242 -0.021,1.37991 2.6356,0.29377 0.4484,-0.18325 0.5816,0.0188 0.3726,0.5634 -0.3694,0.96261 0.6302,3.14947 1.4397,3.14947 0.2937,0 0.534,-0.37367 0.534,-0.83037 z m -77.4974,-0.55354 c 0,-0.4567 -0.2491,-0.83034 -0.553601,-0.83034 -0.304398,0 -0.553599,0.37364 -0.553599,0.83034 0,0.4567 0.249201,0.83032 0.553599,0.83032 0.304501,0 0.553601,-0.37362 0.553601,-0.83032 z m 3.3212,-1.54995 c 0,-1.86222 -2.915401,-2.79681 -3.551901,-1.13859 -0.467799,1.21915 0.149601,1.75758 0.843002,0.73507 0.476499,-0.70276 0.642599,-0.68159 1.212498,0.15441 0.779402,1.14303 1.496401,1.26238 1.496401,0.24908 z m 93.3272,-3.80397 c 0.084,-1.65632 -0.1926,-2.59895 -1.0129,-3.44514 l -1.1292,-1.16488 0.3877,1.38387 c 0.2133,0.76113 0.5297,2.45076 0.7032,3.75471 0.3802,2.85768 0.8913,2.60072 1.0512,-0.52856 z m -105.6912,-0.21881 c 0.578199,-1.50641 -0.679701,-2.13876 -2.12,-1.06585 -0.825299,0.61476 -0.942301,0.84418 -0.323501,0.63497 0.6316,-0.21349 0.9687,-0.0445 0.9687,0.48546 0,1.08075 1.0541,1.04175 1.474801,-0.0546 z m 2.293199,-1.63812 c -0.1705,-0.17049 -0.479898,0.13685 -0.6878,0.68273 -0.3004,0.78891 -0.236799,0.85252 0.309801,0.30986 0.378399,-0.37547 0.5485,-0.82217 0.377999,-0.99259 z m 5.0868,-2.68861 c 0.586402,-0.93001 0.4782,-0.91506 -1.001199,0.13829 -0.912101,0.64956 -1.9314,1.181 -2.265101,1.181 -0.6614,0 -0.8104,0.71866 -0.2624,1.26669 0.431202,0.43114 2.653001,-1.19716 3.5287,-2.58606 z m 26.232201,-0.045 c 0.4917,-0.75041 0.894,-1.99588 0.894,-2.76775 0,-0.99502 0.2971,-1.40335 1.0213,-1.40335 1.8743,0 3.8786,-3.36103 2.917,-4.89162 -0.2557,-0.40698 -1.4288,-0.82955 -2.6068,-0.93903 -1.1781,-0.10941 -2.2295,-0.46154 -2.3365,-0.78232 -0.3641,-1.09247 -2.2618,-0.58738 -3.2592,0.86749 -0.547,0.7979 -1.7857,2.2302 -2.7525,3.18296 -3.475,3.42405 -2.1851,7.09404 2.0651,5.87513 1.4102,-0.40442 1.6815,-0.37471 1.1778,0.12909 -1.1268,1.12675 -0.7505,1.59393 1.6343,2.02962 0.1933,0.0355 0.7538,-0.54973 1.2455,-1.30019 z m -6.6388,-2.74397 c -0.5639,-1.46912 0.8151,-3.08779 2.6303,-3.08779 1.5383,0 1.668,-0.13264 1.3538,-1.38388 -0.3386,-1.34958 -0.2724,-1.3839 2.6752,-1.3839 1.6623,0 3.1751,0.24704 3.3615,0.54893 0.4911,0.79449 -2.2341,3.32595 -3.5804,3.32595 -0.9427,0 -1.082,0.24249 -0.7956,1.38387 0.3368,1.34173 0.2606,1.38388 -2.4977,1.38388 -1.949,0 -2.9404,-0.24789 -3.1471,-0.78706 z m -22.912601,2.41507 c 0,-0.28649 -0.2491,-0.52089 -0.553599,-0.52089 -0.3044,0 -0.553601,0.38836 -0.553601,0.86299 0,0.47467 0.249201,0.70906 0.553601,0.52092 0.304499,-0.1881 0.553599,-0.57653 0.553599,-0.86302 z m -4.970899,-1.33784 c -0.385101,-0.46403 -1.070999,-0.84368 -1.524101,-0.84368 -0.561099,0 -0.407199,0.33769 0.483,1.05942 1.4737,1.19478 2.1034,1.06429 1.041101,-0.21574 z m 2.443099,-0.31615 c -0.588698,-0.21373 -1.187599,-0.28176 -1.331,-0.15126 -0.450199,0.40986 1.2872,1.22843 1.8582,0.8755 0.2988,-0.18473 0.062,-0.51059 -0.5272,-0.72432 z m 5.496901,-1.16181 c 0.2316,-0.9847 0.096,-1.55996 -0.4146,-1.75578 -1.628401,-0.62487 -2.681099,2.04208 -1.336701,3.38643 0.7962,0.79624 1.2885,0.33785 1.751301,-1.63065 z m 5.3243,-3.96005 c 0.01,-0.24344 -0.373901,-1.18488 -0.842999,-2.09206 -0.469202,-0.9072 -0.719701,-1.86513 -0.5568,-2.12873 0.162999,-0.26363 -0.092,-0.6282 -0.566002,-0.81018 -0.474199,-0.18201 -0.717799,-0.56452 -0.541398,-0.85006 0.176498,-0.28559 0.09,-0.6618 -0.191802,-0.83605 -0.857398,-0.529857 -2.143099,0.24664 -2.523699,1.52413 -0.337899,1.13395 -0.414499,1.09805 -1.2621,-0.59187 -0.4964,-0.98947 -1.083701,-1.799038 -1.3053,-1.799038 -0.2217,0 0.079,0.996398 0.6669,2.214218 1.170499,2.42276 1.825901,2.68007 3.338899,1.31083 0.9344,-0.84564 1.034201,-0.80873 1.561301,0.57795 1.355601,3.56516 1.3085,4.02659 -0.4914,4.8233 -0.9989,0.44215 -1.7042,1.16957 -1.7042,1.7576 0,0.83013 0.380299,0.68742 2.204099,-0.82708 1.2124,-1.00666 2.208802,-2.02952 2.2143,-2.27296 z m -3.004801,-2.14334 c 0.234,-0.40444 -0.2344,-0.1343 -1.0408,0.60016 -1.185198,1.07947 -1.338598,1.48931 -0.800499,2.13762 0.560999,0.67596 0.724699,0.58158 1.040699,-0.60018 0.206301,-0.77129 0.566401,-1.73321 0.8006,-2.1376 z m -6.9493,0.58079 c 0,-0.96372 -0.9848,-0.45963 -1.275699,0.65297 -0.244401,0.93437 -0.156599,1.02153 0.489,0.48577 0.4327,-0.35912 0.786699,-0.87156 0.786699,-1.13874 z m 95.603301,-4.22227 c 0.1966,-0.53279 0.5883,-1.12395 0.8704,-1.313657 0.2821,-0.189762 -0.3223,-1.609801 -1.3433,-3.155681 -1.0213,-1.54591 -2.3549,-3.61503 -2.9639,-4.59807 -1.4307,-2.30994 -2.3553,-2.57098 -3.0096,-0.84976 -0.2891,0.76023 -0.9278,1.46548 -1.4194,1.56726 -0.7056,0.14602 -0.5033,0.61039 0.962,2.20626 1.0207,1.1117 2.1419,2.64914 2.4915,3.41656 1.4998,3.291838 3.7019,4.652778 4.4123,2.727088 z m -2.5019,-1.624278 c -0.7734,-1.42118 -0.8625,-2.94251 -0.1723,-2.94251 0.9447,0 1.5482,1.40158 1.1917,2.76775 l -0.3613,1.383878 z m -2.1803,-3.86268 c -0.7621,-0.30758 -0.9723,-4.0618 -0.2273,-4.0618 0.5525,0 1.7495,2.47983 1.7495,3.62413 0,0.82804 -0.324,0.9212 -1.5222,0.43767 z m -81.5107,5.073098 c 0,-0.45599 -0.832699,-1.711878 -1.850401,-2.790908 -1.479298,-1.56826 -1.9725,-1.81483 -2.4586,-1.22915 -0.470498,0.56693 -0.2393,0.89586 1.0214,1.45394 0.9233,0.40868 1.774801,1.300691 1.965002,2.058218 0.3678,1.46553 1.322599,1.83216 1.322599,0.5079 z m -4.4284,-1.352497 c 0,-0.653131 -1.079601,-1.351781 -1.475999,-0.955281 -0.396701,0.39653 0.301998,1.476158 0.955299,1.476158 0.2863,0 0.5207,-0.234388 0.5207,-0.520877 z m 13.8794,-7.204211 c 1.244,-1.23169 2.5477,-2.06063 2.9797,-1.89484 0.4224,0.16214 1.2528,0.0355 1.8455,-0.28178 1.429,-0.76483 1.0093,-3.16259 -0.6306,-3.60259 -1.8167,-0.48739 -3.1281,-0.39553 -3.1281,0.21902 0,0.30446 0.4835,0.55356 1.0745,0.55356 0.5909,0 1.2284,0.24911 1.4165,0.55354 0.1881,0.30448 0.032,0.55356 -0.3468,0.55356 -0.3789,0 -1.8707,0.99642 -3.3149,2.21424 -1.444299,1.21777 -2.909501,2.21417 -3.255901,2.21417 -0.7912,0 -0.194498,-2.12209 0.969401,-3.44813 0.900999,-1.02651 1.009,-0.9184 -1.783299,-1.78623 -0.6292,-0.19563 -0.473401,-0.61587 0.691898,-1.8664 0.827202,-0.8877 1.918902,-2.20646 2.426002,-2.93055 0.802499,-1.14604 1.070399,-1.22687 2.068299,-0.62455 1.5926,0.96126 1.7009,0.88527 0.9709,-0.68175 -0.7991,-1.71561 -2.1833,-1.39367 -4.172499,0.97044 -0.7766,0.92302 -2.1566,2.374 -3.0665,3.22432 -1.573202,1.47031 -1.6081,1.59723 -0.710401,2.58902 0.518999,0.57362 0.943801,1.81251 0.943801,2.7531 0,4.11205 1.715098,4.54639 5.022499,1.27185 z m -22.870701,-1.45079 c -0.544798,-0.5448 -1.526199,0.29155 -1.526199,1.30064 0,0.845 0.072,0.84349 0.9359,-0.0188 0.514599,-0.51467 0.780299,-1.0912 0.590299,-1.28117 z m 51.338301,0.005 c 0.7573,-0.91805 1.3448,-1.18917 1.8601,-0.85852 1.5249,0.97832 5.5317,-0.94896 5.3591,-2.57768 -0.194,-1.82769 -0.9114,-2.70851 -2.8141,-3.45503 -2.1055,-0.82614 -2.3872,-1.351651 -1.0086,-1.88071 0.8253,-0.31668 0.8176,-0.444741 -0.085,-1.443091 -1.5351,-1.69625 -3.5596,-1.424919 -4.3157,0.578451 -0.3515,0.9315 -1.0055,1.63987 -1.4742,1.596919 -2.4863,-0.22764 -3.248,0.136421 -4.1172,1.968451 -1.0704,2.25563 -0.4169,3.88853 1.7766,4.43907 1.0235,0.25689 1.182,0.49642 0.7073,1.06847 -0.3366,0.40553 -0.4494,1.1611 -0.2506,1.67902 0.4907,1.27889 2.8945,0.6644 4.3629,-1.11535 z m -1.92,-1.08892 c -0.01,-0.31493 -0.765,-1.01402 -1.6784,-1.55355 -2.2003,-1.2998 -2.3044,-3.50346 -0.1903,-4.03403 1.0435,-0.26193 1.6631,-0.10438 2.1368,0.54301 1.0577,1.44661 2.1056,1.13911 1.6948,-0.49737 -0.6024,-2.400141 0.1001,-2.390671 2.7064,0.0364 2.8001,2.60755 3.0219,3.27382 1.3818,4.15152 -0.8543,0.45726 -1.5247,0.40519 -2.7677,-0.21489 -0.9022,-0.45006 -1.6403,-0.63587 -1.6403,-0.41296 0,0.65318 -1.6236,2.61159 -1.6431,1.98178 z m -34.061101,-2.19517 c 0,-0.55816 -0.311399,-1.11863 -0.691999,-1.2455 -0.438201,-0.14602 -0.692,0.3106 -0.692,1.2455 0,0.93491 0.253799,1.39158 0.692,1.2455 0.3806,-0.12679 0.691999,-0.68733 0.691999,-1.2455 z m 65.476501,-0.34827 c 0.086,-0.44553 -0.219,-1.71072 -0.679,-2.81146 -0.6853,-1.64018 -1.3159,-2.16078 -3.4938,-2.88409 -1.4614,-0.48549 -3.5714,-1.50382 -4.6886,-2.26298 -1.1173,-0.75923 -2.2937,-1.38034 -2.6143,-1.38034 -0.7765,0 -0.7432,1.27887 0.053,2.07579 0.3501,0.35013 0.6614,1.4586 0.6919,2.46333 0.05,1.65626 0.2627,1.87838 2.2777,2.38027 1.2224,0.30445 2.966,1.07849 3.8749,1.72011 2.8246,1.99406 4.2829,2.21686 4.5775,0.69937 z m -3.7897,-1.74517 c -0.4755,-0.37086 -1.0348,-1.12741 -1.2426,-1.68121 -0.242,-0.644 -0.7282,-0.89781 -1.3498,-0.70429 -0.6822,0.21253 -1.3435,-0.27038 -2.222,-1.62248 -1.4547,-2.23946 -0.9074,-2.54368 0.9738,-0.54121 0.7152,0.76116 1.5815,1.38388 1.9254,1.38388 0.3438,0 1.4704,0.87185 2.503,1.93746 1.7943,1.85111 1.3639,2.75 -0.5878,1.22785 z m -50.8926,-1.1952 c 0,-0.13433 -0.249,-0.39806 -0.5535,-0.58623 -0.3045,-0.1881 -0.5536,-0.0782 -0.5536,0.24413 0,0.32242 0.2491,0.58621 0.5536,0.58621 0.3045,0 0.5535,-0.10983 0.5535,-0.24411 z m 76.5316,-2.91983 c -0.1767,-1.20277 -0.4939,-1.64793 -1.0285,-1.44278 -0.5064,0.19416 -0.7734,-0.0931 -0.7734,-0.8323 0,-0.65598 -0.4806,-1.28153 -1.147,-1.49309 -0.6443,-0.20439 -1.0247,-0.68339 -0.8677,-1.09239 0.1536,-0.40058 -0.1399,-1.1045 -0.652,-1.56427 -1.0618,-0.953 -3.0714,-0.719 -5.9812,0.69641 l -1.894,0.92123 1.8113,0.0335 c 3.2796,0.0607 4.8669,1.09609 6.0792,3.96547 1.768,4.18471 5.0359,4.77782 4.4533,0.80825 z m -2.508,1.08701 c -0.9943,-1.09873 -1.3138,-3.45861 -0.4682,-3.45861 0.6211,0 1.9058,3.06398 1.6309,3.88922 -0.1274,0.38206 -0.5785,0.21503 -1.1627,-0.43061 z m -96.6516,0.0427 c -0.6526,-1.12215 -0.810102,-0.763 -0.2759,0.62903 0.189601,0.49471 0.461701,0.78287 0.6042,0.64034 0.142499,-0.14248 -0.01,-0.71374 -0.3283,-1.26937 z m 15.835399,-0.51435 c -0.1837,-0.18391 -0.661299,-0.20357 -1.060899,-0.0437 -0.4416,0.17676 -0.310399,0.30786 0.334499,0.33446 0.583502,0.0241 0.9104,-0.10692 0.7264,-0.29078 z m 67.821901,-1.93548 c 2.1602,-0.86016 1.9566,-1.84184 -0.2768,-1.33529 -4.634,1.05097 -5.8786,1.10908 -8.9227,0.41669 -3.2386,-0.73658 -4.6468,-0.53555 -3.101,0.44273 0.4479,0.28342 1.6862,0.64926 2.7516,0.81298 1.0656,0.16359 2.8094,0.4925 3.8749,0.73059 1.0657,0.2381 2.4356,0.23167 3.0446,-0.0148 0.6089,-0.24601 1.7922,-0.72001 2.6294,-1.05341 z m -5.1205,-1.94093 c 0,-0.11967 -1.1831,-0.18473 -2.6293,-0.14478 -2.5169,0.0697 -2.5464,0.0887 -0.6919,0.44249 1.8043,0.34425 3.3212,0.20818 3.3212,-0.29781 z m -56.6007,-0.59914 c -0.5328,-0.13912 -1.4047,-0.13912 -1.9374,0 -0.5328,0.13935 -0.097,0.25318 0.9687,0.25318 1.0655,0 1.5015,-0.11404 0.9687,-0.25318 z m 25.6019,-2.38618 c 0,-0.30443 -0.3884,-0.55353 -0.863,-0.55353 -0.4747,0 -0.7091,0.2491 -0.5209,0.55353 0.188,0.30446 0.5765,0.55357 0.8631,0.55357 0.2865,0 0.5208,-0.24911 0.5208,-0.55357 z m -23.1222,60.547098 c 0.8871,-0.9062 0.8909,-1.05143 0.052,-1.97782 -0.6148,-0.67937 -0.6846,-0.99981 -0.2176,-0.99981 0.378,0 1.7661,-0.77472 3.0845,-1.72161 1.3187,-0.94689 2.6671,-1.55496 2.9968,-1.3512 1.0145,0.62703 0.6667,2.26285 -0.7676,3.61034 -0.7516,0.70623 -1.2458,1.47976 -1.098,1.71889 0.3649,0.59045 -0.1913,0.85114 -2.7939,1.30935 -2.1112,0.37171 -2.1696,0.34435 -1.2567,-0.58814 z M 94.229429,74.386612 c 0.613302,-0.52448 3.852302,-0.84222 3.546901,-0.34795 -0.185401,0.29988 -1.111099,0.54522 -2.057201,0.54522 -0.946198,0 -1.616499,-0.0887 -1.4897,-0.1973 z"
       id="path107-8" />
    <path
       id="path105-9"
       style="fill:#000000;stroke-width:0.553548"
       d="m 16.082829,262.82104 v -28.17119 l 1.4761,-0.37051 c 0.811899,-0.20375 5.3579,-1.74898 10.1023,-3.43381 9.5831,-3.40318 33.0298,-14.76582 35.750301,-17.32516 0.9134,-0.85925 2.474899,-1.97263 3.4701,-2.47415 3.2888,-1.65739 9.396199,-8.00039 12.614699,-13.10118 1.711401,-2.71243 3.2787,-4.93168 3.4827,-4.93168 1.081701,0 1.654,2.17043 1.072401,4.06609 -1.331701,4.33894 1.2906,13.1603 7.841699,26.3793 3.5715,7.20697 5.847901,12.74334 17.297501,42.07003 1.8425,4.71905 4.6798,12.37883 6.3052,17.02172 l 2.9552,8.44173 H 67.26693 16.082829 Z m 120.120901,24.88249 c 0,-4.11394 0.8755,-4.83546 1.3838,-1.14028 l 0.3807,2.76832 h 2.1518 c 2.569,0 2.6625,-0.24172 2.8645,-7.42238 0.1076,-3.82927 -0.035,-4.9902 -0.6379,-5.19467 -0.6084,-0.20627 -0.7056,0.17197 -0.4498,1.74844 0.2484,1.53152 0.1366,2.01173 -0.469,2.01173 -0.4746,0 -0.7957,0.54545 -0.7957,1.35123 0,0.74317 -0.249,1.50517 -0.5536,1.69331 -0.3044,0.1881 -0.5534,-0.0462 -0.5534,-0.52088 0,-0.47465 -0.2811,-0.863 -0.6245,-0.863 -0.4195,0 -0.511,-0.77157 -0.2792,-2.35259 l 0.3449,-2.35258 -1.3786,1.66066 -1.3784,1.66064 v -1.71239 c 0,-0.9418 -0.4713,-3.05913 -1.0435,-4.70518 -2.2071,-6.34683 -6.1473,-13.35064 -6.1594,-10.94874 0,0.5138 -0.8088,0.79617 -2.4911,0.87234 -1.3677,0.0619 -2.4869,-0.0692 -2.4869,-0.29162 0,-0.70779 7.4708,-7.8475 8.2114,-7.8475 0.391,0 0.5874,-0.19939 0.4368,-0.44327 -0.1506,-0.2438 0.9442,-1.76825 2.433,-3.38765 2.2873,-2.48806 2.9235,-2.8901 4.1037,-2.5939 0.7681,0.1927 3.2761,-0.0377 5.5732,-0.51215 2.2972,-0.47451 4.4408,-0.69945 4.7637,-0.49991 0.9817,0.60669 4.3851,6.23513 5.2662,8.70865 0.4558,1.27948 1.4214,5.0526 2.1462,8.38478 l 1.3177,6.05848 -3.0861,-3.46425 c -1.7823,-2.00097 -3.2921,-3.258 -3.5741,-2.97596 -0.6294,0.62942 -0.9721,11.20466 -0.4006,12.36702 0.2389,0.48596 0.6779,2.84667 0.9759,5.24606 0.2978,2.39934 0.8078,4.45121 1.1332,4.55967 0.3253,0.10836 0.5915,0.41772 0.5915,0.68725 0,0.26952 -0.4359,0.33449 -0.9687,0.14436 -0.7172,-0.25604 -0.6455,-0.0552 0.2768,0.77421 0.6851,0.61599 1.2455,1.27758 1.2455,1.47021 0,0.19271 -1.3623,0.35024 -3.0271,0.35024 -2.3491,0 -2.9614,-0.17135 -2.7335,-0.76528 0.394,-1.02687 -1.1914,-6.97759 -2.1016,-7.88772 -0.8817,-0.88169 -3.2088,-0.38055 -3.2088,0.69105 0,0.42119 0.3905,0.76576 0.8676,0.76576 0.6158,0 0.7655,0.32144 0.5163,1.10709 -0.2018,0.6351 -0.1,1.10712 0.2394,1.10712 0.325,0 0.591,0.50065 0.591,1.11252 0,0.61187 0.4981,1.53909 1.107,2.06048 0.6089,0.52133 1.107,1.14165 1.107,1.37845 0,0.2368 -2.6154,0.43053 -5.8122,0.43053 h -5.8124 z m 13.7999,-3.21555 c -0.021,-0.22837 -0.2529,-0.91337 -0.5146,-1.52228 -0.4216,-0.98105 -0.4802,-0.93377 -0.5147,0.41515 -0.021,0.83725 0.2103,1.52228 0.5147,1.52228 0.3045,0 0.5361,-0.18683 0.5146,-0.41515 z m -0.9734,-10.46491 c 1.4993,-1.35679 1.2353,-1.94331 -0.7867,-1.74834 -1.3789,0.13309 -1.8404,0.46434 -1.9758,1.41896 -0.2159,1.51969 1.2537,1.69492 2.7625,0.32938 z m -6.3855,-3.23213 c 0.8721,-0.45481 2.0216,-0.82844 2.5542,-0.83031 0.5328,-0.003 0.9687,-0.25251 0.9687,-0.55698 0,-0.71832 -0.7719,-0.69842 -3.3954,0.0877 -1.177,0.35264 -2.1401,0.97539 -2.1401,1.38388 0,0.9287 0.076,0.92548 2.0126,-0.0841 z m 7.1211,-4.81972 c 0.3677,-0.36412 0.1355,-0.83156 -0.692,-1.39307 -0.685,-0.46479 -1.2455,-1.18832 -1.2455,-1.60787 0,-0.41957 -0.4004,-0.76282 -0.8895,-0.76282 -0.5634,0 -0.7727,0.30453 -0.571,0.83035 0.1754,0.45666 0.1066,0.83031 -0.1529,0.83031 -0.5906,0 -1.2065,2.2355 -0.7981,2.89623 0.3576,0.57859 3.5519,-0.005 4.349,-0.79313 z m -7.1619,-6.0337 c 0.6506,-1.0524 -0.713,-0.42533 -2.5463,1.17107 l -1.9165,1.6689 2.0776,-1.17107 c 1.1427,-0.64408 2.2161,-1.39508 2.3852,-1.6689 z m -0.4916,-2.58878 c 0.4349,-0.27662 0.206,-0.62275 -0.6919,-1.04653 -1.0389,-0.49025 -1.3419,-0.47832 -1.3419,0.0527 0,1.29212 0.8849,1.72451 2.0338,0.99381 z m 6.812,-1.52051 c -0.3851,-0.46405 -0.5198,-1.02412 -0.2992,-1.24463 0.2204,-0.22051 0.7192,0.0345 1.1086,0.56692 0.7094,0.97032 1.9848,1.33145 1.9519,0.55269 -0.049,-1.1749 -1.665,-2.3526 -3.2264,-2.3526 -1.9572,0 -1.9346,-0.0358 -1.198,1.90141 0.2969,0.78095 0.9501,1.41991 1.4515,1.41991 0.7542,0 0.7908,-0.14582 0.2116,-0.8437 z m 15.4695,35.0256 c -2.2584,-7.60533 -3.9654,-16.46702 -4.079,-21.17339 -0.074,-3.04457 -0.2957,-10.5175 -0.4942,-16.60657 -0.1987,-6.0891 -0.1757,-13.13213 0.051,-15.65119 l 0.4118,-4.58008 5.0656,3.27887 c 2.7862,1.80339 7.1453,4.21183 9.6873,5.35215 9.5881,4.30136 23.0325,11.31996 26.8516,14.01768 5.7247,4.04389 12.961,11.4307 15.3032,15.62149 2.7194,4.86608 6.2806,14.06426 6.6783,17.25005 l 0.3282,2.62939 h -29.8813 c -16.4346,0 -29.8998,-0.0623 -29.9223,-0.1383 z m -35.2579,-18.68242 c 0,-1.06558 0.114,-1.50152 0.2533,-0.96872 0.1392,0.5328 0.1392,1.40465 0,1.93743 -0.1393,0.5328 -0.2533,0.0969 -0.2533,-0.96871 z m -0.6382,-5.30487 c 0.027,-0.64488 0.1576,-0.77606 0.3344,-0.33446 0.1598,0.39963 0.1402,0.87703 -0.044,1.061 -0.1838,0.18388 -0.3147,-0.14311 -0.2907,-0.72654 z m 0.8554,-16.17255 c -0.226,-0.36557 -0.9845,-0.66469 -1.6855,-0.66469 -1.5616,0 -7.1582,-5.5549 -11.9585,-11.86925 -0.5041,-0.66313 -0.552,-0.91573 -0.1253,-0.65927 0.9492,0.57023 0.8683,-0.25858 -0.1697,-1.74067 -1.7209,-2.4571 0.4225,-1.19009 4.0814,2.4125 4.4388,4.37035 5.3955,4.98176 5.8682,3.74989 0.1878,-0.4897 0.057,-1.23247 -0.2891,-1.65053 -0.3472,-0.4181 -0.4454,-0.76018 -0.2187,-0.76018 0.2267,0 0.1046,-0.37092 -0.2716,-0.82423 -0.3763,-0.45331 -0.9051,-0.68772 -1.175,-0.52088 -0.2699,0.16677 -0.4908,0.099 -0.4908,-0.15063 0,-0.89799 -12.5711,-13.41004 -17.9905,-17.90592 -6.598699,-5.47425 -7.736601,-6.46214 -9.5276,-8.27164 l -1.365501,-1.3796 1.6677,-0.68052 c 1.992601,-0.81304 2.708201,-1.78187 1.7525,-2.37255 -0.382598,-0.23637 -0.524299,-0.70672 -0.3151,-1.04521 0.620802,-1.00462 3.550901,-0.70091 4.743401,0.49166 0.6089,0.6089 1.6054,1.10712 2.2144,1.10712 0.6087,0 1.1071,0.22207 1.1071,0.49353 0,0.27148 0.6301,0.65174 1.4005,0.8451 0.9952,0.24976 1.4977,0.83682 1.736,2.02779 0.2056,1.0281 0.603,1.5735 1.0277,1.41052 0.4474,-0.17177 0.5986,0.0925 0.4276,0.74661 -0.178,0.68095 0.1144,1.13271 0.8936,1.37999 0.6371,0.20208 1.4159,0.84893 1.7307,1.43724 0.3281,0.61299 1.155,1.06962 1.9368,1.06962 0.7504,0 1.3645,0.26379 1.3645,0.58619 0,0.32244 0.2125,0.45484 0.4724,0.29424 0.5929,-0.36645 3.956,0.87057 3.956,1.45514 0,0.23769 0.4715,0.43216 1.0479,0.43216 0.5764,0 1.1913,0.37367 1.3665,0.83035 0.1754,0.45666 0.6752,0.83033 1.1109,0.83033 0.4359,0 1.6828,0.89043 2.7711,1.97878 1.0885,1.0883 2.2172,1.83154 2.5082,1.65163 0.2911,-0.17994 0.6858,-0.0741 0.877,0.23542 0.5421,0.87712 1.0971,0.68683 3.1018,-1.06351 1.0246,-0.89438 1.9922,-1.48303 2.151,-1.30814 0.1585,0.17492 -0.024,0.42925 -0.4036,0.56519 -0.3806,0.13596 -0.6918,0.47543 -0.6918,0.75453 0,0.89488 1.6252,0.54271 2.7677,-0.59967 0.6088,-0.60895 1.3329,-1.10713 1.6086,-1.10713 0.2761,0 0.3618,-0.53544 0.1908,-1.18985 -0.2051,-0.78391 0.037,-1.44498 0.7111,-1.93747 1.2016,-0.87858 2.1307,-0.98637 1.6386,-0.19019 -0.1894,0.30661 0.1072,0.69845 0.6593,0.87076 0.552,0.17236 1.4364,0.54418 1.965,0.82641 1.5428,0.82357 2.1892,0.61111 1.8066,-0.59395 -0.2905,-0.91531 -0.099,-1.10711 1.1025,-1.10711 0.922,0 1.3153,-0.22417 1.075,-0.61284 -0.2509,-0.40593 -0.01,-0.49518 0.7197,-0.26429 0.6699,0.21266 1.3709,0.0209 1.7977,-0.49428 0.8922,-1.07494 1.671,-1.08077 1.671,-0.0127 0,0.4567 0.249,0.86149 0.5535,0.89954 0.3044,0.038 0.865,0.10692 1.2455,0.15313 0.3806,0.0462 0.6326,0.63782 0.5602,1.31469 -0.073,0.67688 0.1141,1.23068 0.415,1.23068 0.301,0 0.5471,0.31703 0.5471,0.70448 0,0.38744 0.8531,1.16388 1.8959,1.72543 1.6737,0.90137 2.0953,0.93272 3.5981,0.26752 0.9362,-0.41442 1.7023,-1.0663 1.7023,-1.44867 0,-0.38235 0.249,-0.69519 0.5534,-0.69519 0.3044,0 0.5536,-0.62275 0.5536,-1.3839 0,-0.76113 0.2492,-1.38388 0.5535,-1.38388 0.3044,0 0.5537,-0.7473 0.5537,-1.66064 0,-1.0415 0.2841,-1.66064 0.7624,-1.66064 0.4194,0 1.0895,-0.39389 1.4891,-0.87528 0.5903,-0.71131 0.5944,-1.08651 0.021,-2.00271 -0.4473,-0.71628 -0.5112,-1.32025 -0.1753,-1.6561 0.6679,-0.66787 -0.3078,-4.0082 -1.8217,-6.23709 -1.8584,-2.736 -6.1899,-6.83088 -8.4129,-7.95339 -2.1127,-1.0667 -8.043,-1.83603 -15.1131,-1.96056 -3.3366,-0.0588 -3.9285,0.12741 -8.1456,2.56114 -4.3693,2.5216 -6.2466,3.16661 -6.2466,2.14621 0,-0.50287 3.9253,-3.39659 4.6075,-3.39659 0.2181,0 1.3828,-0.62274 2.5885,-1.38387 1.8864,-1.19076 2.8377,-1.3839 6.8162,-1.3839 2.5432,0 4.7884,-0.16445 4.9895,-0.36542 0.6491,-0.64921 8.3218,-0.16798 10.9634,0.68765 1.4103,0.45683 3.0057,1.3185 3.5454,1.91484 0.5398,0.59635 1.424,1.08425 1.9652,1.08425 0.5413,0 1.1434,0.50182 1.338,1.11513 0.1946,0.61335 0.5729,0.9798 0.8407,0.81437 0.2677,-0.16547 0.798,0.76506 1.1787,2.06779 0.3805,1.30274 0.9041,2.51596 1.1633,2.69607 0.2592,0.18013 0.4107,0.55378 0.3366,0.83032 -0.074,0.27658 0.05,1.284 0.2776,2.23873 0.3208,1.35032 0.7827,1.80993 2.0796,2.06929 0.9171,0.1835 1.5219,0.56845 1.3446,0.85565 -0.3853,0.62314 1.8879,2.33753 2.5538,1.92602 0.2548,-0.15753 0.4633,-0.11817 0.4633,0.0873 0,0.55217 -3.8029,5.77321 -5.7682,7.91904 -1.6812,1.8358 -11.4342,9.91902 -13.5996,11.27135 -0.6126,0.38252 -1.1138,1.13377 -1.1138,1.66945 0,0.53567 -0.249,0.97392 -0.5535,0.97392 -0.3045,0 -0.5535,0.35291 -0.5535,0.78421 0,0.43131 -0.3113,0.89542 -0.6919,1.03131 -0.3806,0.13602 -0.4836,0.46807 -0.2292,0.73808 0.2622,0.27805 0.9223,-0.0757 1.5223,-0.81584 0.5828,-0.71877 1.0595,-1.00174 1.0595,-0.6288 0,0.37289 -2.3899,2.99154 -5.3112,5.81914 -6.3078,6.10628 -7.4162,6.47229 -12.2363,4.04097 -2.0337,-1.02589 -3.5971,-1.45764 -4.6234,-1.27683 -1.2569,0.22146 -1.8148,-0.0644 -2.9458,-1.50971 -0.7676,-0.9806 -1.5529,-1.62527 -1.7456,-1.43266 -0.403,0.40296 1.1989,3.16031 2.4267,4.17711 0.4558,0.37741 0.6617,0.85331 0.4575,1.05756 -0.2044,0.20419 -0.8712,-0.081 -1.482,-0.63361 -0.6106,-0.55275 -1.1105,-0.81135 -1.1105,-0.57462 0,0.23668 -0.4331,0.0885 -0.9621,-0.32942 -0.8939,-0.70564 -0.9037,-0.67551 -0.1384,0.42361 0.4532,0.65076 1.5323,2.07506 2.3982,3.16504 0.8659,1.08998 1.472,2.28894 1.3468,2.66433 -0.1757,0.52713 -0.321,0.53116 -0.6383,0.0167 z m 12.3861,-32.77074 c 0,-0.30446 0.2638,-0.55359 0.5862,-0.55359 0.3225,0 0.4323,0.24913 0.2441,0.55359 -0.188,0.30446 -0.452,0.55353 -0.5862,0.55353 -0.1343,0 -0.2441,-0.24907 -0.2441,-0.55353 z m -14.6234,-2.07632 c -0.5385,-0.53843 -0.3603,-2.35211 0.2312,-2.35211 0.3043,0 0.5535,-0.26179 0.5535,-0.58178 0,-0.8514 4.0097,-4.3938 4.9819,-4.40126 0.4567,-0.005 2.2608,-1.47073 4.0093,-3.26053 3.5954,-3.68039 4.6073,-3.99022 12.3206,-3.77208 3.5229,0.0996 4.8527,0.38797 6.5042,1.4104 1.1416,0.70683 2.0757,1.72564 2.0757,2.26404 0,0.5384 0.8048,2.07495 1.7885,3.41458 1.8068,2.46061 2.4402,5.84738 1.256,6.7172 -1.7479,1.28425 -3.9661,-0.0217 -6.5864,-3.87788 -1.6505,-2.42893 -3.2272,-3.21117 -5.5698,-2.76336 -0.7379,0.14101 -2.5393,0.0674 -4.003,-0.16383 -2.2275,-0.35175 -3.178,-0.19163 -5.8289,0.98187 -1.7421,0.77119 -3.3072,1.84258 -3.4781,2.38086 -0.1707,0.5383 -0.7381,1.11162 -1.261,1.27404 -0.5226,0.16235 -2.2375,0.91564 -3.8109,1.67382 -1.5732,0.75815 -3.0056,1.2334 -3.1828,1.05607 z m 45.3457,-5.11989 c -0.1881,-0.30443 -0.078,-0.55353 0.244,-0.55353 0.3225,0 0.5863,0.2491 0.5863,0.55353 0,0.30448 -0.1099,0.55355 -0.2442,0.55355 -0.1342,0 -0.3979,-0.24907 -0.5861,-0.55355 z M 97.455031,204.0844 c 0,-0.30444 0.3737,-0.55353 0.830299,-0.55353 0.4567,0 0.8303,0.24909 0.8303,0.55353 0,0.30446 -0.3736,0.55356 -0.8303,0.55356 -0.456599,0 -0.830299,-0.2491 -0.830299,-0.55356 z m 48.664799,-12.7072 c -0.7874,-0.23862 -2.0544,-0.84182 -2.8153,-1.3404 -1.5625,-1.02381 -5.1965,-5.83478 -4.5059,-5.96511 0.2473,-0.0466 1.5706,-0.14457 2.9406,-0.2177 3.0895,-0.16484 4.4284,-0.68559 4.4284,-1.72239 0,-0.83248 2.7619,-2.20859 5.5534,-2.76685 1.3958,-0.27916 1.7,-0.11237 2.2016,1.20741 l 0.5821,1.5313 1.2288,-1.11504 c 1.4072,-1.27728 4.2729,-2.12961 4.2729,-1.27087 0,0.93482 1.0303,0.63497 1.6229,-0.47229 0.3596,-0.67198 0.3698,-1.68096 0.029,-2.86948 -0.2892,-1.00822 -0.4028,-1.95599 -0.2528,-2.10622 0.4714,-0.47125 3.4906,2.76207 4.4322,4.74644 0.8643,1.82134 0.8498,1.97131 -0.3606,3.73802 l -1.2611,1.84051 -0.7555,-1.46449 c -1.1194,-2.17014 -1.4173,-2.34239 -3.3743,-1.95096 -1.2496,0.24992 -2.0562,0.87746 -2.6767,2.08272 -0.4886,0.94877 -1.3106,2.09871 -1.8266,2.55537 -0.5164,0.45667 -1.1825,1.57763 -1.4805,2.49101 -0.4318,1.32367 -1.0951,1.84818 -3.2695,2.585 -3.1632,1.07185 -2.872,1.04195 -4.7131,0.48402 z m 1.5587,-7.00157 c -0.1839,-0.1839 -0.6615,-0.20356 -1.0611,-0.0437 -0.4415,0.17677 -0.3104,0.30787 0.3345,0.33441 0.5834,0.0241 0.9104,-0.10689 0.7266,-0.29072 z m -67.4487,3.1022 c -0.797001,-1.06558 -1.8836,-2.62144 -2.414801,-3.45742 l -0.965798,-1.52003 2.028399,0.84751 c 1.278501,0.53422 3.2966,0.78918 5.459301,0.68969 3.2981,-0.15167 3.436898,-0.10418 3.585599,1.22603 0.144701,1.29456 0.103299,1.31897 -0.6413,0.37875 -0.577,-0.72877 -1.380601,-0.9571 -2.922399,-0.83034 -2.028302,0.16674 -2.139302,0.27704 -2.4032,2.38904 l -0.276903,2.21421 z m 102.4724,1.10712 c 0,-0.30446 0.3735,-0.55356 0.8302,-0.55356 0.4566,0 0.8305,0.2491 0.8305,0.55356 0,0.30446 -0.3739,0.55354 -0.8305,0.55354 -0.4567,0 -0.8302,-0.24908 -0.8302,-0.55354 z m -55.4856,-7.44569 c -0.3472,-1.81597 0.963,-4.3769 3.28,-6.41114 2.1941,-1.92652 2.9393,-1.73736 2.9393,0.74585 0,1.41357 -0.3177,1.91031 -1.5789,2.46859 -0.8685,0.38442 -2.0462,1.56618 -2.617,2.62612 -1.2275,2.27947 -1.6728,2.405 -2.0234,0.57058 z m 10.9245,0.95604 c -2.8536,-0.70145 -3.3161,-2.61733 -0.7552,-3.12949 2.1998,-0.43997 5.5583,0.44839 6.7741,1.79177 0.8958,0.98972 0.8459,1.04902 -1.1577,1.38011 -2.2874,0.37804 -3.1824,0.37023 -4.8612,-0.0425 z M 82.511229,167.13478 c 0,-1.8238 2.003902,-5.31436 2.774101,-4.83833 0.939199,0.58045 0.595299,3.37969 -0.6022,4.90204 -1.471501,1.87069 -2.174502,1.85005 -2.171901,-0.0638 z m 107.805301,-4.29006 c 0.2697,-1.41086 -0.5842,-1.90529 -1.2974,-0.75128 -0.2497,0.40404 -0.6693,0.10125 -1.1616,-0.83815 -0.6452,-1.23179 -0.9468,-1.37639 -1.8558,-0.88987 -0.597,0.31946 -1.0853,0.43561 -1.0853,0.25813 0,-0.17743 -0.3945,-3.73595 -0.8769,-7.90761 -1.2532,-10.84077 -2.7638,-14.6182 -7.635,-19.09117 -2.5599,-2.35077 -8.3676,-4.43851 -15.0141,-5.39715 -2.1313,-0.30742 -4.8713,-0.864 -6.0889,-1.2369 l -2.2144,-0.67802 2.3772,-0.31848 c 5.9556,-0.79791 12.7971,1.25621 20.872,6.26671 7.187,4.45952 7.744,5.17744 9.127,11.763 0.6395,3.04456 1.421,6.05526 1.7367,6.69047 0.3159,0.63521 0.5244,1.50704 0.4636,1.93744 -0.2443,1.72751 0.09,2.16638 1.6499,2.16638 1.7843,0 3.3525,1.67341 3.3525,3.57706 0,1.2882 -1.7717,5.82816 -2.2758,5.83126 -0.1862,0 -0.2193,-0.62066 -0.074,-1.38182 z m -99.891499,-1.33299 c -0.571702,-0.6136 -1.472901,-2.32125 -2.002801,-3.79474 -0.6512,-1.81102 -1.5079,-3.00069 -2.643701,-3.67167 -0.924099,-0.54592 -1.947299,-1.57867 -2.273599,-2.295 -0.3264,-0.71633 -1.493599,-1.67632 -2.5937,-2.13328 -1.1001,-0.45699 -1.5763,-0.84368 -1.058,-0.85937 0.518301,-0.0148 2.564699,-1.16279 4.5479,-2.54913 5.813599,-4.064 14.514599,-7.89326 20.1126,-8.85134 2.6634,-0.45585 5.1669,-0.94544 5.5634,-1.08797 0.3963,-0.14248 0.5804,-0.0322 0.4092,0.24498 -0.1714,0.27723 -1.9903,1.0513 -4.042,1.72011 -2.0519,0.66884 -5.2666,1.93651 -7.143899,2.81702 -2.8873,1.35432 -3.600201,1.98718 -4.6267,4.10757 -0.667401,1.37867 -1.2002,3.05732 -1.1841,3.73039 0.187999,7.87739 -0.354402,13.18395 -1.382602,13.52492 -0.353499,0.11718 -1.1103,-0.2889 -1.681998,-0.90249 z M 75.16883,160.60812 c -2.573501,-2.3863 -1.999102,-4.04191 2.0192,-5.81935 3.172801,-1.40346 6.0731,-1.11469 7.0451,0.70141 0.8613,1.6092 -0.5992,2.67245 -3.111101,2.26486 -1.714399,-0.27826 -1.9276,-0.1379 -3.008,1.97996 -0.639599,1.25367 -1.222701,2.27941 -1.295699,2.27941 -0.074,0 -0.815401,-0.63283 -1.6495,-1.40629 z m 86.6269,-1.05651 c -1.8521,-1.02333 -2.0663,-1.38086 -0.5985,-0.99769 0.7151,0.18661 1.6295,0.66797 2.0318,1.06958 0.894,0.89247 0.254,0.86037 -1.4333,-0.072 z m 4.5441,-0.0103 c -0.591,-0.44696 -0.7835,-0.8206 -0.4279,-0.83031 1.0516,-0.0287 2.398,0.61629 2.398,1.14874 0,0.72543 -0.7502,0.6042 -1.9701,-0.31843 z m -3.9259,-3.31075 c -1.7828,-0.77568 -2.9062,-3.34161 -2.127,-4.85823 0.1994,-0.38798 -0.2952,0.0103 -1.0989,0.8858 -0.8036,0.87516 -1.3327,1.92585 -1.1758,2.33487 0.3447,0.89834 -0.5351,1.54532 -1.3861,1.01936 -0.4288,-0.26509 -0.3922,-0.51493 0.1223,-0.83294 0.4043,-0.24984 0.5615,-0.62783 0.3494,-0.84 -0.2123,-0.21217 -0.7844,-0.055 -1.2717,0.34949 -0.5707,0.47361 -1.0187,0.53655 -1.2589,0.17698 -0.2052,-0.30707 -0.8089,-0.71916 -1.3417,-0.91577 -0.7423,-0.2739 -0.9687,-0.9919 -0.9687,-3.07282 0,-2.99913 1.5314,-6.26465 4.4051,-9.39327 0.9262,-1.00824 1.684,-2.0235 1.684,-2.25612 0,-1.5879 6.1397,-4.48869 7.3614,-3.47803 0.3658,0.30263 1.2879,0.54268 2.049,0.53348 5.4166,-0.0655 10.2439,2.13116 11.785,5.36284 1.0631,2.22975 0.9808,2.2878 -1.4333,1.01076 -1.6338,-0.86418 -3.8853,-1.01259 -5.0011,-0.3297 -0.254,0.15544 0.8046,1.52268 2.3525,3.03834 2.7713,2.7137 3.1076,3.51629 2.8527,6.8085 -0.1669,2.15731 -0.8662,2.85824 -1.9522,1.95688 -0.6259,-0.51937 -0.8539,-0.53395 -0.8539,-0.0546 0,0.35971 -0.2882,0.47578 -0.6408,0.25797 -0.4389,-0.2713 -0.5425,-0.0209 -0.3285,0.79767 0.4618,1.76591 0.132,1.48775 -1.8344,-1.54691 -1.8495,-2.8543 -4.6373,-4.66114 -6.7162,-4.35301 -1.1415,0.16904 -1.1331,0.214 0.2879,1.55805 1.847,1.74697 2.0796,5.17692 0.4114,6.06963 -1.3809,0.73911 -2.1395,0.69839 -4.2713,-0.22919 z m 2.5745,-4.7007 c 0,-0.28646 -0.249,-0.67482 -0.5535,-0.86299 -0.3044,-0.18806 -0.5535,0.0462 -0.5535,0.52089 0,0.47463 0.2491,0.86301 0.5535,0.86301 0.3045,0 0.5535,-0.23442 0.5535,-0.52091 z m 6.9194,-3.64791 c -1.0751,-0.88144 -2.3435,-1.35618 -3.5979,-1.34694 -1.9088,0.0145 -1.8923,0.0336 1.1069,1.31929 3.9486,1.69246 4.5301,1.69891 2.491,0.0276 z m -49.7802,6.06671 c -1.1066,-1.10673 -1.1208,-2.79022 -0.026,-3.21001 0.7019,-0.26934 0.726,-0.51062 0.1436,-1.44309 -0.896,-1.43486 -1.1065,-1.413 -3.1782,0.33012 -0.9477,0.7974 -2.4665,1.50831 -3.3751,1.57978 -0.9087,0.0715 -1.8132,0.29091 -2.0099,0.48762 -0.1966,0.1967 -0.9541,0.35769 -1.6832,0.35769 -1.2672,0 -1.3083,-0.11549 -0.9339,-2.62937 0.4599,-3.08703 1.7153,-4.39693 6.5956,-6.88181 1.8267,-0.93009 3.4387,-1.79967 3.5821,-1.93236 1.0418,-0.96406 -6.0261,-2.59623 -7.9973,-1.84677 -0.7684,0.29216 -1.3971,0.31877 -1.3971,0.0589 0,-0.67355 1.5883,-1.90164 2.6756,-2.06883 1.2371,-0.19016 8.942,-1.26598 10.3329,-1.44272 0.6091,-0.0774 1.3049,-0.38976 1.5467,-0.69419 0.2706,-0.34081 0.7753,-0.0749 1.313,0.69194 1.0485,1.495 2.1741,1.61197 2.527,0.26252 0.2897,-1.10821 2.4996,-1.48331 3.5589,-0.60415 0.3811,0.31644 0.9032,0.44545 1.1601,0.2867 0.2568,-0.1588 0.7609,0.18201 1.12,0.757 0.4133,0.66175 0.4539,1.16864 0.111,1.38073 -0.2983,0.18436 -0.5422,-0.0534 -0.5422,-0.52787 0,-0.47464 -0.2225,-0.86299 -0.4945,-0.86299 -0.7968,0 -1.0582,1.28312 -0.5434,2.66832 0.5973,1.60687 3.0255,1.52424 2.8885,-0.0983 -0.063,-0.75102 0.078,-0.86264 0.5258,-0.41489 0.4478,0.44775 0.4404,0.78489 -0.027,1.25283 -0.7758,0.77586 1.1278,3.7882 2.3939,3.7882 0.436,0 0.7928,0.4835 0.7928,1.07444 0,0.59092 0.2756,1.24481 0.6125,1.45307 0.4319,0.26688 0.4024,0.50863 -0.1,0.8191 -0.3919,0.24225 -0.7646,1.51889 -0.8279,2.83696 -0.1103,2.28989 -0.1955,2.40062 -1.9153,2.48979 -0.9899,0.0512 -2.0036,0.42285 -2.2525,0.82568 -0.3606,0.5833 -0.5927,0.59248 -1.14,0.0453 -0.378,-0.37804 -1.0734,-0.69038 -1.5453,-0.69416 -0.472,-0.005 -1.4133,-0.86403 -2.0918,-1.9117 -0.842,-1.30013 -1.9415,-2.11685 -3.4632,-2.57281 -2.7334,-0.81893 -3.3531,-0.34586 -1.7634,1.34628 1.3512,1.43823 1.5305,3.49571 0.431,4.94414 -0.9191,1.21076 -3.8328,1.26833 -5.0022,0.0987 z m 4.1122,-4.0014 c 0,-0.78227 -1.2983,-1.77136 -2.325,-1.77136 -1.3716,0 -1.2491,0.7194 0.2492,1.46143 1.5923,0.78864 2.0758,0.86084 2.0758,0.30993 z m -1.9974,-3.82006 c 4.1169,-0.42492 3.3566,-1.46399 -0.8485,-1.1598 -2.0962,0.15169 -3.7859,0.62974 -4.738,1.34059 -2.301,1.718 -2.1187,2.42711 0.3145,1.22323 1.2079,-0.59759 3.5802,-1.22942 5.272,-1.40402 z m 23.3567,-20.07714 c 0.6353,-0.25691 2.0054,-0.26659 3.0447,-0.0214 1.7101,0.40318 1.6002,0.44757 -1.1548,0.46713 -2.1815,0.0146 -2.7172,-0.11089 -1.8899,-0.44554 z m -131.965201,136.52034 0.1433,-28.90052 1.6606,-0.34803 c 4.006,-0.83954 19.8324,-6.97384 24.601501,-9.5355 2.874899,-1.54422 8.329498,-4.24599 12.1213,-6.00397 3.7919,-1.75798 7.667199,-3.93209 8.611799,-4.83138 0.944599,-0.89924 2.5893,-2.15551 3.654901,-2.79168 3.297201,-1.96843 9.8576,-8.87322 12.578599,-13.23878 2.7642,-4.43504 3.069402,-6.23791 1.3145,-7.76635 -1.727301,-1.50435 -6.1434,-9.62954 -6.1434,-11.30311 0,-0.85167 -0.473099,-3.47239 -1.0512,-5.82388 -1.5855,-6.44884 -2.466899,-13.48845 -2.042898,-16.31608 0.311599,-2.07849 0.860298,-2.97641 3.096498,-5.0682 1.8084,-1.6914 3.206602,-2.54217 4.1784,-2.54217 0.849202,0 3.4055,-1.29421 6.1086,-3.09285 6.711201,-4.4655 15.600501,-8.26246 20.381001,-8.70553 2.3701,-0.21966 4.7893,-0.85752 6.3658,-1.67852 3.8616,-2.01099 19.6792,-7.03035 23.8046,-7.55377 2.0063,-0.25461 5.5163,-0.79568 7.7998,-1.20238 2.3452,-0.41767 7.7645,-0.72093 12.4549,-0.69693 7.5177,0.0385 8.6609,0.17742 12.0833,1.46933 4.8104,1.81589 14.6381,7.77592 16.353,9.91756 0.8165,1.0196 1.7127,3.4571 2.3725,6.45248 1.5054,6.83625 1.4209,6.66485 3.3782,6.85657 1.3391,0.13118 2.1413,0.72924 3.4147,2.54593 1.966,2.80521 2.1591,6.1601 0.6527,11.34252 -0.9219,3.17117 -2.7419,12.15627 -3.6966,18.24911 -0.6924,4.41968 -2.707,7.48813 -5.0651,7.71505 -1.8056,0.17364 -1.8169,0.19373 -2.1635,3.77274 -0.8945,9.23549 -7.0947,20.59424 -15.7186,28.79643 -5.6829,5.40504 -6.2855,5.93349 -7.1389,6.261 -0.4626,0.17763 -1.575,1.89026 -2.4719,3.80606 -2.5419,5.42934 -10.9677,13.43135 -15.1268,14.36583 -2.0648,0.46392 -2.5342,0.32822 -5.9058,-1.70738 -2.0146,-1.21624 -4.6591,-3.09819 -5.8771,-4.18211 -1.5967,-1.42103 -0.7641,-1.01673 2.9844,1.44936 7.0907,4.66496 8.0745,4.62424 13.8239,-0.57237 5.052,-4.56599 6.1388,-5.75588 7.8152,-8.55573 0.9667,-1.61438 1.1093,-2.23561 0.5871,-2.55836 -0.4805,-0.29686 -0.043,-0.90578 1.4421,-2.0063 9.23,-6.84057 13.1748,-11.0189 18.4824,-19.57653 3.4464,-5.5567 5.4673,-11.0885 5.9728,-16.35022 0.3652,-3.79853 0.4051,-3.87847 2.0333,-4.0576 3.5566,-0.39134 4.4609,-2.16836 6.1049,-11.99544 0.5092,-3.04453 1.5236,-8.19436 2.254,-11.44399 0.7305,-3.2497 1.3281,-6.16527 1.3281,-6.47909 0,-0.87715 -2.7124,-3.38871 -3.6596,-3.38871 -1.5812,0 -2.983,-1.14472 -2.983,-2.43607 0,-0.70951 -0.6315,-4.08797 -1.4035,-7.50771 -1.0124,-4.48448 -1.8169,-6.73553 -2.8858,-8.07524 -1.9502,-2.44412 -2.1315,-2.09884 -0.4793,0.9131 1.8494,3.37148 2.4752,6.90065 2.804,15.81049 0.332,8.99462 -0.276,7.60424 -1.6072,-3.67493 -0.9579,-8.11606 -1.8039,-10.51054 -5.0573,-14.31133 -2.5383,-2.96527 -5.8675,-4.85082 -9.3427,-5.29133 -1.5118,-0.19163 -2.9504,-0.7085 -3.1966,-1.14853 -0.297,-0.53067 -1.1421,-0.74168 -2.5098,-0.62664 -2.2992,0.19331 -4.553,-0.45368 -4.553,-1.30725 0,-0.35324 1.2725,-0.43161 3.4597,-0.21302 4.3295,0.4327 4.0114,-0.11588 -0.487,-0.84044 -2.257,-0.36346 -4.6228,-0.35095 -7.1823,0.038 -2.0993,0.31901 -6.2348,0.61071 -9.19,0.64826 -4.5679,0.058 -5.4868,0.22389 -6.133,1.10707 -0.6234,0.8524 -0.9688,0.92688 -1.925,0.41513 -0.6409,-0.34304 -1.7151,-0.62365 -2.3875,-0.62365 -1.9823,0 -8.8145,2.20937 -8.8145,2.85041 0,0.32414 -0.3737,0.44598 -0.8303,0.27072 -0.4567,-0.17532 -0.8304,-0.0625 -0.8304,0.25021 0,0.3129 -0.2289,0.42739 -0.5086,0.25453 -0.5274,-0.32596 -7.2974,1.88945 -10.3916,3.40051 -0.9715,0.4745 -1.9164,1.2533 -2.0996,1.73072 -0.2823,0.7357 -0.1752,0.72509 0.703,-0.0697 1.6091,-1.45617 2.1285,-1.10393 0.6666,0.45212 -0.8449,0.89945 -1.439,1.174 -1.6837,0.77814 -0.2654,-0.42958 -0.886,-0.34894 -2.0846,0.27085 -0.9386,0.48538 -2.1549,0.89479 -2.7028,0.9098 -0.5479,0.0145 -2.9613,0.85635 -5.3632,1.8697 -3.573499,1.50773 -4.4988,2.15638 -5.093599,3.57082 -0.3996,0.95059 -0.987901,1.72841 -1.307002,1.72841 -0.755698,0 -0.735698,-0.21717 0.232801,-2.53534 0.671299,-1.60631 1.517201,-2.2765 4.843701,-3.8372 2.216799,-1.04008 3.535799,-1.89995 2.931299,-1.9109 -1.5804,-0.0284 -16.253401,7.35589 -18.552,9.3367 -1.336799,1.15194 -1.655699,1.67645 -1.028801,1.69198 0,0 -2.7536,1.53321 -2.4542,1.3294 l -2.6527,-1.34914 -1.564201,1.1139 c -1.927899,1.37271 -3.094098,3.11658 -3.540799,5.29421 -0.352298,1.71796 0.686101,13.07219 1.2403,13.56203 0.172202,0.15233 0.349099,1.02405 0.392901,1.93742 0.1127,2.3532 2.275898,7.80759 3.7977,9.57598 1.1244,1.30665 1.693701,1.49508 4.5169,1.49508 1.776601,0 3.5417,0.20148 3.9223,0.44786 0.3805,0.2463 0.691899,0.27808 0.691899,0.0705 0,-0.20759 0.3737,-0.0671 0.8304,0.31189 0.456602,0.37899 0.801301,1.46815 0.766,2.42033 -0.043,1.17071 -0.1514,1.37279 -0.333899,0.62419 -0.5091,-2.08998 -1.634101,-2.81435 -4.017801,-2.58702 -1.903298,0.18155 -2.234898,0.39737 -2.1522,1.40075 0.054,0.65247 0.029,1.68448 -0.054,2.29338 -0.1139,0.83193 -0.2385,0.70986 -0.5013,-0.49116 -0.2061,-0.94222 -0.8518,-1.78367 -1.5732,-2.04981 -1.053801,-0.38897 -0.919501,-0.0146 0.9681,2.70536 1.205299,1.7363 2.1917,3.68686 2.192099,4.33465 0,0.64775 0.374402,1.48777 0.831102,1.86681 0.456599,0.37905 0.830299,1.15681 0.830299,1.72842 0,0.57164 0.231299,1.03936 0.513699,1.03936 0.2827,0 1.0486,1.43233 1.7022,3.18291 2.475801,6.63099 5.1537,10.14984 11.1004,14.58657 4.656502,3.47402 12.619602,10.17823 12.921702,10.87869 0.5747,1.33273 -5.1643,-2.74824 -10.0912,-7.17569 -1.622901,-1.45846 -3.2284,-2.65169 -3.567702,-2.65169 -0.3394,0 -1.345999,-0.68503 -2.2367,-1.52228 l -1.6197,-1.52228 0.862301,1.70369 c 1.3262,2.62021 8.722601,11.35813 16.409101,19.38528 3.8183,3.98755 10.0304,10.54406 13.8045,14.57001 l 6.8624,7.31991 2.8249,-2.74634 c 2.8555,-2.77619 3.4753,-3.02736 9.3189,-3.77748 1.4405,-0.18497 2.5234,-0.49179 2.4065,-0.68194 -0.3625,-0.58956 3.0787,-0.61981 4.1683,-0.0366 1.8773,1.00467 5.4335,7.14034 7.1349,12.31086 l 1.6765,5.09376 -0.2832,-8.508 c -0.3358,-10.08254 0.2447,-26.46112 0.9013,-25.42623 0.3312,0.52247 0.4694,0.41615 0.5009,-0.38608 0.041,-1.055 0.066,-1.05137 0.5214,0.0772 0.6671,1.65299 9.04,6.98129 15.611,9.93455 10.1757,4.57335 21.7277,10.61977 25.9108,13.56199 2.2834,1.60601 6.5181,5.30379 9.4104,8.21724 4.0933,4.12317 5.7141,6.22667 7.3129,9.49116 3.4592,7.06297 5.4121,12.46262 5.7799,15.98146 l 0.3513,3.35974 -31.4243,-0.14311 -31.4244,-0.14288 -1.8095,-7.19622 c -2.0034,-7.96703 -2.6778,-9.95521 -3.5624,-10.50195 -0.3281,-0.20275 -0.4467,-0.61165 -0.2632,-0.90843 0.4041,-0.65385 -0.831,-2.61533 -3.1233,-4.96031 l -1.6991,-1.7382 0.3586,5.73312 c 0.2593,4.14674 0.8021,7.03517 1.9613,10.43837 0.8814,2.58786 1.7659,5.76389 1.9656,7.05779 l 0.3629,2.35261 h -11.6627 c -7.1779,0 -11.7944,-0.21287 -12.0049,-0.55355 -0.1907,-0.30867 0.2298,-0.55357 0.9507,-0.55357 1.1442,0 1.2986,-0.27053 1.3426,-2.3526 0.028,-1.29394 0.096,-3.88519 0.1529,-5.75836 0.1356,-4.4714 -1.9069,-12.20701 -4.4984,-17.03782 -0.9255,-1.72508 -1.5083,-4.18949 -0.9909,-4.18949 0.2626,0 0.6253,0.46535 0.8058,1.03409 0.1806,0.56876 0.8033,1.464 1.3839,1.98944 0.5806,0.52541 0.9247,1.29675 0.7645,1.71402 -0.1601,0.41727 0.1858,1.45251 0.7686,2.30055 1.3446,1.95635 2.7233,5.80724 3.2274,9.01491 0.337,2.144 0.4559,2.31752 0.8538,1.24551 0.2661,-0.71672 0.9278,-1.24551 1.5585,-1.24551 0.9777,0 1.0335,0.17949 0.5169,1.6617 -0.5659,1.6233 -1.5774,2.76764 -1.5774,1.78453 0,-0.27165 -0.3787,-0.49395 -0.8415,-0.49395 -0.8695,0 -1.0024,2.42672 -0.4371,7.98038 l 0.2393,2.3526 h 8.848 8.8481 l -0.3636,-2.07582 c -0.2,-1.14169 -0.6817,-2.33209 -1.0706,-2.64529 -0.3887,-0.31323 -0.8255,-1.44997 -0.9706,-2.52611 -0.145,-1.0761 -0.5883,-2.56336 -0.9854,-3.30508 -1.1911,-2.22556 -0.5693,-16.72894 0.6355,-14.82749 0.3739,0.59002 0.4751,0.59592 0.4819,0.028 0.018,-1.66034 4.036,3.37959 6.1244,7.68502 1.9189,3.95605 2.2047,4.32445 1.8956,2.44398 -0.1998,-1.21783 -0.5533,-3.95793 -0.7851,-6.08906 l -0.4216,-3.87489 -0.099,3.32132 c -0.087,2.93627 -0.1864,3.20566 -0.8553,2.32365 -0.4161,-0.54874 -1.4317,-3.71863 -2.2567,-7.04426 -1.6693,-6.72849 -3.8604,-11.79984 -5.9152,-13.69016 -1.4483,-1.33238 -1.1845,-1.3512 -7.0154,0.50036 -1.4162,0.44968 -2.1904,0.41669 -3.2259,-0.13748 -1.317,-0.7049 -1.5864,-0.49478 -8.1005,6.32044 -3.706,3.87729 -6.3645,6.89121 -5.9079,6.69766 0.4568,-0.19354 1.2042,-0.38654 1.6607,-0.42886 0.4568,-0.0423 1.0135,-0.32597 1.2371,-0.63045 0.6242,-0.84968 0.5071,0.39818 -0.13,1.38388 -0.2951,0.45667 -0.5404,0.63778 -0.545,0.40241 -0.01,-0.23535 -0.6295,-0.0212 -1.3883,0.47616 -0.8326,0.54557 -1.9052,0.77228 -2.7045,0.57172 -0.9019,-0.22641 -1.557,-0.0251 -2.0531,0.63089 -0.6193,0.81885 -0.6121,0.85956 0.048,0.27141 0.4267,-0.38055 1.0375,-0.68399 1.3572,-0.6743 0.3197,0.0103 0.1211,0.3662 -0.4412,0.79228 -0.5625,0.42612 -1.3098,0.66802 -1.6608,0.53764 -0.3509,-0.13036 -2.1021,1.01748 -3.8914,2.55085 -1.7894,1.53334 -3.3684,2.6729 -3.509,2.53233 -0.1406,-0.14057 0.8253,-1.20672 2.1463,-2.36919 2.5674,-2.25936 10.0727,-9.2743 13.0558,-12.20291 l 1.8085,-1.77556 -3.1867,-3.25205 c -1.7527,-1.78863 -4.3479,-4.59396 -5.7671,-6.23408 -1.7778,-2.05444 -2.9547,-2.9538 -3.7839,-2.89137 -0.8271,0.0623 -1.1101,-0.15274 -0.9048,-0.68759 0.1774,-0.46255 -0.6622,-1.62891 -2.07,-2.87532 -3.0541,-2.70406 -15.615001,-17.10472 -19.790701,-22.68939 -3.625701,-4.84929 -6.597099,-10.19633 -8.8589,-15.94175 -1.6743,-4.25258 -2.035601,-3.44252 -0.989399,2.21729 0.771099,4.17101 2.8761,9.50926 7.965498,20.20117 3.484401,7.31996 7.978902,18.0334 10.101802,24.07955 1.7054,4.85708 8.2086,20.6738 8.9902,21.86538 0.4993,0.76112 0.8664,1.94433 0.8159,2.62935 -0.05,0.68499 0,1.2455 0.1028,1.2455 0.2734,0 2.1946,-1.56711 5.0061,-4.08377 1.3186,-1.18046 2.3977,-1.88921 2.3977,-1.57493 0,0.31427 -1.5299,1.92229 -3.3998,3.57341 l -3.4,3.00201 2.708,7.92824 c 1.9026,5.57064 2.994,8.0045 3.6704,8.18462 3.829,1.01997 -5.352,1.23765 -52.203801,1.23765 h -52.5597 l 0.1433,-28.90052 z m 101.720201,27.3104 c 0,-0.96602 -5.1622,-15.05084 -10.2714,-28.02498 -2.8775,-7.30689 -5.458,-14.03256 -5.7346,-14.94592 -0.8569,-2.8299 -6.378899,-15.6278 -10.748199,-24.90989 -5.742501,-12.19951 -7.137501,-16.51695 -7.332901,-22.69563 -0.087,-2.74012 -0.1748,-5.10433 -0.195601,-5.25384 -0.02101,-0.1496 -1.375198,1.72598 -3.010001,4.16779 -3.279499,4.89839 -8.824999,10.71325 -12.250398,12.84526 -1.217801,0.75801 -3.085899,2.19161 -4.151601,3.18572 -1.065599,0.99414 -4.3038,2.85467 -7.196199,4.13448 -2.892401,1.27983 -8.263601,3.91396 -11.9361,5.85364 -5.665001,2.99203 -21.308901,9.16587 -26.397401,10.41768 l -1.5222,0.3745 v 27.6671 27.66712 H 66.98073 c 28.3074,0 50.3733,-0.21162 50.3733,-0.48303 z m 105.6983,-2.14635 c -0.4967,-3.1213 -3.1481,-9.96768 -5.9489,-15.36112 -2.4614,-4.73989 -9.9561,-12.46463 -16.4397,-16.94404 -2.4356,-1.68275 -10.4777,-5.97833 -17.8716,-9.54574 -7.3937,-3.56739 -15.3649,-7.71344 -17.7138,-9.21345 l -4.2703,-2.72727 -0.4481,3.99254 c -0.2504,2.23144 -0.1797,10.95145 0.1604,19.76882 0.6047,15.68024 1.1531,19.93812 3.9389,30.5838 l 0.5432,2.07584 h 29.2343 29.2342 z m -60.863,-3.85405 c -0.6032,-0.94062 -0.6189,-0.9394 -0.3159,0.0246 0.1751,0.55766 0.338,1.30497 0.3622,1.66063 0.031,0.46675 0.1194,0.45995 0.3159,-0.0246 0.1497,-0.36912 -0.012,-1.11638 -0.3622,-1.66068 z m -21.0325,-33.92593 c 0,-0.3045 -0.1098,-0.55357 -0.2441,-0.55357 -0.1344,0 -0.398,0.24907 -0.5862,0.55357 -0.1882,0.30442 -0.078,0.55355 0.2441,0.55355 0.3224,0 0.5862,-0.24913 0.5862,-0.55355 z m 50.6975,-96.89945 c -1.6542,-2.4996 -3.4241,-2.93889 -3.4241,-0.84979 0,1.01814 0.3658,1.40999 1.5347,1.64375 0.844,0.16886 1.8522,0.81521 2.2401,1.4364 0.3878,0.62121 0.7934,0.8655 0.9008,0.54287 0.1076,-0.32261 -0.4555,-1.57057 -1.2515,-2.77323 z m -86.2749,-15.25278 c -0.1837,-0.18391 -0.6612,-0.20357 -1.0609,-0.0437 -0.4416,0.17677 -0.3105,0.30787 0.3345,0.33443 0.5835,0.0241 0.9103,-0.1067 0.7264,-0.29075 z m 33.3632,151.79566 c 0,-0.11672 0.4983,-0.34244 1.1072,-0.50169 0.6088,-0.15924 1.107,-0.0638 1.107,0.21219 0,0.27599 -0.4982,0.50173 -1.107,0.50173 -0.6089,0 -1.1072,-0.0954 -1.1072,-0.21223 z m 8.0339,-5.66765 c -1.0334,-2.4732 -1.0423,-2.72877 -0.068,-1.91983 0.6559,0.54436 1.5852,3.92486 1.0789,3.92486 -0.095,0 -0.5503,-0.90229 -1.0113,-2.00503 z m 2.4835,-0.24186 c 0,-0.32242 0.2491,-0.43225 0.5536,-0.2441 0.3046,0.18809 0.5536,0.45195 0.5536,0.5862 0,0.13434 -0.249,0.24411 -0.5536,0.24411 -0.3045,0 -0.5536,-0.26379 -0.5536,-0.58621 z m -18.7977,-1.58476 c -0.7331,-1.36979 -2.2368,-7.7357 -2.1677,-9.17685 0.029,-0.60891 0.3645,0.1383 0.7453,1.66066 0.381,1.52228 1.0872,4.07556 1.5697,5.67391 0.9045,2.99675 0.8482,3.70205 -0.1471,1.84228 z m 14.3693,-0.5641 c 0,-0.28648 0.2465,-0.67308 0.5472,-0.85908 0.3139,-0.19398 0.4067,0.0283 0.2177,0.52088 -0.368,0.95899 -0.7649,1.13443 -0.7649,0.3382 z m -18.8344,-2.00614 c -0.6864,-1.80549 -0.7174,-4.52495 -0.043,-3.81115 0.5955,0.63052 1.4065,5.23107 0.9223,5.23107 -0.1864,0 -0.5821,-0.63897 -0.879,-1.41992 z m 4.7453,-1.43166 c -1.047,-3.52482 -1.757,-9.775 -0.8858,-7.7984 0.7754,1.75992 2.4196,10.10463 2.0615,10.46284 -0.1632,0.16295 -0.6922,-1.036 -1.1757,-2.66444 z m 11.9407,0.49896 c -0.2857,-0.98946 -0.5419,-1.42303 -0.5694,-0.96348 -0.027,0.45957 -0.5542,1.15062 -1.1709,1.53563 -1.0457,0.65305 -1.0963,0.5969 -0.7538,-0.83554 0.5116,-2.13893 0.6915,-2.36596 1.8747,-2.36596 1.2259,0 1.4053,0.24601 1.9163,2.62935 0.2431,1.13316 0.1707,1.79906 -0.1956,1.79906 -0.3199,0 -0.8155,-0.80958 -1.1012,-1.79906 z m 4.1222,1.1867 c 0.3716,-0.60123 1.738,-0.65322 2.0922,-0.0795 0.1409,0.22839 -0.3408,0.451 -1.0709,0.4948 -0.7299,0.0437 -1.1894,-0.14312 -1.0213,-0.41516 z m -1.6969,-3.81605 -1.6607,-0.42256 1.7664,-0.0655 c 0.9715,-0.036 1.9204,0.18371 2.1086,0.48806 0.3786,0.61259 0.1932,0.61259 -2.2143,0 z m -5.2587,-5.15102 c 0,-0.79026 1.701,-1.66742 4.4283,-2.28361 0.8021,-0.18116 0.4891,0.0996 -0.7444,0.6679 -1.1707,0.53929 -2.0916,1.22376 -2.0467,1.52104 0.045,0.29727 -0.3048,0.621 -0.7777,0.71946 -0.4728,0.0983 -0.8595,-0.18265 -0.8595,-0.62479 z m 3.3213,-0.59673 c 0,-0.11674 0.4985,-0.34259 1.1078,-0.50192 0.6094,-0.15942 0.9682,-0.0638 0.7978,0.21219 -0.298,0.48213 -1.9056,0.72649 -1.9056,0.28973 z m 5.7719,-5.58822 c -0.9367,-0.70853 -0.9525,-0.80914 -0.1308,-0.8246 0.5148,-0.0103 1.1001,0.24807 1.301,0.57277 0.6028,0.97568 -0.033,1.11249 -1.1704,0.25183 z m -11.4459,-1.1616 c -0.874,-0.88146 -0.3343,-1.73632 1.8828,-2.98238 1.2636,-0.71031 2.1209,-1.00527 1.9046,-0.65549 -0.216,0.34976 -0.1501,0.63596 0.1471,0.63596 0.297,0 0.6657,-0.31138 0.8192,-0.69193 0.1766,-0.43697 0.2954,-0.35679 0.3231,0.21753 0.024,0.5002 -0.3505,1.06072 -0.832,1.24547 -1.2231,0.4694 -1.4567,0.42151 -1.0618,-0.21754 0.4192,-0.67849 -0.2844,-0.70704 -1.3165,-0.0533 -0.4443,0.28148 -0.582,0.7758 -0.3295,1.18417 0.271,0.43883 0.2098,0.56291 -0.1642,0.33185 -0.3284,-0.20293 -0.6781,0.0299 -0.7774,0.51771 -0.099,0.48768 -0.367,0.69835 -0.5954,0.46806 z m 9.5889,-7.22824 c -1.7643,-2.24297 -1.5232,-3.53157 0.6518,-3.48451 1.4738,0.0318 1.5989,0.11946 0.692,0.48427 -0.609,0.24496 -1.2841,0.34348 -1.5002,0.21894 -0.2161,-0.12451 -0.1293,0.52934 0.1926,1.45313 0.322,0.92379 0.9201,1.67959 1.3289,1.67959 0.409,0 0.8976,0.24914 1.0857,0.55359 0.7676,1.24193 -1.3882,0.4459 -2.4508,-0.90501 z m 3.1463,-0.53594 c 0.3824,-0.17279 0.5346,-0.57442 0.3381,-0.89237 -0.1964,-0.31794 -0.055,-0.47726 0.3148,-0.35402 1.0146,0.33816 0.7826,1.28603 -0.3505,1.43208 -0.5487,0.0707 -0.6849,-0.0124 -0.3024,-0.18557 z m -1.0429,-4.46201 c -0.6888,-0.83508 -0.6435,-0.85904 0.4859,-0.25728 1.288,0.68634 1.6052,1.17825 0.7596,1.17825 -0.267,0 -0.8276,-0.41444 -1.2455,-0.92097 z m -3.3543,-4.9927 c 0.3994,-0.15984 0.8768,-0.14019 1.0609,0.0437 0.1838,0.18387 -0.1432,0.31474 -0.7265,0.29069 -0.6448,-0.0266 -0.7762,-0.15771 -0.3344,-0.33439 z m 38.5117,-74.8731 c 0,-1.50339 0.2014,-2.60911 0.4472,-2.45713 0.5727,0.35398 0.5667,3.59412 -0.01,4.49982 -0.2498,0.39346 -0.4386,-0.48575 -0.4386,-2.04269 z m 2.5548,-11.37976 c 0,-0.45667 0.098,-0.83034 0.2176,-0.83034 0.1197,0 0.361,0.37367 0.5362,0.83034 0.1754,0.45667 0.077,0.83032 -0.2175,0.83032 -0.295,0 -0.5363,-0.37365 -0.5363,-0.83032 z m -8.3286,-20.2521 c -0.3399,-0.63498 -0.5136,-1.25879 -0.3862,-1.38621 0.1275,-0.12742 0.5159,0.39209 0.8633,1.15451 0.7629,1.67423 0.3915,1.85462 -0.4771,0.2317 z" 
       />
</svg>
