<?xml version="1.0" standalone="no"?>
<!DOCTYPE svg PUBLIC "-//W3C//DTD SVG 20010904//EN"
 "http://www.w3.org/TR/2001/REC-SVG-20010904/DTD/svg10.dtd">
<svg version="1.0" xmlns="http://www.w3.org/2000/svg"
 width="40" height="36" viewBox="0 0 2400.000000 2400.000000"
 preserveAspectRatio="xMidYMid meet">

<g transform="translate(0.000000,2400.000000) scale(0.100000,-0.100000)"
fill="#000000" stroke="none">
<path d="M11535 22670 c-873 -43 -1651 -169 -2455 -396 -2541 -718 -4752
-2379 -6167 -4634 -864 -1375 -1395 -2912 -1572 -4540 -44 -405 -55 -633 -55
-1140 0 -507 11 -735 55 -1140 170 -1571 668 -3046 1479 -4390 861 -1426 2067
-2654 3479 -3543 1208 -762 2543 -1270 3941 -1501 2945 -488 5936 264 8295
2083 660 509 1282 1118 1804 1766 992 1229 1698 2651 2071 4170 420 1711 410
3540 -31 5235 -634 2438 -2104 4574 -4159 6045 -1546 1106 -3363 1781 -5245
1950 -417 37 -1075 53 -1440 35z m910 -2000 c696 -38 1357 -148 1995 -334
2478 -721 4517 -2507 5563 -4871 714 -1615 919 -3426 587 -5180 -221 -1168
-691 -2294 -1367 -3284 -960 -1402 -2313 -2501 -3883 -3153 -719 -298 -1502
-503 -2285 -597 -588 -71 -1278 -80 -1870 -25 -1369 127 -2673 570 -3845 1306
-1572 987 -2803 2475 -3487 4213 -171 435 -316 921 -414 1389 -249 1191 -248
2411 1 3607 494 2368 1980 4449 4070 5701 434 260 931 500 1395 676 833 314
1734 504 2620 551 224 12 704 12 920 1z"/>
<path d="M12051 20564 c-3 -58 -34 -347 -52 -484 -98 -774 -289 -1429 -554
-1912 -238 -432 -567 -794 -959 -1057 -546 -367 -1232 -602 -2246 -771 -129
-22 -293 -47 -365 -56 -71 -9 -136 -20 -143 -23 -7 -4 70 -13 170 -20 1796
-125 2985 -830 3619 -2145 273 -567 439 -1232 509 -2036 6 -69 15 -129 19
-133 5 -4 66 -12 137 -18 1542 -113 2629 -650 3340 -1649 225 -316 433 -741
569 -1160 132 -410 227 -889 270 -1360 23 -256 30 -274 38 -100 14 287 66 643
132 914 285 1165 984 2090 2045 2706 579 336 1255 561 1836 612 l149 13 -105
7 c-438 32 -839 100 -1196 203 -1443 418 -2365 1423 -2720 2968 -77 332 -154
898 -154 1130 0 31 -4 57 -10 57 -5 0 -10 -17 -10 -37 0 -21 -11 -139 -25
-263 -267 -2379 -1167 -3415 -3358 -3869 -242 -51 -858 -151 -924 -151 -14 0
-15 14 -9 118 54 950 323 1736 827 2418 451 611 1126 1128 1891 1449 500 210
1065 346 1478 356 48 1 44 3 -30 10 -267 26 -495 54 -646 79 -1689 281 -2764
1154 -3243 2633 -125 388 -218 872 -251 1317 -13 165 -27 289 -29 254z"/>
<path d="M4834 13231 c-162 -44 -253 -120 -329 -274 -71 -145 -79 -280 -25
-434 55 -158 161 -266 360 -367 166 -84 233 -133 254 -187 21 -52 21 -167 0
-197 -35 -51 -110 -65 -183 -36 -49 19 -70 66 -78 172 l-6 72 -187 0 -187 0
-7 -67 c-16 -168 44 -358 141 -443 84 -74 269 -140 393 -140 144 0 306 65 401
159 47 47 60 70 88 146 41 113 51 167 51 270 0 96 -27 214 -67 288 -61 112
-216 229 -404 302 -140 55 -209 128 -209 221 0 109 104 183 204 144 35 -13 55
-48 68 -119 l12 -61 188 0 188 0 0 43 c-1 73 -27 191 -55 250 -51 109 -160
205 -281 248 -87 30 -238 35 -330 10z"/>
<path d="M8170 12290 l0 -930 180 0 180 0 -2 928 -3 927 -177 3 -178 2 0 -930z"/>
<path d="M5853 12903 l-173 -95 0 -59 0 -59 -64 0 c-36 0 -67 -3 -69 -8 -3 -4
-3 -73 0 -155 l6 -147 63 0 63 0 4 -397 c3 -441 4 -444 69 -517 61 -70 118
-89 281 -94 l137 -4 0 200 0 200 -56 4 c-33 3 -60 11 -65 19 -5 8 -9 141 -9
296 l0 282 68 3 67 3 0 155 0 155 -67 3 -68 3 0 154 c0 85 -3 155 -7 154 -5 0
-86 -43 -180 -96z"/>
<path d="M10643 12699 c-29 -5 -89 -26 -135 -47 -130 -60 -189 -139 -208 -276
-24 -166 33 -317 146 -386 18 -12 83 -34 143 -50 128 -34 179 -57 214 -100 35
-42 40 -63 23 -104 -12 -28 -23 -37 -56 -46 -45 -12 -116 -5 -140 13 -26 20
-50 60 -50 84 0 23 -1 23 -150 23 l-150 0 0 -32 c1 -64 21 -172 41 -217 40
-91 136 -167 244 -195 207 -52 393 -12 504 109 91 100 118 220 82 368 -25 105
-40 135 -94 195 -48 51 -126 92 -225 117 -37 9 -86 21 -110 27 -64 16 -102 56
-102 108 0 97 77 146 165 105 37 -18 55 -51 55 -100 l0 -35 156 0 157 0 -7 63
c-16 141 -43 205 -112 266 -60 53 -132 87 -219 106 -77 16 -96 17 -172 4z"/>
<path d="M10079 12673 c-39 -21 -64 -43 -91 -82 l-38 -54 0 76 0 77 -170 0
-170 0 0 -660 0 -660 175 0 175 0 0 418 c0 312 3 423 13 442 20 40 78 62 178
68 l89 5 0 198 0 199 -53 0 c-38 0 -69 -8 -108 -27z"/>
<path d="M6575 12676 c-138 -32 -223 -95 -277 -204 l-33 -67 -3 -348 c-4 -455
7 -526 100 -619 51 -51 100 -74 197 -92 187 -36 359 -2 461 90 64 58 83 108
88 237 3 60 1 112 -4 117 -5 5 -73 6 -151 3 l-143 -6 0 -32 c0 -88 -118 -131
-212 -77 -39 23 -49 57 -46 158 l3 89 278 3 279 2 -4 239 -3 238 -35 69 c-28
55 -48 79 -98 116 -105 80 -267 114 -397 84z m205 -331 c34 -32 54 -85 45
-115 -6 -19 -15 -20 -137 -20 l-131 0 7 45 c8 59 20 82 59 106 46 29 118 22
157 -16z"/>
<path d="M7535 12675 c-137 -30 -223 -93 -277 -203 l-33 -67 -3 -355 c-3 -375
2 -447 41 -528 25 -55 82 -114 135 -141 47 -24 185 -51 261 -51 124 1 250 42
321 106 64 58 83 108 88 237 3 60 1 112 -4 117 -5 5 -73 6 -151 3 l-143 -6 0
-32 c0 -88 -118 -131 -212 -77 -39 22 -48 52 -48 157 l0 95 281 0 281 0 -4
238 c-3 233 -4 238 -30 294 -51 108 -154 183 -293 213 -84 18 -131 18 -210 0z
m206 -331 c31 -30 52 -85 43 -118 -5 -20 -11 -21 -136 -18 l-131 3 7 45 c8 58
20 81 59 105 46 29 118 22 158 -17z"/>
<path d="M8945 12675 c-33 -7 -82 -22 -108 -34 -60 -26 -145 -110 -177 -176
l-25 -50 0 -400 c0 -362 2 -405 18 -453 25 -71 83 -141 143 -174 55 -30 188
-58 273 -58 178 1 339 83 388 199 15 34 26 252 13 264 -3 3 -69 3 -147 0 -141
-6 -143 -6 -143 -29 0 -37 -17 -72 -45 -90 -31 -20 -110 -23 -154 -4 -48 20
-61 54 -61 165 l0 95 281 0 281 0 -4 238 c-3 231 -4 238 -30 294 -50 107 -155
184 -293 213 -84 18 -131 18 -210 0z m175 -310 c47 -24 70 -62 70 -114 l0 -46
-130 3 -130 3 0 30 c0 103 102 170 190 124z"/>
<path d="M12041 11897 c-22 -308 -97 -836 -162 -1142 -219 -1039 -630 -1769
-1269 -2255 -605 -460 -1470 -758 -2670 -920 -85 -12 -163 -25 -174 -28 -10
-4 67 -13 170 -20 666 -46 1285 -182 1788 -393 458 -193 824 -436 1156 -769
423 -422 716 -918 928 -1570 144 -442 227 -886 285 -1530 3 -34 5 -8 28 275
62 778 316 1514 727 2105 251 361 628 735 1012 1005 667 468 1572 793 2315
832 l130 7 -220 22 c-345 35 -583 76 -875 149 -1097 274 -1922 846 -2452 1699
-378 608 -620 1405 -688 2266 -14 168 -27 293 -29 267z"/>
</g>
</svg>
