<?xml version="1.0" encoding="UTF-8"?>
<svg xmlns="http://www.w3.org/2000/svg" xmlns:xlink="http://www.w3.org/1999/xlink" width="35" height="40" viewBox="0 0 180 180" version="1.1">
<g id="surface1">
<rect x="0" y="0" width="180" height="180" style="fill:rgb(17.651367%,30.979919%,59.179688%);fill-opacity:1;stroke:none;"/>
<path style=" stroke:none;fill-rule:evenodd;fill:rgb(0%,0.784302%,0%);fill-opacity:1;" d="M 18.15625 84.851563 C 18.351563 84.851563 18.488281 84.808594 18.574219 84.726563 C 18.65625 84.648438 18.699219 84.507813 18.699219 84.308594 L 18.699219 80.507813 C 18.699219 80.191406 18.8125 79.929688 19.046875 79.71875 C 19.277344 79.511719 19.582031 79.402344 19.953125 79.402344 C 20.328125 79.402344 20.640625 79.511719 20.890625 79.726563 C 21.140625 79.941406 21.265625 80.203125 21.265625 80.507813 L 21.265625 84.207031 C 21.265625 84.496094 21.296875 84.675781 21.355469 84.746094 C 21.410156 84.8125 21.550781 84.851563 21.773438 84.851563 L 25.351563 84.851563 C 25.789063 84.851563 26.125 84.953125 26.363281 85.15625 C 26.601563 85.359375 26.71875 85.652344 26.71875 86.023438 C 26.71875 86.441406 26.589844 86.75 26.332031 86.949219 C 26.074219 87.144531 25.695313 87.246094 25.179688 87.246094 L 21.773438 87.246094 C 21.589844 87.246094 21.457031 87.320313 21.378906 87.46875 C 21.300781 87.609375 21.265625 87.871094 21.265625 88.242188 L 21.265625 95.53125 C 21.265625 97.53125 21.441406 98.796875 21.789063 99.34375 C 22.140625 99.894531 22.769531 100.167969 23.675781 100.167969 C 24.457031 100.167969 25.0625 99.90625 25.496094 99.382813 C 25.925781 98.855469 26.140625 98.109375 26.140625 97.144531 C 26.140625 96.945313 26.128906 96.640625 26.105469 96.238281 C 26.082031 95.824219 26.070313 95.527344 26.070313 95.324219 C 26.070313 94.773438 26.171875 94.363281 26.378906 94.074219 C 26.582031 93.789063 26.882813 93.644531 27.28125 93.644531 C 27.820313 93.644531 28.195313 93.824219 28.414063 94.175781 C 28.636719 94.535156 28.75 95.167969 28.75 96.074219 C 28.75 98.1875 28.296875 99.800781 27.390625 100.921875 C 26.476563 102.039063 25.15625 102.597656 23.417969 102.597656 C 21.6875 102.597656 20.453125 102.15625 19.707031 101.28125 C 18.960938 100.398438 18.589844 98.914063 18.589844 96.828125 L 18.589844 88.242188 C 18.589844 87.800781 18.554688 87.519531 18.476563 87.414063 C 18.398438 87.300781 18.269531 87.246094 18.085938 87.246094 L 16.71875 87.246094 C 16.300781 87.246094 15.992188 87.152344 15.796875 86.960938 C 15.605469 86.769531 15.511719 86.464844 15.511719 86.058594 C 15.511719 85.640625 15.613281 85.328125 15.816406 85.140625 C 16.023438 84.945313 16.347656 84.851563 16.789063 84.851563 Z M 153.273438 93.976563 L 153.273438 94.082031 C 153.273438 96.050781 153.75 97.632813 154.699219 98.820313 C 155.644531 100.007813 156.902344 100.605469 158.46875 100.605469 C 159.421875 100.605469 160.222656 100.433594 160.875 100.082031 C 161.53125 99.726563 162.125 99.167969 162.660156 98.386719 C 162.863281 98.070313 163.078125 97.59375 163.304688 96.949219 C 163.660156 95.992188 164.101563 95.515625 164.636719 95.515625 C 164.972656 95.515625 165.257813 95.632813 165.484375 95.871094 C 165.710938 96.113281 165.828125 96.410156 165.828125 96.773438 C 165.828125 97.191406 165.6875 97.71875 165.414063 98.339844 C 165.140625 98.964844 164.78125 99.585938 164.328125 100.207031 C 163.625 101.136719 162.789063 101.824219 161.816406 102.269531 C 160.847656 102.710938 159.683594 102.933594 158.335938 102.933594 C 155.925781 102.933594 154.019531 102.097656 152.605469 100.425781 C 151.195313 98.75 150.484375 96.492188 150.484375 93.648438 C 150.484375 90.8125 151.195313 88.5625 152.605469 86.886719 C 154.019531 85.214844 155.925781 84.378906 158.335938 84.378906 C 160.648438 84.378906 162.496094 85.09375 163.886719 86.519531 C 165.269531 87.949219 165.960938 89.855469 165.960938 92.246094 C 165.960938 92.929688 165.84375 93.390625 165.617188 93.625 C 165.390625 93.855469 164.949219 93.976563 164.292969 93.976563 Z M 153.441406 91.683594 L 163.066406 91.683594 L 163.066406 91.457031 C 163.066406 90.035156 162.628906 88.882813 161.765625 87.996094 C 160.894531 87.113281 159.761719 86.671875 158.363281 86.671875 C 156.992188 86.671875 155.867188 87.117188 154.988281 88.011719 C 154.105469 88.914063 153.59375 90.132813 153.441406 91.683594 Z M 134.570313 93.574219 C 134.570313 90.699219 135.265625 88.453125 136.65625 86.804688 C 138.046875 85.164063 139.957031 84.34375 142.378906 84.34375 C 144.332031 84.34375 145.914063 84.828125 147.113281 85.792969 C 148.316406 86.757813 148.914063 88.019531 148.914063 89.570313 C 148.914063 90.46875 148.675781 91.1875 148.191406 91.71875 C 147.707031 92.253906 147.050781 92.519531 146.222656 92.519531 C 145.660156 92.519531 145.222656 92.382813 144.917969 92.109375 C 144.605469 91.835938 144.449219 91.453125 144.449219 90.957031 C 144.449219 90.617188 144.53125 90.316406 144.695313 90.039063 C 144.855469 89.757813 145.089844 89.535156 145.378906 89.355469 C 145.433594 89.320313 145.515625 89.292969 145.625 89.257813 C 145.863281 89.148438 145.984375 88.996094 145.984375 88.789063 C 145.984375 88.230469 145.652344 87.730469 144.988281 87.285156 C 144.328125 86.839844 143.53125 86.617188 142.609375 86.617188 C 140.890625 86.617188 139.5625 87.25 138.609375 88.515625 C 137.660156 89.785156 137.179688 91.566406 137.179688 93.867188 C 137.179688 95.882813 137.640625 97.496094 138.558594 98.71875 C 139.476563 99.9375 140.683594 100.546875 142.1875 100.546875 C 143.199219 100.546875 144.03125 100.320313 144.695313 99.878906 C 145.363281 99.433594 145.902344 98.730469 146.324219 97.757813 C 146.425781 97.539063 146.546875 97.191406 146.703125 96.714844 C 147.070313 95.621094 147.53125 95.070313 148.082031 95.070313 C 148.429688 95.070313 148.722656 95.1875 148.949219 95.425781 C 149.175781 95.660156 149.289063 95.957031 149.289063 96.320313 C 149.289063 96.851563 149.15625 97.480469 148.886719 98.203125 C 148.621094 98.925781 148.277344 99.570313 147.851563 100.148438 C 147.203125 101.015625 146.390625 101.671875 145.429688 102.113281 C 144.460938 102.558594 143.34375 102.785156 142.085938 102.785156 C 139.773438 102.785156 137.941406 101.957031 136.589844 100.304688 C 135.246094 98.652344 134.570313 96.40625 134.570313 93.574219 Z M 128.589844 97.691406 L 128.589844 90.558594 C 128.589844 88.917969 128.480469 87.890625 128.273438 87.492188 C 128.066406 87.09375 127.636719 86.890625 126.992188 86.890625 L 125.832031 86.890625 C 125.445313 86.890625 125.179688 86.8125 125.035156 86.664063 C 124.890625 86.507813 124.816406 86.246094 124.816406 85.875 C 124.816406 85.558594 124.921875 85.289063 125.136719 85.070313 C 125.351563 84.847656 125.613281 84.734375 125.925781 84.734375 C 125.992188 84.734375 126.226563 84.753906 126.636719 84.789063 C 127.050781 84.824219 127.433594 84.839844 127.792969 84.839844 C 128.386719 84.839844 129.003906 84.8125 129.652344 84.753906 C 129.8125 84.742188 129.902344 84.734375 129.933594 84.734375 C 130.375 84.734375 130.667969 84.824219 130.8125 84.996094 C 130.957031 85.171875 131.03125 85.574219 131.03125 86.207031 L 131.03125 97.691406 C 131.03125 98.765625 131.125 99.445313 131.320313 99.746094 C 131.511719 100.042969 131.917969 100.191406 132.53125 100.191406 C 132.664063 100.191406 132.824219 100.171875 133.003906 100.136719 C 133.179688 100.101563 133.304688 100.085938 133.375 100.085938 C 133.824219 100.085938 134.160156 100.179688 134.386719 100.375 C 134.609375 100.574219 134.722656 100.867188 134.722656 101.253906 C 134.722656 101.636719 134.625 101.90625 134.433594 102.066406 C 134.242188 102.226563 133.921875 102.304688 133.472656 102.304688 C 133.34375 102.304688 132.90625 102.269531 132.15625 102.195313 C 131.40625 102.132813 130.71875 102.09375 130.105469 102.09375 C 128.945313 102.09375 127.777344 102.148438 126.585938 102.261719 C 126.324219 102.292969 126.164063 102.304688 126.097656 102.304688 C 125.640625 102.304688 125.3125 102.222656 125.113281 102.054688 C 124.917969 101.886719 124.816406 101.625 124.816406 101.253906 C 124.816406 100.867188 124.929688 100.574219 125.152344 100.375 C 125.378906 100.179688 125.714844 100.085938 126.164063 100.085938 C 126.265625 100.085938 126.417969 100.101563 126.617188 100.136719 C 126.816406 100.171875 126.957031 100.191406 127.054688 100.191406 C 127.691406 100.191406 128.109375 100.046875 128.300781 99.761719 C 128.492188 99.476563 128.589844 98.789063 128.589844 97.691406 Z M 127.382813 81.289063 C 127.382813 80.746094 127.566406 80.28125 127.941406 79.914063 C 128.3125 79.535156 128.773438 79.351563 129.320313 79.351563 C 129.847656 79.351563 130.289063 79.535156 130.648438 79.914063 C 131 80.28125 131.179688 80.746094 131.179688 81.289063 C 131.179688 81.816406 131 82.269531 130.632813 82.640625 C 130.277344 83.015625 129.835938 83.199219 129.320313 83.199219 C 128.773438 83.199219 128.3125 83.015625 127.941406 82.652344 C 127.566406 82.28125 127.382813 81.828125 127.382813 81.289063 Z M 115.585938 87.652344 C 114.980469 87.664063 114.339844 87.679688 113.675781 87.710938 C 113.015625 87.738281 112.65625 87.757813 112.597656 87.757813 C 112.214844 87.757813 111.929688 87.675781 111.75 87.511719 C 111.308594 87.117188 111.414063 85.953125 111.84375 85.589844 C 112.085938 85.382813 112.417969 85.285156 112.835938 85.285156 C 112.878906 85.285156 113.160156 85.300781 113.667969 85.339844 C 114.179688 85.375 114.667969 85.390625 115.128906 85.390625 L 115.585938 85.390625 C 115.585938 85.308594 115.582031 85.1875 115.570313 85.035156 C 115.558594 84.878906 115.554688 84.757813 115.554688 84.675781 C 115.554688 82.707031 116.039063 81.085938 117.015625 80.066406 C 117.988281 79.046875 119.414063 78.539063 121.296875 78.539063 C 122.597656 78.539063 123.644531 78.832031 124.429688 79.421875 C 125.214844 80.015625 125.613281 80.789063 125.613281 81.753906 C 125.613281 82.28125 125.472656 82.699219 125.1875 83.015625 C 124.90625 83.332031 124.523438 83.488281 124.046875 83.488281 C 123.546875 83.488281 123.160156 83.367188 122.871094 83.132813 C 122.578125 82.902344 122.433594 82.589844 122.433594 82.191406 C 122.433594 82.054688 122.464844 81.855469 122.515625 81.605469 C 122.566406 81.355469 122.589844 81.183594 122.589844 81.074219 C 122.589844 80.914063 122.480469 80.785156 122.265625 80.707031 C 122.054688 80.625 121.714844 80.585938 121.265625 80.585938 C 120.230469 80.585938 119.449219 80.90625 118.914063 81.546875 C 118.382813 82.191406 118.121094 83.253906 118.121094 84.503906 C 118.121094 84.734375 118.121094 84.910156 118.128906 85.035156 C 118.132813 85.152344 118.144531 85.273438 118.167969 85.390625 C 118.925781 85.390625 119.722656 85.359375 120.542969 85.300781 C 120.742188 85.289063 120.859375 85.285156 120.902344 85.285156 C 121.367188 85.285156 121.730469 85.378906 121.980469 85.570313 C 122.453125 85.929688 122.527344 87.09375 122.070313 87.496094 C 121.871094 87.667969 121.566406 87.757813 121.160156 87.757813 C 121.113281 87.757813 120.996094 87.753906 120.800781 87.738281 C 119.917969 87.683594 119.066406 87.652344 118.238281 87.652344 L 118.238281 97.691406 C 118.238281 98.78125 118.324219 99.46875 118.492188 99.746094 C 118.660156 100.019531 119.015625 100.15625 119.546875 100.15625 C 119.589844 100.15625 119.769531 100.136719 120.070313 100.101563 C 120.375 100.066406 120.65625 100.046875 120.902344 100.046875 C 121.414063 100.046875 121.785156 100.144531 122.015625 100.335938 C 122.25 100.519531 122.363281 100.820313 122.363281 101.21875 C 122.363281 101.578125 122.25 101.84375 122.023438 102.03125 C 121.796875 102.214844 121.472656 102.304688 121.039063 102.304688 C 120.960938 102.304688 120.433594 102.269531 119.460938 102.195313 C 118.488281 102.132813 117.554688 102.09375 116.660156 102.09375 C 115.902344 102.09375 115.101563 102.132813 114.261719 102.195313 C 113.425781 102.269531 112.960938 102.304688 112.867188 102.304688 C 112.382813 102.304688 112.027344 102.222656 111.808594 102.054688 C 111.589844 101.886719 111.476563 101.625 111.476563 101.253906 C 111.476563 100.855469 111.597656 100.550781 111.847656 100.347656 C 112.097656 100.148438 112.464844 100.046875 112.9375 100.046875 C 113.058594 100.046875 113.234375 100.066406 113.453125 100.101563 C 113.675781 100.136719 113.832031 100.15625 113.925781 100.15625 C 114.589844 100.15625 115.039063 100.03125 115.257813 99.785156 C 115.476563 99.542969 115.585938 98.84375 115.585938 97.691406 Z M 102.625 87.652344 C 102.015625 87.664063 101.378906 87.679688 100.710938 87.710938 C 100.050781 87.738281 99.691406 87.757813 99.632813 87.757813 C 99.25 87.757813 98.964844 87.675781 98.785156 87.511719 C 98.34375 87.117188 98.449219 85.953125 98.878906 85.589844 C 99.121094 85.382813 99.453125 85.285156 99.871094 85.285156 C 99.917969 85.285156 100.195313 85.300781 100.703125 85.339844 C 101.214844 85.375 101.703125 85.390625 102.164063 85.390625 L 102.625 85.390625 C 102.625 85.308594 102.617188 85.1875 102.605469 85.035156 C 102.59375 84.878906 102.589844 84.757813 102.589844 84.675781 C 102.589844 82.707031 103.078125 81.085938 104.050781 80.066406 C 105.023438 79.046875 106.449219 78.539063 108.335938 78.539063 C 109.632813 78.539063 110.679688 78.832031 111.464844 79.421875 C 112.253906 80.015625 112.648438 80.789063 112.648438 81.753906 C 112.648438 82.28125 112.507813 82.699219 112.222656 83.015625 C 111.941406 83.332031 111.558594 83.488281 111.082031 83.488281 C 110.585938 83.488281 110.195313 83.367188 109.90625 83.132813 C 109.617188 82.902344 109.46875 82.589844 109.46875 82.191406 C 109.46875 82.054688 109.5 81.855469 109.550781 81.605469 C 109.605469 81.355469 109.628906 81.183594 109.628906 81.074219 C 109.628906 80.914063 109.519531 80.785156 109.300781 80.707031 C 109.089844 80.625 108.75 80.585938 108.300781 80.585938 C 107.269531 80.585938 106.484375 80.90625 105.953125 81.546875 C 105.417969 82.191406 105.15625 83.253906 105.15625 84.503906 C 105.15625 84.734375 105.15625 84.910156 105.164063 85.035156 C 105.167969 85.152344 105.179688 85.273438 105.203125 85.390625 C 105.964844 85.390625 106.757813 85.359375 107.582031 85.300781 C 107.777344 85.289063 107.894531 85.285156 107.941406 85.285156 C 108.402344 85.285156 108.765625 85.378906 109.019531 85.570313 C 109.488281 85.929688 109.5625 87.09375 109.105469 87.496094 C 108.910156 87.667969 108.601563 87.757813 108.195313 87.757813 C 108.148438 87.757813 108.03125 87.753906 107.835938 87.738281 C 106.953125 87.683594 106.101563 87.652344 105.273438 87.652344 L 105.273438 97.691406 C 105.273438 98.78125 105.359375 99.46875 105.527344 99.746094 C 105.695313 100.019531 106.050781 100.15625 106.582031 100.15625 C 106.625 100.15625 106.804688 100.136719 107.105469 100.101563 C 107.414063 100.066406 107.691406 100.046875 107.941406 100.046875 C 108.449219 100.046875 108.820313 100.144531 109.054688 100.335938 C 109.285156 100.519531 109.402344 100.820313 109.402344 101.21875 C 109.402344 101.578125 109.285156 101.84375 109.058594 102.03125 C 108.832031 102.214844 108.507813 102.304688 108.074219 102.304688 C 108 102.304688 107.472656 102.269531 106.496094 102.195313 C 105.523438 102.132813 104.589844 102.09375 103.695313 102.09375 C 102.9375 102.09375 102.136719 102.132813 101.296875 102.195313 C 100.460938 102.269531 99.996094 102.304688 99.90625 102.304688 C 99.417969 102.304688 99.0625 102.222656 98.84375 102.054688 C 98.625 101.886719 98.515625 101.625 98.515625 101.253906 C 98.515625 100.855469 98.636719 100.550781 98.886719 100.347656 C 99.132813 100.148438 99.5 100.046875 99.976563 100.046875 C 100.097656 100.046875 100.269531 100.066406 100.492188 100.101563 C 100.710938 100.136719 100.867188 100.15625 100.960938 100.15625 C 101.628906 100.15625 102.074219 100.03125 102.292969 99.785156 C 102.515625 99.542969 102.625 98.84375 102.625 97.691406 Z M 84.246094 93.648438 C 84.246094 95.859375 84.71875 97.566406 85.667969 98.769531 C 86.613281 99.96875 87.957031 100.570313 89.703125 100.570313 C 91.386719 100.570313 92.714844 99.957031 93.675781 98.726563 C 94.644531 97.496094 95.128906 95.800781 95.128906 93.648438 C 95.128906 91.46875 94.644531 89.769531 93.6875 88.542969 C 92.722656 87.320313 91.394531 86.707031 89.703125 86.707031 C 88 86.707031 86.664063 87.320313 85.699219 88.550781 C 84.730469 89.78125 84.246094 91.480469 84.246094 93.648438 Z M 81.703125 93.648438 C 81.703125 90.8125 82.421875 88.566406 83.851563 86.910156 C 85.285156 85.242188 87.222656 84.414063 89.671875 84.414063 C 92.152344 84.414063 94.105469 85.238281 95.53125 86.890625 C 96.960938 88.539063 97.671875 90.792969 97.671875 93.648438 C 97.671875 96.53125 96.960938 98.796875 95.53125 100.449219 C 94.105469 102.105469 92.140625 102.933594 89.640625 102.933594 C 87.214844 102.933594 85.285156 102.089844 83.851563 100.414063 C 82.421875 98.738281 81.703125 96.480469 81.703125 93.648438 Z M 53.878906 93.976563 L 53.878906 94.082031 C 53.878906 96.050781 54.355469 97.632813 55.304688 98.820313 C 56.25 100.007813 57.507813 100.605469 59.074219 100.605469 C 60.027344 100.605469 60.832031 100.433594 61.480469 100.082031 C 62.136719 99.726563 62.730469 99.167969 63.265625 98.386719 C 63.46875 98.070313 63.683594 97.59375 63.910156 96.949219 C 64.265625 95.992188 64.707031 95.515625 65.242188 95.515625 C 65.578125 95.515625 65.863281 95.632813 66.089844 95.871094 C 66.316406 96.113281 66.433594 96.410156 66.433594 96.773438 C 66.433594 97.191406 66.292969 97.71875 66.019531 98.339844 C 65.746094 98.964844 65.386719 99.585938 64.933594 100.207031 C 64.230469 101.136719 63.394531 101.824219 62.421875 102.269531 C 61.453125 102.710938 60.289063 102.933594 58.941406 102.933594 C 56.53125 102.933594 54.625 102.097656 53.210938 100.425781 C 51.800781 98.75 51.089844 96.492188 51.089844 93.648438 C 51.089844 90.8125 51.800781 88.5625 53.210938 86.886719 C 54.625 85.214844 56.53125 84.378906 58.941406 84.378906 C 61.253906 84.378906 63.101563 85.09375 64.492188 86.519531 C 65.875 87.949219 66.566406 89.855469 66.566406 92.246094 C 66.566406 92.929688 66.449219 93.390625 66.222656 93.625 C 65.996094 93.855469 65.554688 93.976563 64.898438 93.976563 Z M 54.046875 91.683594 L 63.671875 91.683594 L 63.671875 91.457031 C 63.671875 90.035156 63.234375 88.882813 62.371094 87.996094 C 61.5 87.113281 60.363281 86.671875 58.96875 86.671875 C 57.597656 86.671875 56.472656 87.117188 55.59375 88.011719 C 54.710938 88.914063 54.199219 90.132813 54.046875 91.683594 Z M 33.074219 84.042969 C 33.074219 82.285156 32.949219 81.792969 32.691406 81.4375 C 32.441406 81.089844 32.457031 80.910156 31.671875 80.910156 L 30.652344 80.910156 C 30.222656 80.910156 29.90625 80.835938 29.726563 80.6875 C 29.542969 80.535156 29.449219 80.285156 29.449219 79.941406 C 29.449219 79.582031 29.5625 79.304688 29.78125 79.109375 C 30.003906 78.914063 30.324219 78.8125 30.746094 78.8125 C 30.769531 78.8125 30.964844 78.832031 31.324219 78.867188 C 31.691406 78.902344 31.519531 78.921875 31.871094 78.921875 C 32.65625 78.921875 33.429688 78.890625 34.214844 78.832031 C 34.351563 78.820313 34.441406 78.8125 34.472656 78.8125 C 34.882813 78.8125 35.160156 78.902344 35.304688 79.078125 C 35.457031 79.261719 35.527344 79.695313 35.527344 80.375 L 35.527344 87.257813 C 36.242188 86.289063 37.035156 85.578125 37.90625 85.128906 C 38.777344 84.679688 39.785156 84.457031 40.921875 84.457031 C 43.175781 84.457031 44.800781 85.046875 45.804688 86.230469 C 46.808594 87.414063 47.308594 89.328125 47.308594 91.96875 L 47.308594 97.582031 C 47.308594 98.667969 47.40625 99.347656 47.605469 99.621094 C 47.804688 99.890625 48.234375 100.027344 48.882813 100.027344 C 49.011719 100.027344 49.171875 100.011719 49.359375 99.976563 C 49.554688 99.941406 49.675781 99.921875 49.742188 99.921875 C 50.195313 99.921875 50.546875 100.023438 50.785156 100.21875 C 51.023438 100.417969 51.140625 100.71875 51.140625 101.117188 C 51.140625 101.488281 51.039063 101.761719 50.839844 101.921875 C 50.640625 102.078125 50.308594 102.15625 49.84375 102.15625 C 49.71875 102.15625 49.265625 102.121094 48.476563 102.050781 C 47.683594 101.984375 46.957031 101.949219 46.285156 101.949219 C 45.484375 101.949219 44.652344 101.984375 43.785156 102.050781 C 42.914063 102.121094 42.449219 102.15625 42.386719 102.15625 C 42.003906 102.15625 41.71875 102.0625 41.511719 101.871094 C 41.304688 101.691406 41.199219 101.421875 41.199219 101.082031 C 41.199219 100.683594 41.304688 100.390625 41.515625 100.207031 C 41.726563 100.015625 42.050781 99.921875 42.480469 99.921875 C 42.675781 99.921875 42.902344 99.941406 43.164063 99.976563 C 43.425781 100.011719 43.585938 100.027344 43.652344 100.027344 C 44.105469 100.027344 44.410156 99.898438 44.5625 99.632813 C 44.710938 99.367188 44.789063 98.679688 44.789063 97.582031 L 44.789063 92.542969 C 44.789063 90.410156 44.457031 88.882813 43.796875 87.980469 C 43.136719 87.074219 42.050781 86.621094 40.53125 86.621094 C 38.800781 86.621094 37.53125 87.253906 36.730469 88.523438 C 35.925781 89.792969 35.527344 91.8125 35.527344 94.570313 L 35.527344 97.582031 C 35.527344 98.679688 35.605469 99.367188 35.753906 99.632813 C 35.90625 99.898438 36.210938 100.027344 36.664063 100.027344 C 36.730469 100.027344 36.898438 100.011719 37.164063 99.976563 C 37.429688 99.941406 37.652344 99.921875 37.835938 99.921875 C 38.273438 99.921875 38.589844 100.015625 38.792969 100.207031 C 39 100.390625 39.105469 100.683594 39.105469 101.082031 C 39.105469 101.433594 39.003906 101.703125 38.804688 101.882813 C 38.605469 102.066406 38.3125 102.15625 37.933594 102.15625 C 37.867188 102.15625 37.402344 102.121094 36.535156 102.050781 C 35.671875 101.984375 34.835938 101.949219 34.035156 101.949219 C 33.375 101.949219 32.644531 101.984375 31.851563 102.050781 C 31.050781 102.121094 30.597656 102.15625 30.476563 102.15625 C 30.007813 102.15625 29.675781 102.078125 29.476563 101.921875 C 29.277344 101.761719 29.175781 101.488281 29.175781 101.117188 C 29.175781 100.71875 29.292969 100.417969 29.519531 100.21875 C 29.75 100.023438 30.085938 99.921875 30.542969 99.921875 C 30.664063 99.921875 30.824219 99.941406 31.035156 99.976563 C 31.246094 100.011719 31.394531 100.027344 31.484375 100.027344 C 32.121094 100.027344 32.550781 99.90625 32.761719 99.660156 C 32.96875 99.417969 33.074219 98.726563 33.074219 97.582031 Z M 33.074219 84.042969 "/>
<path style=" stroke:none;fill-rule:evenodd;fill:rgb(100%,100%,100%);fill-opacity:1;" d="M 17.402344 84.101563 C 17.601563 84.101563 17.738281 84.058594 17.820313 83.976563 C 17.902344 83.894531 17.945313 83.753906 17.945313 83.558594 L 17.945313 79.753906 C 17.945313 79.4375 18.058594 79.175781 18.292969 78.96875 C 18.527344 78.757813 18.832031 78.652344 19.199219 78.652344 C 19.574219 78.652344 19.886719 78.757813 20.136719 78.972656 C 20.386719 79.1875 20.511719 79.449219 20.511719 79.753906 L 20.511719 83.457031 C 20.511719 83.742188 20.546875 83.925781 20.601563 83.992188 C 20.660156 84.0625 20.800781 84.101563 21.019531 84.101563 L 24.601563 84.101563 C 25.035156 84.101563 25.371094 84.203125 25.609375 84.40625 C 25.847656 84.609375 25.96875 84.898438 25.96875 85.269531 C 25.96875 85.6875 25.835938 86 25.582031 86.195313 C 25.324219 86.390625 24.941406 86.492188 24.429688 86.492188 L 21.019531 86.492188 C 20.835938 86.492188 20.707031 86.566406 20.625 86.714844 C 20.550781 86.859375 20.511719 87.121094 20.511719 87.488281 L 20.511719 94.78125 C 20.511719 96.777344 20.6875 98.042969 21.039063 98.59375 C 21.386719 99.140625 22.015625 99.417969 22.925781 99.417969 C 23.707031 99.417969 24.308594 99.15625 24.746094 98.628906 C 25.175781 98.105469 25.390625 97.359375 25.390625 96.390625 C 25.390625 96.195313 25.378906 95.890625 25.351563 95.484375 C 25.328125 95.070313 25.316406 94.773438 25.316406 94.570313 C 25.316406 94.023438 25.417969 93.609375 25.628906 93.324219 C 25.832031 93.035156 26.128906 92.894531 26.527344 92.894531 C 27.066406 92.894531 27.441406 93.074219 27.664063 93.425781 C 27.882813 93.78125 27.996094 94.414063 27.996094 95.324219 C 27.996094 97.433594 27.542969 99.046875 26.636719 100.167969 C 25.722656 101.285156 24.40625 101.847656 22.667969 101.847656 C 20.9375 101.847656 19.699219 101.40625 18.957031 100.527344 C 18.207031 99.644531 17.839844 98.164063 17.839844 96.074219 L 17.839844 87.488281 C 17.839844 87.046875 17.800781 86.769531 17.726563 86.660156 C 17.648438 86.546875 17.515625 86.492188 17.332031 86.492188 L 15.964844 86.492188 C 15.546875 86.492188 15.242188 86.398438 15.046875 86.207031 C 14.855469 86.019531 14.761719 85.710938 14.761719 85.304688 C 14.761719 84.886719 14.859375 84.578125 15.066406 84.386719 C 15.273438 84.195313 15.59375 84.101563 16.035156 84.101563 Z M 152.523438 93.222656 L 152.523438 93.332031 C 152.523438 95.300781 153 96.882813 153.945313 98.070313 C 154.894531 99.257813 156.148438 99.855469 157.71875 99.855469 C 158.671875 99.855469 159.472656 99.679688 160.125 99.328125 C 160.78125 98.976563 161.371094 98.414063 161.90625 97.632813 C 162.109375 97.316406 162.324219 96.839844 162.550781 96.195313 C 162.90625 95.238281 163.347656 94.761719 163.882813 94.761719 C 164.21875 94.761719 164.503906 94.882813 164.730469 95.121094 C 164.957031 95.359375 165.074219 95.65625 165.074219 96.023438 C 165.074219 96.441406 164.933594 96.964844 164.660156 97.585938 C 164.386719 98.210938 164.027344 98.832031 163.574219 99.453125 C 162.871094 100.382813 162.035156 101.070313 161.066406 101.519531 C 160.09375 101.960938 158.933594 102.179688 157.582031 102.179688 C 155.171875 102.179688 153.265625 101.34375 151.855469 99.675781 C 150.441406 97.996094 149.734375 95.742188 149.734375 92.894531 C 149.734375 90.058594 150.441406 87.808594 151.855469 86.132813 C 153.265625 84.460938 155.171875 83.625 157.582031 83.625 C 159.898438 83.625 161.746094 84.34375 163.132813 85.769531 C 164.515625 87.195313 165.207031 89.105469 165.207031 91.492188 C 165.207031 92.179688 165.089844 92.636719 164.863281 92.871094 C 164.636719 93.105469 164.195313 93.222656 163.539063 93.222656 Z M 152.691406 90.929688 L 162.3125 90.929688 L 162.3125 90.703125 C 162.3125 89.285156 161.878906 88.132813 161.011719 87.242188 C 160.140625 86.359375 159.007813 85.917969 157.613281 85.917969 C 156.242188 85.917969 155.113281 86.367188 154.238281 87.261719 C 153.351563 88.160156 152.84375 89.378906 152.691406 90.929688 Z M 133.820313 92.820313 C 133.820313 89.949219 134.515625 87.699219 135.90625 86.054688 C 137.296875 84.414063 139.203125 83.589844 141.628906 83.589844 C 143.582031 83.589844 145.160156 84.074219 146.363281 85.039063 C 147.5625 86.007813 148.164063 87.265625 148.164063 88.816406 C 148.164063 89.71875 147.925781 90.433594 147.441406 90.96875 C 146.957031 91.5 146.300781 91.765625 145.472656 91.765625 C 144.910156 91.765625 144.46875 91.628906 144.164063 91.359375 C 143.851563 91.085938 143.699219 90.699219 143.699219 90.203125 C 143.699219 89.867188 143.78125 89.5625 143.941406 89.285156 C 144.101563 89.007813 144.335938 88.78125 144.625 88.605469 C 144.683594 88.570313 144.765625 88.539063 144.871094 88.503906 C 145.109375 88.398438 145.234375 88.242188 145.234375 88.035156 C 145.234375 87.480469 144.898438 86.976563 144.238281 86.53125 C 143.574219 86.089844 142.78125 85.863281 141.855469 85.863281 C 140.136719 85.863281 138.808594 86.496094 137.859375 87.765625 C 136.90625 89.03125 136.429688 90.8125 136.429688 93.117188 C 136.429688 95.128906 136.890625 96.746094 137.808594 97.964844 C 138.726563 99.183594 139.933594 99.792969 141.433594 99.792969 C 142.445313 99.792969 143.28125 99.570313 143.941406 99.125 C 144.609375 98.679688 145.148438 97.976563 145.570313 97.003906 C 145.671875 96.785156 145.792969 96.4375 145.949219 95.964844 C 146.316406 94.867188 146.777344 94.316406 147.328125 94.316406 C 147.679688 94.316406 147.96875 94.4375 148.195313 94.671875 C 148.425781 94.910156 148.535156 95.207031 148.535156 95.566406 C 148.535156 96.101563 148.402344 96.726563 148.136719 97.449219 C 147.867188 98.171875 147.523438 98.816406 147.101563 99.398438 C 146.449219 100.261719 145.636719 100.917969 144.675781 101.363281 C 143.707031 101.808594 142.589844 102.03125 141.332031 102.03125 C 139.019531 102.03125 137.191406 101.203125 135.839844 99.550781 C 134.492188 97.898438 133.820313 95.65625 133.820313 92.820313 Z M 127.835938 96.9375 L 127.835938 89.808594 C 127.835938 88.164063 127.730469 87.140625 127.519531 86.738281 C 127.3125 86.339844 126.886719 86.136719 126.238281 86.136719 L 125.078125 86.136719 C 124.695313 86.136719 124.425781 86.058594 124.28125 85.910156 C 124.136719 85.753906 124.0625 85.492188 124.0625 85.121094 C 124.0625 84.804688 124.171875 84.539063 124.382813 84.316406 C 124.597656 84.09375 124.859375 83.980469 125.175781 83.980469 C 125.238281 83.980469 125.472656 84 125.886719 84.035156 C 126.296875 84.070313 126.683594 84.089844 127.039063 84.089844 C 127.632813 84.089844 128.253906 84.058594 128.898438 84 C 129.058594 83.988281 129.152344 83.980469 129.183594 83.980469 C 129.621094 83.980469 129.914063 84.070313 130.058594 84.246094 C 130.203125 84.417969 130.277344 84.824219 130.277344 85.457031 L 130.277344 96.9375 C 130.277344 98.011719 130.375 98.695313 130.566406 98.992188 C 130.757813 99.289063 131.164063 99.441406 131.78125 99.441406 C 131.914063 99.441406 132.074219 99.421875 132.25 99.386719 C 132.425781 99.351563 132.554688 99.332031 132.625 99.332031 C 133.074219 99.332031 133.410156 99.425781 133.632813 99.625 C 133.859375 99.820313 133.96875 100.113281 133.96875 100.5 C 133.96875 100.882813 133.875 101.152344 133.683594 101.3125 C 133.488281 101.476563 133.167969 101.550781 132.71875 101.550781 C 132.589844 101.550781 132.152344 101.515625 131.40625 101.445313 C 130.652344 101.378906 129.96875 101.34375 129.355469 101.34375 C 128.195313 101.34375 127.023438 101.398438 125.832031 101.511719 C 125.570313 101.539063 125.410156 101.550781 125.347656 101.550781 C 124.886719 101.550781 124.5625 101.46875 124.363281 101.300781 C 124.164063 101.132813 124.0625 100.871094 124.0625 100.5 C 124.0625 100.113281 124.175781 99.820313 124.398438 99.625 C 124.625 99.425781 124.960938 99.332031 125.410156 99.332031 C 125.511719 99.332031 125.667969 99.351563 125.863281 99.386719 C 126.0625 99.421875 126.207031 99.441406 126.300781 99.441406 C 126.9375 99.441406 127.355469 99.296875 127.546875 99.011719 C 127.738281 98.722656 127.835938 98.035156 127.835938 96.9375 Z M 126.628906 80.539063 C 126.628906 79.996094 126.816406 79.53125 127.191406 79.160156 C 127.5625 78.785156 128.019531 78.597656 128.570313 78.597656 C 129.09375 78.597656 129.535156 78.785156 129.894531 79.160156 C 130.246094 79.53125 130.425781 79.996094 130.425781 80.539063 C 130.425781 81.0625 130.246094 81.515625 129.882813 81.886719 C 129.523438 82.261719 129.082031 82.449219 128.570313 82.449219 C 128.019531 82.449219 127.5625 82.261719 127.191406 81.898438 C 126.816406 81.527344 126.628906 81.074219 126.628906 80.539063 Z M 114.835938 86.898438 C 114.226563 86.910156 113.589844 86.929688 112.921875 86.957031 C 112.261719 86.988281 111.902344 87.003906 111.84375 87.003906 C 111.460938 87.003906 111.175781 86.921875 110.996094 86.761719 C 110.554688 86.363281 110.660156 85.199219 111.089844 84.835938 C 111.332031 84.632813 111.664063 84.53125 112.082031 84.53125 C 112.128906 84.53125 112.40625 84.550781 112.917969 84.585938 C 113.425781 84.621094 113.914063 84.640625 114.378906 84.640625 L 114.835938 84.640625 C 114.835938 84.554688 114.828125 84.4375 114.820313 84.28125 C 114.808594 84.125 114.800781 84.007813 114.800781 83.921875 C 114.800781 81.953125 115.289063 80.335938 116.261719 79.316406 C 117.234375 78.292969 118.660156 77.785156 120.546875 77.785156 C 121.84375 77.785156 122.894531 78.082031 123.675781 78.667969 C 124.464844 79.261719 124.859375 80.035156 124.859375 81.003906 C 124.859375 81.527344 124.71875 81.945313 124.4375 82.261719 C 124.152344 82.578125 123.769531 82.734375 123.292969 82.734375 C 122.796875 82.734375 122.40625 82.613281 122.117188 82.382813 C 121.828125 82.148438 121.683594 81.839844 121.683594 81.4375 C 121.683594 81.300781 121.710938 81.105469 121.761719 80.855469 C 121.816406 80.605469 121.839844 80.429688 121.839844 80.324219 C 121.839844 80.160156 121.730469 80.035156 121.515625 79.953125 C 121.300781 79.871094 120.964844 79.832031 120.511719 79.832031 C 119.480469 79.832031 118.695313 80.15625 118.164063 80.792969 C 117.628906 81.4375 117.371094 82.503906 117.371094 83.75 C 117.371094 83.984375 117.371094 84.15625 117.375 84.28125 C 117.378906 84.402344 117.390625 84.519531 117.414063 84.640625 C 118.175781 84.640625 118.96875 84.609375 119.792969 84.550781 C 119.988281 84.535156 120.105469 84.53125 120.152344 84.53125 C 120.617188 84.53125 120.976563 84.625 121.230469 84.820313 C 121.699219 85.175781 121.773438 86.34375 121.316406 86.742188 C 121.121094 86.917969 120.8125 87.003906 120.40625 87.003906 C 120.359375 87.003906 120.246094 87 120.046875 86.988281 C 119.167969 86.929688 118.3125 86.898438 117.484375 86.898438 L 117.484375 96.9375 C 117.484375 98.03125 117.570313 98.71875 117.742188 98.992188 C 117.910156 99.265625 118.261719 99.402344 118.796875 99.402344 C 118.835938 99.402344 119.015625 99.386719 119.316406 99.351563 C 119.625 99.3125 119.902344 99.296875 120.152344 99.296875 C 120.664063 99.296875 121.035156 99.390625 121.265625 99.582031 C 121.496094 99.769531 121.613281 100.066406 121.613281 100.464844 C 121.613281 100.824219 121.496094 101.09375 121.269531 101.277344 C 121.042969 101.460938 120.71875 101.550781 120.285156 101.550781 C 120.210938 101.550781 119.683594 101.515625 118.707031 101.445313 C 117.734375 101.378906 116.800781 101.34375 115.910156 101.34375 C 115.148438 101.34375 114.347656 101.378906 113.507813 101.445313 C 112.671875 101.515625 112.210938 101.550781 112.117188 101.550781 C 111.628906 101.550781 111.277344 101.46875 111.054688 101.300781 C 110.835938 101.132813 110.726563 100.871094 110.726563 100.5 C 110.726563 100.101563 110.847656 99.796875 111.097656 99.59375 C 111.347656 99.398438 111.710938 99.296875 112.1875 99.296875 C 112.308594 99.296875 112.480469 99.3125 112.703125 99.351563 C 112.921875 99.386719 113.078125 99.402344 113.171875 99.402344 C 113.839844 99.402344 114.285156 99.277344 114.503906 99.035156 C 114.726563 98.789063 114.835938 98.089844 114.835938 96.9375 Z M 101.871094 86.898438 C 101.261719 86.910156 100.625 86.929688 99.957031 86.957031 C 99.296875 86.988281 98.9375 87.003906 98.878906 87.003906 C 98.496094 87.003906 98.214844 86.921875 98.035156 86.761719 C 97.589844 86.363281 97.695313 85.199219 98.125 84.835938 C 98.367188 84.632813 98.699219 84.53125 99.117188 84.53125 C 99.164063 84.53125 99.441406 84.550781 99.953125 84.585938 C 100.460938 84.621094 100.949219 84.640625 101.414063 84.640625 L 101.871094 84.640625 C 101.871094 84.554688 101.867188 84.4375 101.855469 84.28125 C 101.84375 84.125 101.835938 84.007813 101.835938 83.921875 C 101.835938 81.953125 102.324219 80.335938 103.296875 79.316406 C 104.273438 78.292969 105.699219 77.785156 107.582031 77.785156 C 108.878906 77.785156 109.929688 78.082031 110.710938 78.667969 C 111.5 79.261719 111.894531 80.035156 111.894531 81.003906 C 111.894531 81.527344 111.757813 81.945313 111.472656 82.261719 C 111.1875 82.578125 110.804688 82.734375 110.332031 82.734375 C 109.832031 82.734375 109.441406 82.613281 109.152344 82.382813 C 108.863281 82.148438 108.71875 81.839844 108.71875 81.4375 C 108.71875 81.300781 108.746094 81.105469 108.800781 80.855469 C 108.851563 80.605469 108.875 80.429688 108.875 80.324219 C 108.875 80.160156 108.765625 80.035156 108.550781 79.953125 C 108.335938 79.871094 108 79.832031 107.546875 79.832031 C 106.515625 79.832031 105.730469 80.15625 105.199219 80.792969 C 104.664063 81.4375 104.40625 82.503906 104.40625 83.75 C 104.40625 83.984375 104.40625 84.15625 104.410156 84.28125 C 104.417969 84.402344 104.429688 84.519531 104.453125 84.640625 C 105.210938 84.640625 106.003906 84.609375 106.828125 84.550781 C 107.023438 84.535156 107.140625 84.53125 107.1875 84.53125 C 107.652344 84.53125 108.011719 84.625 108.265625 84.820313 C 108.738281 85.175781 108.808594 86.34375 108.351563 86.742188 C 108.15625 86.917969 107.847656 87.003906 107.441406 87.003906 C 107.398438 87.003906 107.28125 87 107.082031 86.988281 C 106.203125 86.929688 105.351563 86.898438 104.519531 86.898438 L 104.519531 96.9375 C 104.519531 98.03125 104.609375 98.71875 104.777344 98.992188 C 104.945313 99.265625 105.296875 99.402344 105.832031 99.402344 C 105.871094 99.402344 106.050781 99.386719 106.351563 99.351563 C 106.660156 99.3125 106.9375 99.296875 107.1875 99.296875 C 107.699219 99.296875 108.070313 99.390625 108.300781 99.582031 C 108.53125 99.769531 108.648438 100.066406 108.648438 100.464844 C 108.648438 100.824219 108.53125 101.09375 108.308594 101.277344 C 108.082031 101.460938 107.757813 101.550781 107.320313 101.550781 C 107.246094 101.550781 106.71875 101.515625 105.746094 101.445313 C 104.769531 101.378906 103.835938 101.34375 102.945313 101.34375 C 102.183594 101.34375 101.382813 101.378906 100.542969 101.445313 C 99.710938 101.515625 99.246094 101.550781 99.152344 101.550781 C 98.664063 101.550781 98.3125 101.46875 98.09375 101.300781 C 97.871094 101.132813 97.761719 100.871094 97.761719 100.5 C 97.761719 100.101563 97.882813 99.796875 98.132813 99.59375 C 98.382813 99.398438 98.746094 99.296875 99.222656 99.296875 C 99.34375 99.296875 99.519531 99.3125 99.738281 99.351563 C 99.957031 99.386719 100.113281 99.402344 100.207031 99.402344 C 100.875 99.402344 101.320313 99.277344 101.542969 99.035156 C 101.761719 98.789063 101.871094 98.089844 101.871094 96.9375 Z M 83.496094 92.894531 C 83.496094 95.109375 83.964844 96.816406 84.914063 98.015625 C 85.863281 99.214844 87.207031 99.816406 88.953125 99.816406 C 90.632813 99.816406 91.960938 99.203125 92.925781 97.972656 C 93.894531 96.746094 94.375 95.050781 94.375 92.894531 C 94.375 90.714844 93.894531 89.015625 92.933594 87.792969 C 91.972656 86.570313 90.644531 85.953125 88.953125 85.953125 C 87.25 85.953125 85.910156 86.570313 84.945313 87.796875 C 83.976563 89.027344 83.496094 90.726563 83.496094 92.894531 Z M 80.953125 92.894531 C 80.953125 90.058594 81.667969 87.816406 83.097656 86.15625 C 84.535156 84.492188 86.472656 83.660156 88.917969 83.660156 C 91.398438 83.660156 93.351563 84.484375 94.777344 86.140625 C 96.207031 87.785156 96.917969 90.042969 96.917969 92.894531 C 96.917969 95.777344 96.207031 98.046875 94.777344 99.699219 C 93.351563 101.351563 91.386719 102.179688 88.886719 102.179688 C 86.460938 102.179688 84.535156 101.339844 83.097656 99.664063 C 81.667969 97.984375 80.953125 95.730469 80.953125 92.894531 Z M 53.128906 93.222656 L 53.128906 93.332031 C 53.128906 95.300781 53.605469 96.882813 54.550781 98.070313 C 55.5 99.257813 56.753906 99.855469 58.324219 99.855469 C 59.277344 99.855469 60.078125 99.679688 60.730469 99.328125 C 61.386719 98.976563 61.976563 98.414063 62.511719 97.632813 C 62.714844 97.316406 62.929688 96.839844 63.15625 96.195313 C 63.511719 95.238281 63.953125 94.761719 64.488281 94.761719 C 64.824219 94.761719 65.109375 94.882813 65.335938 95.121094 C 65.5625 95.359375 65.679688 95.65625 65.679688 96.023438 C 65.679688 96.441406 65.539063 96.964844 65.269531 97.585938 C 64.996094 98.210938 64.632813 98.832031 64.179688 99.453125 C 63.476563 100.382813 62.640625 101.070313 61.671875 101.519531 C 60.699219 101.960938 59.539063 102.179688 58.1875 102.179688 C 55.777344 102.179688 53.871094 101.34375 52.460938 99.675781 C 51.046875 97.996094 50.339844 95.742188 50.339844 92.894531 C 50.339844 90.058594 51.046875 87.808594 52.460938 86.132813 C 53.871094 84.460938 55.777344 83.625 58.1875 83.625 C 60.503906 83.625 62.351563 84.34375 63.738281 85.769531 C 65.121094 87.195313 65.8125 89.105469 65.8125 91.492188 C 65.8125 92.179688 65.699219 92.636719 65.472656 92.871094 C 65.246094 93.105469 64.804688 93.222656 64.144531 93.222656 Z M 53.296875 90.929688 L 62.917969 90.929688 L 62.917969 90.703125 C 62.917969 89.285156 62.484375 88.132813 61.617188 87.242188 C 60.746094 86.359375 59.613281 85.917969 58.21875 85.917969 C 56.847656 85.917969 55.71875 86.367188 54.84375 87.261719 C 53.957031 88.160156 53.445313 89.378906 53.296875 90.929688 Z M 32.324219 83.289063 C 32.324219 81.535156 32.199219 81.039063 31.941406 80.6875 C 31.6875 80.335938 31.703125 80.160156 30.921875 80.160156 L 29.902344 80.160156 C 29.46875 80.160156 29.15625 80.085938 28.976563 79.933594 C 28.789063 79.785156 28.695313 79.535156 28.695313 79.191406 C 28.695313 78.828125 28.808594 78.550781 29.03125 78.355469 C 29.25 78.164063 29.574219 78.0625 29.996094 78.0625 C 30.015625 78.0625 30.210938 78.078125 30.570313 78.113281 C 30.9375 78.148438 30.765625 78.167969 31.121094 78.167969 C 31.902344 78.167969 32.679688 78.140625 33.460938 78.078125 C 33.597656 78.066406 33.6875 78.0625 33.722656 78.0625 C 34.132813 78.0625 34.410156 78.148438 34.554688 78.328125 C 34.703125 78.511719 34.773438 78.941406 34.773438 79.621094 L 34.773438 86.507813 C 35.492188 85.535156 36.285156 84.828125 37.15625 84.378906 C 38.023438 83.929688 39.035156 83.703125 40.171875 83.703125 C 42.421875 83.703125 44.046875 84.296875 45.050781 85.476563 C 46.054688 86.660156 46.554688 88.574219 46.554688 91.21875 L 46.554688 96.828125 C 46.554688 97.917969 46.65625 98.597656 46.855469 98.867188 C 47.054688 99.140625 47.480469 99.277344 48.128906 99.277344 C 48.257813 99.277344 48.417969 99.257813 48.605469 99.222656 C 48.800781 99.1875 48.921875 99.167969 48.988281 99.167969 C 49.445313 99.167969 49.792969 99.269531 50.03125 99.464844 C 50.269531 99.667969 50.386719 99.96875 50.386719 100.363281 C 50.386719 100.738281 50.289063 101.007813 50.089844 101.167969 C 49.886719 101.328125 49.554688 101.40625 49.089844 101.40625 C 48.96875 101.40625 48.511719 101.367188 47.726563 101.296875 C 46.933594 101.234375 46.207031 101.199219 45.535156 101.199219 C 44.730469 101.199219 43.898438 101.234375 43.03125 101.296875 C 42.164063 101.367188 41.695313 101.40625 41.636719 101.40625 C 41.253906 101.40625 40.964844 101.308594 40.757813 101.121094 C 40.554688 100.9375 40.449219 100.671875 40.449219 100.328125 C 40.449219 99.933594 40.554688 99.636719 40.765625 99.453125 C 40.976563 99.265625 41.296875 99.167969 41.730469 99.167969 C 41.925781 99.167969 42.152344 99.1875 42.414063 99.222656 C 42.671875 99.257813 42.832031 99.277344 42.898438 99.277344 C 43.355469 99.277344 43.660156 99.144531 43.808594 98.878906 C 43.960938 98.613281 44.039063 97.929688 44.039063 96.828125 L 44.039063 91.792969 C 44.039063 89.65625 43.703125 88.132813 43.042969 87.226563 C 42.382813 86.324219 41.296875 85.867188 39.777344 85.867188 C 38.046875 85.867188 36.777344 86.5 35.980469 87.773438 C 35.175781 89.042969 34.773438 91.058594 34.773438 93.820313 L 34.773438 96.828125 C 34.773438 97.929688 34.851563 98.613281 35.003906 98.878906 C 35.152344 99.144531 35.457031 99.277344 35.910156 99.277344 C 35.980469 99.277344 36.144531 99.257813 36.410156 99.222656 C 36.675781 99.1875 36.898438 99.167969 37.082031 99.167969 C 37.519531 99.167969 37.835938 99.265625 38.042969 99.453125 C 38.246094 99.636719 38.351563 99.933594 38.351563 100.328125 C 38.351563 100.683594 38.253906 100.949219 38.050781 101.132813 C 37.851563 101.316406 37.558594 101.40625 37.183594 101.40625 C 37.117188 101.40625 36.648438 101.367188 35.785156 101.296875 C 34.917969 101.234375 34.082031 101.199219 33.28125 101.199219 C 32.625 101.199219 31.890625 101.234375 31.097656 101.296875 C 30.300781 101.367188 29.84375 101.40625 29.722656 101.40625 C 29.257813 101.40625 28.925781 101.328125 28.722656 101.167969 C 28.523438 101.007813 28.425781 100.738281 28.425781 100.363281 C 28.425781 99.96875 28.542969 99.667969 28.769531 99.464844 C 28.996094 99.269531 29.335938 99.167969 29.789063 99.167969 C 29.910156 99.167969 30.070313 99.1875 30.28125 99.222656 C 30.492188 99.257813 30.644531 99.277344 30.730469 99.277344 C 31.371094 99.277344 31.796875 99.152344 32.007813 98.910156 C 32.21875 98.667969 32.324219 97.976563 32.324219 96.828125 Z M 32.324219 83.289063 "/>
</g>
</svg>
